%TF.GenerationSoftware,KiCad,Pcbnew,10.0.5*%
%TF.CreationDate,2026-09-01T22:57:51+02:00*%
%TF.ProjectId,drone_fc,64726f6e-655f-4666-932e-6b696361645f,v2.0.0*%
%TF.SameCoordinates,Original*%
%TF.FileFunction,Copper,L1,Top*%
%TF.FilePolarity,Positive*%
%FSLAX46Y46*%
G04 Gerber Fmt 4.6, Leading zero omitted, Abs format (unit mm)*
G04 Created by KiCad (PCBNEW 10.0.5) date 2026-09-01 22:57:51*
%MOMM*%
%LPD*%
G01*
G04 APERTURE LIST*
G04 Aperture macros list*
%AMRoundRect*
0 Rectangle with rounded corners*
0 $1 Rounding radius*
0 $2 $3 $4 $5 $6 $7 $8 $9 X,Y pos of 4 corners*
0 Add a 4 corners polygon primitive as box body*
4,1,4,$2,$3,$4,$5,$6,$7,$8,$9,$2,$3,0*
0 Add four circle primitives for the rounded corners*
1,1,$1+$1,$2,$3*
1,1,$1+$1,$4,$5*
1,1,$1+$1,$6,$7*
1,1,$1+$1,$8,$9*
0 Add four rect primitives between the rounded corners*
20,1,$1+$1,$2,$3,$4,$5,0*
20,1,$1+$1,$4,$5,$6,$7,0*
20,1,$1+$1,$6,$7,$8,$9,0*
20,1,$1+$1,$8,$9,$2,$3,0*%
G04 Aperture macros list end*
%ADD10C,0.150000*%
%TA.AperFunction,NonConductor*%
%ADD11C,0.150000*%
%TD*%
%TA.AperFunction,SMDPad,CuDef*%
%ADD12RoundRect,0.150000X-0.150000X0.512500X-0.150000X-0.512500X0.150000X-0.512500X0.150000X0.512500X0*%
%TD*%
%TA.AperFunction,SMDPad,CuDef*%
%ADD13RoundRect,0.135000X0.185000X-0.135000X0.185000X0.135000X-0.185000X0.135000X-0.185000X-0.135000X0*%
%TD*%
%TA.AperFunction,SMDPad,CuDef*%
%ADD14RoundRect,0.140000X0.140000X0.170000X-0.140000X0.170000X-0.140000X-0.170000X0.140000X-0.170000X0*%
%TD*%
%TA.AperFunction,SMDPad,CuDef*%
%ADD15C,1.000000*%
%TD*%
%TA.AperFunction,SMDPad,CuDef*%
%ADD16RoundRect,0.150000X0.150000X0.625000X-0.150000X0.625000X-0.150000X-0.625000X0.150000X-0.625000X0*%
%TD*%
%TA.AperFunction,SMDPad,CuDef*%
%ADD17RoundRect,0.250000X0.350000X0.650000X-0.350000X0.650000X-0.350000X-0.650000X0.350000X-0.650000X0*%
%TD*%
%TA.AperFunction,SMDPad,CuDef*%
%ADD18RoundRect,0.135000X-0.135000X-0.185000X0.135000X-0.185000X0.135000X0.185000X-0.135000X0.185000X0*%
%TD*%
%TA.AperFunction,SMDPad,CuDef*%
%ADD19RoundRect,0.250000X-0.650000X0.325000X-0.650000X-0.325000X0.650000X-0.325000X0.650000X0.325000X0*%
%TD*%
%TA.AperFunction,ConnectorPad*%
%ADD20C,0.787400*%
%TD*%
%TA.AperFunction,SMDPad,CuDef*%
%ADD21RoundRect,0.150000X0.512500X0.150000X-0.512500X0.150000X-0.512500X-0.150000X0.512500X-0.150000X0*%
%TD*%
%TA.AperFunction,SMDPad,CuDef*%
%ADD22RoundRect,0.135000X0.135000X0.185000X-0.135000X0.185000X-0.135000X-0.185000X0.135000X-0.185000X0*%
%TD*%
%TA.AperFunction,SMDPad,CuDef*%
%ADD23RoundRect,0.147500X0.147500X0.172500X-0.147500X0.172500X-0.147500X-0.172500X0.147500X-0.172500X0*%
%TD*%
%TA.AperFunction,SMDPad,CuDef*%
%ADD24RoundRect,0.250000X-0.650000X1.000000X-0.650000X-1.000000X0.650000X-1.000000X0.650000X1.000000X0*%
%TD*%
%TA.AperFunction,SMDPad,CuDef*%
%ADD25R,0.280000X0.500000*%
%TD*%
%TA.AperFunction,SMDPad,CuDef*%
%ADD26R,0.500000X0.280000*%
%TD*%
%TA.AperFunction,SMDPad,CuDef*%
%ADD27R,0.550000X0.400000*%
%TD*%
%TA.AperFunction,SMDPad,CuDef*%
%ADD28R,0.400000X0.550000*%
%TD*%
%TA.AperFunction,SMDPad,CuDef*%
%ADD29RoundRect,0.250000X-0.475000X0.250000X-0.475000X-0.250000X0.475000X-0.250000X0.475000X0.250000X0*%
%TD*%
%TA.AperFunction,SMDPad,CuDef*%
%ADD30RoundRect,0.225000X0.225000X0.250000X-0.225000X0.250000X-0.225000X-0.250000X0.225000X-0.250000X0*%
%TD*%
%TA.AperFunction,SMDPad,CuDef*%
%ADD31RoundRect,0.218750X-0.218750X-0.381250X0.218750X-0.381250X0.218750X0.381250X-0.218750X0.381250X0*%
%TD*%
%TA.AperFunction,ViaPad*%
%ADD32C,0.600000*%
%TD*%
%TA.AperFunction,Conductor*%
%ADD33C,0.400000*%
%TD*%
%TA.AperFunction,Conductor*%
%ADD34C,0.200000*%
%TD*%
%TA.AperFunction,Conductor*%
%ADD35C,0.500000*%
%TD*%
G04 APERTURE END LIST*
D10*
D11*
X90298207Y-114819819D02*
X89964874Y-114343628D01*
X89726779Y-114819819D02*
X89726779Y-113819819D01*
X89726779Y-113819819D02*
X90107731Y-113819819D01*
X90107731Y-113819819D02*
X90202969Y-113867438D01*
X90202969Y-113867438D02*
X90250588Y-113915057D01*
X90250588Y-113915057D02*
X90298207Y-114010295D01*
X90298207Y-114010295D02*
X90298207Y-114153152D01*
X90298207Y-114153152D02*
X90250588Y-114248390D01*
X90250588Y-114248390D02*
X90202969Y-114296009D01*
X90202969Y-114296009D02*
X90107731Y-114343628D01*
X90107731Y-114343628D02*
X89726779Y-114343628D01*
X90679160Y-114534104D02*
X91155350Y-114534104D01*
X90583922Y-114819819D02*
X90917255Y-113819819D01*
X90917255Y-113819819D02*
X91250588Y-114819819D01*
X91583922Y-114819819D02*
X91583922Y-113819819D01*
X91583922Y-113819819D02*
X91822017Y-113819819D01*
X91822017Y-113819819D02*
X91964874Y-113867438D01*
X91964874Y-113867438D02*
X92060112Y-113962676D01*
X92060112Y-113962676D02*
X92107731Y-114057914D01*
X92107731Y-114057914D02*
X92155350Y-114248390D01*
X92155350Y-114248390D02*
X92155350Y-114391247D01*
X92155350Y-114391247D02*
X92107731Y-114581723D01*
X92107731Y-114581723D02*
X92060112Y-114676961D01*
X92060112Y-114676961D02*
X91964874Y-114772200D01*
X91964874Y-114772200D02*
X91822017Y-114819819D01*
X91822017Y-114819819D02*
X91583922Y-114819819D01*
X92583922Y-114819819D02*
X92583922Y-113819819D01*
X93250588Y-113819819D02*
X93441064Y-113819819D01*
X93441064Y-113819819D02*
X93536302Y-113867438D01*
X93536302Y-113867438D02*
X93631540Y-113962676D01*
X93631540Y-113962676D02*
X93679159Y-114153152D01*
X93679159Y-114153152D02*
X93679159Y-114486485D01*
X93679159Y-114486485D02*
X93631540Y-114676961D01*
X93631540Y-114676961D02*
X93536302Y-114772200D01*
X93536302Y-114772200D02*
X93441064Y-114819819D01*
X93441064Y-114819819D02*
X93250588Y-114819819D01*
X93250588Y-114819819D02*
X93155350Y-114772200D01*
X93155350Y-114772200D02*
X93060112Y-114676961D01*
X93060112Y-114676961D02*
X93012493Y-114486485D01*
X93012493Y-114486485D02*
X93012493Y-114153152D01*
X93012493Y-114153152D02*
X93060112Y-113962676D01*
X93060112Y-113962676D02*
X93155350Y-113867438D01*
X93155350Y-113867438D02*
X93250588Y-113819819D01*
D12*
%TO.P,U1,1,IN_1*%
%TO.N,/+4V*%
X108570000Y-95097556D03*
%TO.P,U1,2,GND_2*%
%TO.N,GND*%
X107620000Y-95097556D03*
%TO.P,U1,3,EN_3*%
%TO.N,/+4V*%
X106670000Y-95097556D03*
%TO.P,U1,4,NC_4*%
%TO.N,unconnected-(U1-NC-Pad4)*%
X106670000Y-97372556D03*
%TO.P,U1,5,OUT_5*%
%TO.N,/+3V3*%
X108570000Y-97372556D03*
%TD*%
D13*
%TO.P,R5,1,1_1*%
%TO.N,/ESC_M4*%
X104860000Y-109830000D03*
%TO.P,R5,2,2_2*%
%TO.N,GND*%
X104860000Y-108810000D03*
%TD*%
D14*
%TO.P,C7,1,1_1*%
%TO.N,/+3V3*%
X96240000Y-107640000D03*
%TO.P,C7,2,2_2*%
%TO.N,GND*%
X95280000Y-107640000D03*
%TD*%
%TO.P,C3,1,1_1*%
%TO.N,/+3V3*%
X108570000Y-100097556D03*
%TO.P,C3,2,2_2*%
%TO.N,GND*%
X107610000Y-100097556D03*
%TD*%
D15*
%TO.P,TP2,1,1_1*%
%TO.N,/VBAT*%
X93340000Y-90320000D03*
%TD*%
D16*
%TO.P,J2,1,M4_1*%
%TO.N,/ESC_M4*%
X103530000Y-90300000D03*
%TO.P,J2,2,M3_2*%
%TO.N,/ESC_M3*%
X102530000Y-90300000D03*
%TO.P,J2,3,M2_3*%
%TO.N,/ESC_M2*%
X101530000Y-90300000D03*
%TO.P,J2,4,M1_4*%
%TO.N,/ESC_M1*%
X100530000Y-90300000D03*
%TO.P,J2,5,TELEMETRY_5*%
%TO.N,/ESC_TLM*%
X99530000Y-90300000D03*
%TO.P,J2,6,CURRENT_6*%
%TO.N,unconnected-(J2-CURRENT-Pad6)*%
X98530000Y-90300000D03*
%TO.P,J2,7,GND_7*%
%TO.N,GND*%
X97530000Y-90300000D03*
%TO.P,J2,8,VBAT_8*%
%TO.N,/VBAT*%
X96530000Y-90300000D03*
D17*
%TO.P,J2,MP*%
%TO.N,N/C*%
X104830000Y-86425000D03*
X95230000Y-86425000D03*
%TD*%
D18*
%TO.P,R8,1,1_1*%
%TO.N,/+3V3*%
X99230000Y-107800000D03*
%TO.P,R8,2,2_2*%
%TO.N,/IMU_CS*%
X100250000Y-107800000D03*
%TD*%
D15*
%TO.P,TP4,1,1_1*%
%TO.N,/+3V3*%
X94660000Y-102290000D03*
%TD*%
D19*
%TO.P,C1,1,1_1*%
%TO.N,/VBAT*%
X92000000Y-94710000D03*
%TO.P,C1,2,2_2*%
%TO.N,GND*%
X92000000Y-97660000D03*
%TD*%
D20*
%TO.P,J1,1,VTref_1*%
%TO.N,/+3V3*%
X109428865Y-116200000D03*
%TO.P,J1,2,SWDIO_2*%
%TO.N,/SWDIO*%
X109428865Y-117470000D03*
%TO.P,J1,3,GND_3*%
%TO.N,GND*%
X109428865Y-118740000D03*
%TO.P,J1,4,SWDCLK_4*%
%TO.N,/SWDCLK*%
X109428865Y-120010000D03*
%TO.P,J1,5,GND_5*%
%TO.N,GND*%
X109428865Y-121280000D03*
%TO.P,J1,6,SWO_6*%
%TO.N,/SWO*%
X110698865Y-121280000D03*
%TO.P,J1,7*%
%TO.N,N/C*%
X110698865Y-120010000D03*
%TO.P,J1,8*%
X110698865Y-118740000D03*
%TO.P,J1,9,GND_9*%
%TO.N,GND*%
X110698865Y-117470000D03*
%TO.P,J1,10,nRESET_10*%
%TO.N,/nRESET*%
X110698865Y-116200000D03*
%TD*%
D15*
%TO.P,TP1,1,1_1*%
%TO.N,GND*%
X87500000Y-102290000D03*
%TD*%
D21*
%TO.P,U2,1,BOOT_1*%
%TO.N,Net-(U2-BOOT)*%
X97000000Y-96800000D03*
%TO.P,U2,2,GND_2*%
%TO.N,GND*%
X97000000Y-95850000D03*
%TO.P,U2,3,FB_3*%
%TO.N,Net-(U2-FB)*%
X97000000Y-94900000D03*
%TO.P,U2,4,EN_4*%
%TO.N,/VBAT*%
X94725000Y-94900000D03*
%TO.P,U2,5,VIN_5*%
X94725000Y-95850000D03*
%TO.P,U2,6,SW_6*%
%TO.N,Net-(U2-SW)*%
X94725000Y-96800000D03*
%TD*%
D22*
%TO.P,R1,1,1_1*%
%TO.N,/+4V*%
X101990000Y-93670000D03*
%TO.P,R1,2,2_2*%
%TO.N,Net-(U2-FB)*%
X100970000Y-93670000D03*
%TD*%
D14*
%TO.P,C9,1,1_1*%
%TO.N,/+3V3*%
X97020000Y-104630000D03*
%TO.P,C9,2,2_2*%
%TO.N,GND*%
X96060000Y-104630000D03*
%TD*%
D22*
%TO.P,R2,1,1_1*%
%TO.N,Net-(U2-FB)*%
X99120000Y-92450000D03*
%TO.P,R2,2,2_2*%
%TO.N,GND*%
X98100000Y-92450000D03*
%TD*%
D23*
%TO.P,D1,1,A_1*%
%TO.N,Net-(D1-A)*%
X93200000Y-119390000D03*
%TO.P,D1,2,K_2*%
%TO.N,Net-(D1-K)*%
X92230000Y-119390000D03*
%TD*%
D14*
%TO.P,C8,1,1_1*%
%TO.N,/+3V3*%
X96240000Y-108690000D03*
%TO.P,C8,2,2_2*%
%TO.N,GND*%
X95280000Y-108690000D03*
%TD*%
D24*
%TO.P,TVS1,1,K_1*%
%TO.N,/VBAT*%
X87310000Y-94640000D03*
%TO.P,TVS1,2,A_2*%
%TO.N,GND*%
X87310000Y-98640000D03*
%TD*%
D14*
%TO.P,C4,1,1_1*%
%TO.N,Net-(U2-SW)*%
X99840000Y-97150000D03*
%TO.P,C4,2,2_2*%
%TO.N,Net-(U2-BOOT)*%
X98880000Y-97150000D03*
%TD*%
D22*
%TO.P,R3,1,1_1*%
%TO.N,Net-(D1-K)*%
X90890000Y-119390000D03*
%TO.P,R3,2,2_2*%
%TO.N,GND*%
X89870000Y-119390000D03*
%TD*%
D14*
%TO.P,C10,1,1_1*%
%TO.N,/+3V3*%
X97020000Y-106130000D03*
%TO.P,C10,2,2_2*%
%TO.N,GND*%
X96060000Y-106130000D03*
%TD*%
D25*
%TO.P,U4,1,AP_SDO_1*%
%TO.N,/SPI_MISO*%
X100750000Y-104125000D03*
%TO.P,U4,2,RESV_2_2*%
%TO.N,GND*%
X100250000Y-104125000D03*
%TO.P,U4,3,RESV_3_3*%
X99750000Y-104125000D03*
%TO.P,U4,4,INT1_4*%
%TO.N,/IMU_INT1*%
X99250000Y-104125000D03*
D26*
%TO.P,U4,5,VDDIO_5*%
%TO.N,/+3V3*%
X98500000Y-104875000D03*
%TO.P,U4,6,GND_6*%
%TO.N,GND*%
X98500000Y-105375000D03*
%TO.P,U4,7,RESV_GND_7*%
X98500000Y-105875000D03*
D25*
%TO.P,U4,8,VDD_8*%
%TO.N,/+3V3*%
X99250000Y-106625000D03*
%TO.P,U4,9,INT2_9*%
%TO.N,unconnected-(U4-INT2-Pad9)*%
X99750000Y-106625000D03*
%TO.P,U4,10,RESV_10_10*%
%TO.N,unconnected-(U4-RESV_10-Pad10)*%
X100250000Y-106625000D03*
%TO.P,U4,11,RESV_11_11*%
%TO.N,unconnected-(U4-RESV_11-Pad11)*%
X100750000Y-106625000D03*
D26*
%TO.P,U4,12,AP_CS_12*%
%TO.N,/IMU_CS*%
X101500000Y-105875000D03*
%TO.P,U4,13,AP_SCLK_13*%
%TO.N,/SPI_SCK*%
X101500000Y-105375000D03*
%TO.P,U4,14,AP_SDI_14*%
%TO.N,/SPI_MOSI*%
X101500000Y-104875000D03*
%TD*%
D23*
%TO.P,D2,1,A_1*%
%TO.N,Net-(D2-A)*%
X93200000Y-116880000D03*
%TO.P,D2,2,K_2*%
%TO.N,Net-(D2-K)*%
X92230000Y-116880000D03*
%TD*%
D13*
%TO.P,R7,1,1_1*%
%TO.N,/ESC_M2*%
X101200000Y-109830000D03*
%TO.P,R7,2,2_2*%
%TO.N,GND*%
X101200000Y-108810000D03*
%TD*%
%TO.P,R6,1,1_1*%
%TO.N,/ESC_M3*%
X103030000Y-109830000D03*
%TO.P,R6,2,2_2*%
%TO.N,GND*%
X103030000Y-108810000D03*
%TD*%
D14*
%TO.P,C2,1,1_1*%
%TO.N,/+4V*%
X108570000Y-93097556D03*
%TO.P,C2,2,2_2*%
%TO.N,GND*%
X107610000Y-93097556D03*
%TD*%
D22*
%TO.P,R4,1,1_1*%
%TO.N,Net-(D2-K)*%
X90890000Y-116880000D03*
%TO.P,R4,2,2_2*%
%TO.N,GND*%
X89870000Y-116880000D03*
%TD*%
D15*
%TO.P,TP3,1,1_1*%
%TO.N,/+4V*%
X102050000Y-97870000D03*
%TD*%
D13*
%TO.P,R9,1,1_1*%
%TO.N,/ESC_M1*%
X99370000Y-109830000D03*
%TO.P,R9,2,2_2*%
%TO.N,GND*%
X99370000Y-108810000D03*
%TD*%
D27*
%TO.P,U3,1,GND_1*%
%TO.N,GND*%
X104050000Y-121850000D03*
%TO.P,U3,2,SWDCLK_2*%
%TO.N,/SWDCLK*%
X104050000Y-120875000D03*
%TO.P,U3,3,P1.08_SWO_3*%
%TO.N,/SWO*%
X103100000Y-120500000D03*
%TO.P,U3,4,SWDIO_4*%
%TO.N,/SWDIO*%
X104050000Y-120125000D03*
%TO.P,U3,5,P0.27_AIN6_VBAT_5*%
%TO.N,unconnected-(U3-P0.27_AIN6_VBAT-Pad5)*%
X103100000Y-119750000D03*
%TO.P,U3,6,nRESET_6*%
%TO.N,/nRESET*%
X104050000Y-119375000D03*
%TO.P,U3,7*%
%TO.N,N/C*%
X103100000Y-119000000D03*
%TO.P,U3,8*%
X104050000Y-118625000D03*
%TO.P,U3,9*%
X103100000Y-118250000D03*
%TO.P,U3,10*%
X104050000Y-117875000D03*
%TO.P,U3,11*%
X103100000Y-117500000D03*
%TO.P,U3,12*%
X104050000Y-117125000D03*
%TO.P,U3,13*%
X103100000Y-116750000D03*
%TO.P,U3,14,P0.19_IMU_INT1_14*%
%TO.N,/IMU_INT1*%
X104050000Y-116375000D03*
%TO.P,U3,15*%
%TO.N,N/C*%
X103100000Y-116000000D03*
%TO.P,U3,16,P0.18_SPI_MISO_16*%
%TO.N,/SPI_MISO*%
X104050000Y-115625000D03*
%TO.P,U3,17*%
%TO.N,N/C*%
X103100000Y-115250000D03*
%TO.P,U3,18,P0.10_SPI_MOSI_18*%
%TO.N,/SPI_MOSI*%
X104050000Y-114875000D03*
%TO.P,U3,19*%
%TO.N,N/C*%
X103100000Y-114500000D03*
%TO.P,U3,20,P0.07_SPI_SCK_20*%
%TO.N,/SPI_SCK*%
X104050000Y-114125000D03*
%TO.P,U3,21*%
%TO.N,N/C*%
X103100000Y-113750000D03*
%TO.P,U3,22,P1.05_IMU_CS_22*%
%TO.N,/IMU_CS*%
X104050000Y-113375000D03*
%TO.P,U3,23*%
%TO.N,N/C*%
X103100000Y-113000000D03*
D28*
%TO.P,U3,24,GND_24*%
%TO.N,GND*%
X104125000Y-112050000D03*
%TO.P,U3,25,P0.22_ESC_M4_25*%
%TO.N,/ESC_M4*%
X103375000Y-112050000D03*
%TO.P,U3,26,P0.17_ESC_M3_26*%
%TO.N,/ESC_M3*%
X102625000Y-112050000D03*
%TO.P,U3,27*%
%TO.N,N/C*%
X102250000Y-113000000D03*
%TO.P,U3,28,P0.16_ESC_M2_28*%
%TO.N,/ESC_M2*%
X101875000Y-112050000D03*
%TO.P,U3,29,P0.08_ESC_TLM_29*%
%TO.N,/ESC_TLM*%
X101500000Y-113000000D03*
%TO.P,U3,30,P0.03_ESC_M1_30*%
%TO.N,/ESC_M1*%
X101125000Y-112050000D03*
%TO.P,U3,31*%
%TO.N,N/C*%
X100750000Y-113000000D03*
%TO.P,U3,32*%
X100375000Y-112050000D03*
%TO.P,U3,33*%
X100000000Y-113000000D03*
%TO.P,U3,34*%
X99625000Y-112050000D03*
%TO.P,U3,35*%
X99250000Y-113000000D03*
%TO.P,U3,36*%
X98875000Y-112050000D03*
%TO.P,U3,37,P0.04_AIN0_CURR_37*%
%TO.N,unconnected-(U3-P0.04_AIN0_CURR-Pad37)*%
X98500000Y-113000000D03*
%TO.P,U3,38,VDD_38*%
%TO.N,/+3V3*%
X98125000Y-112050000D03*
%TO.P,U3,39*%
%TO.N,N/C*%
X97750000Y-113000000D03*
%TO.P,U3,40*%
X97375000Y-112050000D03*
%TO.P,U3,41,VDDH_41*%
%TO.N,/+3V3*%
X96625000Y-112050000D03*
%TO.P,U3,42,GND_42*%
%TO.N,GND*%
X95875000Y-112050000D03*
D27*
%TO.P,U3,43*%
%TO.N,N/C*%
X96900000Y-113000000D03*
%TO.P,U3,44,VBUS_44*%
%TO.N,unconnected-(U3-VBUS-Pad44)*%
X95950000Y-113375000D03*
%TO.P,U3,45*%
%TO.N,N/C*%
X96900000Y-113750000D03*
%TO.P,U3,46,USB_DP_46*%
%TO.N,unconnected-(U3-USB_DP-Pad46)*%
X95950000Y-114125000D03*
%TO.P,U3,47*%
%TO.N,N/C*%
X96900000Y-114500000D03*
%TO.P,U3,48,USB_DM_48*%
%TO.N,unconnected-(U3-USB_DM-Pad48)*%
X95950000Y-114875000D03*
%TO.P,U3,49*%
%TO.N,N/C*%
X96900000Y-115250000D03*
%TO.P,U3,50*%
X95950000Y-115625000D03*
%TO.P,U3,51*%
X96900000Y-116000000D03*
%TO.P,U3,52*%
X95950000Y-116375000D03*
%TO.P,U3,53*%
X96900000Y-116750000D03*
%TO.P,U3,54*%
X95950000Y-117125000D03*
%TO.P,U3,55*%
X96900000Y-117500000D03*
%TO.P,U3,56,P0.31_LED_RADIO_56*%
%TO.N,Net-(D2-A)*%
X95950000Y-117875000D03*
%TO.P,U3,57*%
%TO.N,N/C*%
X96900000Y-118250000D03*
%TO.P,U3,58*%
X95950000Y-118625000D03*
%TO.P,U3,59*%
X96900000Y-119000000D03*
%TO.P,U3,60,P0.28_LED_STAT_60*%
%TO.N,Net-(D1-A)*%
X95950000Y-119375000D03*
%TO.P,U3,61,GND_61*%
%TO.N,GND*%
X95950000Y-121850000D03*
D28*
%TO.P,U3,62*%
%TO.N,N/C*%
X102375000Y-119900000D03*
%TO.P,U3,63*%
X101725000Y-119900000D03*
%TO.P,U3,64*%
X100975000Y-119900000D03*
%TO.P,U3,65*%
X100225000Y-119900000D03*
%TD*%
D29*
%TO.P,C5,1,1_1*%
%TO.N,/+4V*%
X104480000Y-94410000D03*
%TO.P,C5,2,2_2*%
%TO.N,GND*%
X104480000Y-96310000D03*
%TD*%
D30*
%TO.P,C6,1,1_1*%
%TO.N,/+3V3*%
X96130000Y-110000000D03*
%TO.P,C6,2,2_2*%
%TO.N,GND*%
X94580000Y-110000000D03*
%TD*%
D31*
%TO.P,L1,1,1_1*%
%TO.N,Net-(U2-SW)*%
X99900000Y-95460000D03*
%TO.P,L1,2,2_2*%
%TO.N,/+4V*%
X102025000Y-95460000D03*
%TD*%
D32*
%TO.N,GND*%
X105310000Y-121250000D03*
X105250000Y-112030000D03*
X99110000Y-105390000D03*
X98330000Y-95850000D03*
X93340000Y-121450000D03*
X111950000Y-117480000D03*
X105070000Y-97420000D03*
X107570000Y-99097556D03*
X98100000Y-93410000D03*
X94690000Y-112070000D03*
X90050000Y-97430000D03*
%TO.N,/+3V3*%
X107487556Y-101180000D03*
X97320000Y-110480000D03*
X108400000Y-116630000D03*
%TO.N,/ESC_M4*%
X103530000Y-92260000D03*
X104180000Y-109830000D03*
%TO.N,/ESC_M3*%
X102370000Y-109830000D03*
X102520000Y-92260000D03*
%TO.N,/ESC_M2*%
X101530000Y-92260000D03*
X100400000Y-109830000D03*
%TO.N,/ESC_M1*%
X98560000Y-109830000D03*
X100530000Y-92260000D03*
%TO.N,/ESC_TLM*%
X99530000Y-88170000D03*
X101490000Y-113900000D03*
%TO.N,/SWO*%
X103110000Y-121320000D03*
X111840000Y-121290000D03*
%TO.N,Net-(U2-FB)*%
X98370000Y-94900000D03*
X99129190Y-93560000D03*
%TD*%
%TO.N,/+4V*%
D33*
X108530000Y-92327556D02*
X108530000Y-93057556D01*
X106680000Y-94410000D02*
X106690000Y-94420000D01*
X108510000Y-92347556D02*
X108530000Y-92327556D01*
X106690000Y-92940000D02*
X107282444Y-92347556D01*
X103740000Y-93670000D02*
X104480000Y-94410000D01*
X106690000Y-94420000D02*
X106690000Y-92940000D01*
X101990000Y-93670000D02*
X103740000Y-93670000D01*
X106690000Y-95077556D02*
X106690000Y-94420000D01*
X108570000Y-93097556D02*
X108570000Y-95097556D01*
X102025000Y-95460000D02*
X102025000Y-93705000D01*
X107282444Y-92347556D02*
X108510000Y-92347556D01*
D34*
X102050000Y-97870000D02*
X102050000Y-95485000D01*
D33*
X104480000Y-94410000D02*
X106680000Y-94410000D01*
%TO.N,GND*%
D34*
X94570000Y-107780000D02*
X94580000Y-107790000D01*
X104860000Y-108810000D02*
X105970000Y-109920000D01*
X107620000Y-99047556D02*
X107570000Y-99097556D01*
X99750000Y-104750000D02*
X99110000Y-105390000D01*
X99095000Y-105375000D02*
X99110000Y-105390000D01*
D35*
X98100000Y-91850000D02*
X97530000Y-91280000D01*
D33*
X105070000Y-96900000D02*
X105070000Y-97420000D01*
D34*
X105430000Y-121280000D02*
X109428865Y-121280000D01*
X95550000Y-121450000D02*
X95950000Y-121850000D01*
X93340000Y-121450000D02*
X95550000Y-121450000D01*
X98500000Y-105375000D02*
X99095000Y-105375000D01*
X105400000Y-121250000D02*
X105430000Y-121280000D01*
X94710000Y-112050000D02*
X94690000Y-112070000D01*
X95875000Y-112050000D02*
X94710000Y-112050000D01*
X100250000Y-104250000D02*
X99750000Y-104750000D01*
D35*
X98100000Y-91850000D02*
X98100000Y-92450000D01*
D34*
X94740000Y-108690000D02*
X94580000Y-108850000D01*
X107610000Y-100097556D02*
X107610000Y-99137556D01*
X95280000Y-107640000D02*
X94710000Y-107640000D01*
X105970000Y-109920000D02*
X105970000Y-111310000D01*
X94580000Y-107790000D02*
X94580000Y-108850000D01*
X96060000Y-106130000D02*
X96060000Y-106860000D01*
D33*
X106747556Y-99097556D02*
X105070000Y-97420000D01*
D34*
X94710000Y-107640000D02*
X94570000Y-107780000D01*
D35*
X90050000Y-97430000D02*
X91940000Y-97430000D01*
X89570000Y-97430000D02*
X88360000Y-98640000D01*
D34*
X96060000Y-106130000D02*
X96060000Y-104630000D01*
X91930000Y-121450000D02*
X89870000Y-119390000D01*
X98500000Y-105875000D02*
X98625000Y-105875000D01*
X93340000Y-121450000D02*
X91930000Y-121450000D01*
X99750000Y-104125000D02*
X99750000Y-104750000D01*
X89870000Y-116880000D02*
X89870000Y-119390000D01*
X95280000Y-108690000D02*
X94740000Y-108690000D01*
X110698865Y-117470000D02*
X109428865Y-118740000D01*
D35*
X90050000Y-97430000D02*
X89570000Y-97430000D01*
X88360000Y-98640000D02*
X87500000Y-98640000D01*
D34*
X94580000Y-111960000D02*
X94690000Y-112070000D01*
D33*
X97000000Y-95850000D02*
X98330000Y-95850000D01*
D34*
X105230000Y-112050000D02*
X105250000Y-112030000D01*
X104710000Y-121850000D02*
X105310000Y-121250000D01*
X111940000Y-117470000D02*
X111950000Y-117480000D01*
D35*
X98100000Y-92450000D02*
X98100000Y-93410000D01*
D34*
X104050000Y-121850000D02*
X104710000Y-121850000D01*
X87500000Y-98640000D02*
X87500000Y-102500000D01*
D33*
X107620000Y-95097556D02*
X107620000Y-93107556D01*
D34*
X105310000Y-121250000D02*
X105400000Y-121250000D01*
X104125000Y-112050000D02*
X105230000Y-112050000D01*
X105250000Y-112030000D02*
X105970000Y-111310000D01*
X94580000Y-110000000D02*
X94580000Y-108850000D01*
X96060000Y-106860000D02*
X95280000Y-107640000D01*
D33*
X107570000Y-99097556D02*
X106747556Y-99097556D01*
D34*
X110698865Y-117470000D02*
X111940000Y-117470000D01*
X107610000Y-99137556D02*
X107570000Y-99097556D01*
X104860000Y-108810000D02*
X99370000Y-108810000D01*
D35*
X97530000Y-91280000D02*
X97530000Y-90010000D01*
D33*
X104480000Y-96310000D02*
X105070000Y-96900000D01*
X107620000Y-95097556D02*
X107620000Y-99047556D01*
D34*
X100250000Y-104125000D02*
X100250000Y-104250000D01*
X98625000Y-105875000D02*
X99110000Y-105390000D01*
X94580000Y-110000000D02*
X94580000Y-111960000D01*
%TO.N,/+3V3*%
X97810000Y-106130000D02*
X97885000Y-106130000D01*
X98305000Y-106625000D02*
X97810000Y-106130000D01*
X96240000Y-107640000D02*
X96240000Y-108690000D01*
X97895000Y-104630000D02*
X97950000Y-104685000D01*
X108830000Y-116200000D02*
X108400000Y-116630000D01*
X96625000Y-111175000D02*
X97320000Y-110480000D01*
X97885000Y-106130000D02*
X97950000Y-106065000D01*
X109428865Y-116200000D02*
X108830000Y-116200000D01*
X94680000Y-102290000D02*
X97020000Y-104630000D01*
X97320000Y-110480000D02*
X98125000Y-111285000D01*
X99250000Y-106625000D02*
X98305000Y-106625000D01*
X98125000Y-111285000D02*
X98125000Y-112050000D01*
X96130000Y-110000000D02*
X96840000Y-110000000D01*
X99230000Y-107800000D02*
X99230000Y-106645000D01*
X108570000Y-100097556D02*
X107487556Y-101180000D01*
X96625000Y-112050000D02*
X96625000Y-111175000D01*
X107487556Y-101180000D02*
X101139315Y-101180000D01*
X99230000Y-106645000D02*
X99250000Y-106625000D01*
X97955000Y-104875000D02*
X97950000Y-104880000D01*
X108570000Y-97372556D02*
X108570000Y-100097556D01*
X99070000Y-107800000D02*
X96400000Y-107800000D01*
X96240000Y-108690000D02*
X96240000Y-109890000D01*
X97950000Y-104685000D02*
X97950000Y-104880000D01*
X98500000Y-104875000D02*
X97955000Y-104875000D01*
X97020000Y-106130000D02*
X97020000Y-104630000D01*
X97020000Y-106130000D02*
X97810000Y-106130000D01*
X96840000Y-110000000D02*
X97320000Y-110480000D01*
X97950000Y-104369315D02*
X97950000Y-104685000D01*
X97020000Y-104630000D02*
X97895000Y-104630000D01*
X101139315Y-101180000D02*
X97950000Y-104369315D01*
X97950000Y-104880000D02*
X97950000Y-106065000D01*
%TO.N,/ESC_M4*%
X103530000Y-92260000D02*
X103530000Y-90300000D01*
X104860000Y-109830000D02*
X104180000Y-109830000D01*
X103375000Y-112050000D02*
X103375000Y-111315000D01*
X103375000Y-111315000D02*
X104860000Y-109830000D01*
X103530000Y-90990000D02*
X103530000Y-90010000D01*
%TO.N,/VBAT*%
D35*
X92000000Y-90825000D02*
X92505000Y-90320000D01*
X92505000Y-90320000D02*
X93340000Y-90320000D01*
X92000000Y-94710000D02*
X92000000Y-90825000D01*
X88220000Y-94720000D02*
X91280000Y-94720000D01*
X93160000Y-90340000D02*
X96200000Y-90340000D01*
X94725000Y-95740000D02*
X94725000Y-94900000D01*
X92450000Y-94450000D02*
X92710000Y-94710000D01*
X92710000Y-94710000D02*
X94725000Y-94710000D01*
%TO.N,/ESC_M3*%
D34*
X102625000Y-112050000D02*
X102625000Y-110235000D01*
X103030000Y-109830000D02*
X102370000Y-109830000D01*
X102625000Y-110235000D02*
X103030000Y-109830000D01*
X102480000Y-90980000D02*
X102480000Y-89960000D01*
X102530000Y-90300000D02*
X102530000Y-92340000D01*
%TO.N,/ESC_M2*%
X101875000Y-110505000D02*
X101200000Y-109830000D01*
X101200000Y-109830000D02*
X100400000Y-109830000D01*
X101875000Y-112050000D02*
X101875000Y-110505000D01*
X101530000Y-92260000D02*
X101530000Y-90300000D01*
%TO.N,/ESC_M1*%
X99370000Y-109830000D02*
X98560000Y-109830000D01*
X100530000Y-92260000D02*
X100530000Y-90300000D01*
X101125000Y-111575000D02*
X99380000Y-109830000D01*
X101125000Y-112050000D02*
X101125000Y-111575000D01*
%TO.N,/ESC_TLM*%
X101500000Y-113890000D02*
X101490000Y-113900000D01*
X99530000Y-88170000D02*
X99530000Y-90300000D01*
X101500000Y-113000000D02*
X101500000Y-113890000D01*
%TO.N,/IMU_CS*%
X106370000Y-111758529D02*
X104753529Y-113375000D01*
X100090000Y-107800000D02*
X100565000Y-107800000D01*
X106370000Y-109031076D02*
X106370000Y-111758529D01*
X104753529Y-113375000D02*
X104050000Y-113375000D01*
X103213924Y-105875000D02*
X106370000Y-109031076D01*
X101500000Y-106865000D02*
X101500000Y-105875000D01*
X101500000Y-105875000D02*
X103213924Y-105875000D01*
X100565000Y-107800000D02*
X101500000Y-106865000D01*
%TO.N,/SWDIO*%
X104050000Y-120125000D02*
X106773865Y-120125000D01*
X106773865Y-120125000D02*
X109428865Y-117470000D01*
%TO.N,/SWDCLK*%
X105005000Y-120525000D02*
X108913865Y-120525000D01*
X108913865Y-120525000D02*
X109428865Y-120010000D01*
X104050000Y-120875000D02*
X104655000Y-120875000D01*
X104655000Y-120875000D02*
X105005000Y-120525000D01*
%TO.N,/SWO*%
X103100000Y-121310000D02*
X103110000Y-121320000D01*
X103100000Y-120500000D02*
X103100000Y-121310000D01*
X111840000Y-121290000D02*
X110708865Y-121290000D01*
%TO.N,/nRESET*%
X109713730Y-114084700D02*
X110414000Y-114084700D01*
X110909165Y-115280135D02*
X110698865Y-115490435D01*
X110698865Y-115490435D02*
X110698865Y-116200000D01*
X110414000Y-114084700D02*
X110909165Y-114579865D01*
X104050000Y-119375000D02*
X104423430Y-119375000D01*
X110909165Y-114579865D02*
X110909165Y-115280135D01*
X104423430Y-119375000D02*
X109713730Y-114084700D01*
%TO.N,Net-(U2-BOOT)*%
X97990000Y-96790000D02*
X97980000Y-96800000D01*
D33*
X97980000Y-96800000D02*
X97000000Y-96800000D01*
X98350000Y-97150000D02*
X97990000Y-96790000D01*
X98880000Y-97150000D02*
X98350000Y-97150000D01*
%TO.N,Net-(U2-FB)*%
X98370000Y-94900000D02*
X97000000Y-94900000D01*
X99129190Y-93560000D02*
X100860000Y-93560000D01*
X99129190Y-93560000D02*
X99129190Y-92459190D01*
%TO.N,Net-(U2-SW)*%
X96067388Y-94150102D02*
X96499898Y-94150102D01*
X98673557Y-94150000D02*
X99900000Y-95376443D01*
X99840000Y-97150000D02*
X99840000Y-95520000D01*
X95790000Y-96397499D02*
X95790000Y-94427490D01*
D34*
X96499898Y-94150102D02*
X96500000Y-94150000D01*
D33*
X96500000Y-94150000D02*
X98673557Y-94150000D01*
D34*
X94725000Y-96800000D02*
X95387499Y-96800000D01*
D33*
X95387499Y-96800000D02*
X95790000Y-96397499D01*
X95790000Y-94427490D02*
X96067388Y-94150102D01*
%TO.N,Net-(D1-A)*%
D34*
X93200000Y-119390000D02*
X95935000Y-119390000D01*
%TO.N,Net-(D1-K)*%
X90890000Y-119390000D02*
X92230000Y-119390000D01*
%TO.N,/SPI_MISO*%
X104525000Y-115625000D02*
X104050000Y-115625000D01*
X107570000Y-108534020D02*
X107570000Y-112580000D01*
X107570000Y-112580000D02*
X104525000Y-115625000D01*
X100750000Y-103590000D02*
X102625980Y-103590000D01*
X100750000Y-104125000D02*
X100750000Y-103590000D01*
X102625980Y-103590000D02*
X107570000Y-108534020D01*
%TO.N,/IMU_INT1*%
X107970000Y-108368334D02*
X102791666Y-103190000D01*
X104050000Y-116375000D02*
X104525000Y-116375000D01*
X102791666Y-103190000D02*
X99695000Y-103190000D01*
X99250000Y-103635000D02*
X99250000Y-104125000D01*
X104525000Y-116375000D02*
X107970000Y-112930000D01*
X107970000Y-112930000D02*
X107970000Y-108368334D01*
X99695000Y-103190000D02*
X99250000Y-103635000D01*
%TO.N,/SPI_SCK*%
X106770000Y-108865391D02*
X106770000Y-111924215D01*
X103279609Y-105375000D02*
X106770000Y-108865391D01*
X101500000Y-105375000D02*
X103279609Y-105375000D01*
X104569215Y-114125000D02*
X104050000Y-114125000D01*
X106770000Y-111924215D02*
X104569215Y-114125000D01*
%TO.N,/SPI_MOSI*%
X107170000Y-108699706D02*
X107170000Y-112089901D01*
X107170000Y-112089901D02*
X104384901Y-114875000D01*
X104384901Y-114875000D02*
X104050000Y-114875000D01*
X103345294Y-104875000D02*
X107170000Y-108699706D01*
X101500000Y-104875000D02*
X103345294Y-104875000D01*
%TO.N,Net-(D2-A)*%
X93200000Y-116880000D02*
X94195000Y-117875000D01*
X94195000Y-117875000D02*
X95950000Y-117875000D01*
%TO.N,Net-(D2-K)*%
X90890000Y-116880000D02*
X92230000Y-116880000D01*
%TD*%
M02*
