M48
; DRILL file KiCad 10.0.5 date 2026-09-01T22:57:52
; FORMAT={-:-/ absolute / metric / decimal}
; #@! TF.CreationDate,2026-09-01T22:57:52+02:00
; #@! TF.GenerationSoftware,Kicad,Pcbnew,10.0.5
; #@! TF.FileFunction,MixedPlating,1,4
FMAT,2
METRIC
; #@! TA.AperFunction,Plated,PTH,ViaDrill
T1C0.300
; #@! TA.AperFunction,NonPlated,NPTH,ComponentDrill
T2C0.991
; #@! TA.AperFunction,NonPlated,NPTH,ComponentDrill
T3C3.000
%
G90
G05
T1
X90.05Y-97.43
X93.34Y-121.45
X94.69Y-112.07
X97.32Y-110.48
X98.1Y-93.41
X98.33Y-95.85
X98.37Y-94.9
X98.56Y-109.83
X99.11Y-105.39
X99.129Y-93.56
X99.53Y-88.17
X100.4Y-109.83
X100.53Y-92.26
X101.49Y-113.9
X101.53Y-92.26
X102.37Y-109.83
X102.52Y-92.26
X103.11Y-121.32
X103.53Y-92.26
X104.18Y-109.83
X105.07Y-97.42
X105.25Y-112.03
X105.31Y-121.25
X107.488Y-101.18
X107.57Y-99.098
X108.4Y-116.63
X111.84Y-121.29
X111.95Y-117.48
T2
X109.048Y-122.55
X110.064Y-114.93
X111.08Y-122.55
T3
X90.0Y-90.0
X90.0Y-110.0
X110.0Y-90.0
X110.0Y-110.0
M30
