%TF.GenerationSoftware,KiCad,Pcbnew,10.0.5*%
%TF.CreationDate,2026-09-01T22:57:51+02:00*%
%TF.ProjectId,drone_fc,64726f6e-655f-4666-932e-6b696361645f,v2.0.0*%
%TF.SameCoordinates,Original*%
%TF.FileFunction,Copper,L3,Inr*%
%TF.FilePolarity,Positive*%
%FSLAX46Y46*%
G04 Gerber Fmt 4.6, Leading zero omitted, Abs format (unit mm)*
G04 Created by KiCad (PCBNEW 10.0.5) date 2026-09-01 22:57:51*
%MOMM*%
%LPD*%
G01*
G04 APERTURE LIST*
%TA.AperFunction,ViaPad*%
%ADD10C,0.600000*%
%TD*%
G04 APERTURE END LIST*
D10*
%TO.N,GND*%
X105310000Y-121250000D03*
X105250000Y-112030000D03*
X99110000Y-105390000D03*
X98330000Y-95850000D03*
X93340000Y-121450000D03*
X111950000Y-117480000D03*
X105070000Y-97420000D03*
X107570000Y-99097556D03*
X98100000Y-93410000D03*
X94690000Y-112070000D03*
X90050000Y-97430000D03*
%TO.N,/+3V3*%
X107487556Y-101180000D03*
X97320000Y-110480000D03*
X108400000Y-116630000D03*
%TO.N,/ESC_M4*%
X103530000Y-92260000D03*
X104180000Y-109830000D03*
%TO.N,/ESC_M3*%
X102370000Y-109830000D03*
X102520000Y-92260000D03*
%TO.N,/ESC_M2*%
X101530000Y-92260000D03*
X100400000Y-109830000D03*
%TO.N,/ESC_M1*%
X98560000Y-109830000D03*
X100530000Y-92260000D03*
%TO.N,/ESC_TLM*%
X99530000Y-88170000D03*
X101490000Y-113900000D03*
%TO.N,/SWO*%
X103110000Y-121320000D03*
X111840000Y-121290000D03*
%TO.N,Net-(U2-FB)*%
X98370000Y-94900000D03*
X99129190Y-93560000D03*
%TD*%
%TA.AperFunction,Conductor*%
%TO.N,/+3V3*%
G36*
X89238147Y-97619685D02*
G01*
X89283902Y-97672489D01*
X89285669Y-97676548D01*
X89340602Y-97809172D01*
X89340609Y-97809185D01*
X89428210Y-97940288D01*
X89428213Y-97940292D01*
X89539707Y-98051786D01*
X89539711Y-98051789D01*
X89670814Y-98139390D01*
X89670827Y-98139397D01*
X89792363Y-98189738D01*
X89816503Y-98199737D01*
X89971153Y-98230499D01*
X89971156Y-98230500D01*
X89971158Y-98230500D01*
X90128844Y-98230500D01*
X90128845Y-98230499D01*
X90283497Y-98199737D01*
X90429179Y-98139394D01*
X90560289Y-98051789D01*
X90671789Y-97940289D01*
X90759394Y-97809179D01*
X90814331Y-97676547D01*
X90858171Y-97622144D01*
X90924465Y-97600079D01*
X90928892Y-97600000D01*
X104195250Y-97600000D01*
X104262289Y-97619685D01*
X104308044Y-97672489D01*
X104309811Y-97676548D01*
X104360602Y-97799172D01*
X104360609Y-97799185D01*
X104448210Y-97930288D01*
X104448213Y-97930292D01*
X104559707Y-98041786D01*
X104559711Y-98041789D01*
X104690814Y-98129390D01*
X104690827Y-98129397D01*
X104836498Y-98189735D01*
X104836503Y-98189737D01*
X104991153Y-98220499D01*
X104991156Y-98220500D01*
X104991158Y-98220500D01*
X105148844Y-98220500D01*
X105148845Y-98220499D01*
X105303497Y-98189737D01*
X105416166Y-98143067D01*
X105449172Y-98129397D01*
X105449172Y-98129396D01*
X105449179Y-98129394D01*
X105580289Y-98041789D01*
X105691789Y-97930289D01*
X105779394Y-97799179D01*
X105830189Y-97676547D01*
X105874029Y-97622144D01*
X105940323Y-97600079D01*
X105944750Y-97600000D01*
X114375500Y-97600000D01*
X114442539Y-97619685D01*
X114488294Y-97672489D01*
X114499500Y-97724000D01*
X114499500Y-121926000D01*
X114479815Y-121993039D01*
X114427011Y-122038794D01*
X114375500Y-122050000D01*
X112511441Y-122050000D01*
X112444402Y-122030315D01*
X112398647Y-121977511D01*
X112388703Y-121908353D01*
X112417728Y-121844797D01*
X112423760Y-121838319D01*
X112461786Y-121800292D01*
X112461789Y-121800289D01*
X112549394Y-121669179D01*
X112609737Y-121523497D01*
X112640500Y-121368842D01*
X112640500Y-121211158D01*
X112640500Y-121211155D01*
X112640499Y-121211153D01*
X112632542Y-121171153D01*
X112609737Y-121056503D01*
X112609735Y-121056498D01*
X112549397Y-120910827D01*
X112549390Y-120910814D01*
X112461789Y-120779711D01*
X112461786Y-120779707D01*
X112350292Y-120668213D01*
X112350288Y-120668210D01*
X112219185Y-120580609D01*
X112219172Y-120580602D01*
X112073501Y-120520264D01*
X112073489Y-120520261D01*
X111918845Y-120489500D01*
X111918842Y-120489500D01*
X111761158Y-120489500D01*
X111761155Y-120489500D01*
X111606510Y-120520261D01*
X111606498Y-120520264D01*
X111460827Y-120580602D01*
X111460814Y-120580609D01*
X111329711Y-120668210D01*
X111329707Y-120668213D01*
X111218213Y-120779707D01*
X111218210Y-120779711D01*
X111130609Y-120910814D01*
X111130602Y-120910827D01*
X111070264Y-121056498D01*
X111070261Y-121056510D01*
X111039500Y-121211153D01*
X111039500Y-121368846D01*
X111070261Y-121523489D01*
X111070264Y-121523501D01*
X111115515Y-121632748D01*
X111122984Y-121702218D01*
X111091708Y-121764697D01*
X111031619Y-121800348D01*
X111012388Y-121802763D01*
X111012471Y-121803603D01*
X111006405Y-121804200D01*
X110862330Y-121832858D01*
X110862320Y-121832861D01*
X110726598Y-121889078D01*
X110726589Y-121889083D01*
X110604445Y-121970698D01*
X110604441Y-121970701D01*
X110561464Y-122013680D01*
X110500141Y-122047166D01*
X110473782Y-122050000D01*
X109653948Y-122050000D01*
X109586909Y-122030315D01*
X109566266Y-122013680D01*
X109523288Y-121970701D01*
X109523284Y-121970698D01*
X109401140Y-121889083D01*
X109401131Y-121889078D01*
X109265409Y-121832861D01*
X109265410Y-121832861D01*
X109265407Y-121832860D01*
X109265403Y-121832859D01*
X109265399Y-121832858D01*
X109121324Y-121804200D01*
X109121320Y-121804200D01*
X108974410Y-121804200D01*
X108974405Y-121804200D01*
X108830330Y-121832858D01*
X108830320Y-121832861D01*
X108694598Y-121889078D01*
X108694589Y-121889083D01*
X108572445Y-121970698D01*
X108572441Y-121970701D01*
X108529464Y-122013680D01*
X108468141Y-122047166D01*
X108441782Y-122050000D01*
X105941441Y-122050000D01*
X105874402Y-122030315D01*
X105828647Y-121977511D01*
X105818703Y-121908353D01*
X105847728Y-121844797D01*
X105853760Y-121838319D01*
X105931786Y-121760292D01*
X105931789Y-121760289D01*
X106019394Y-121629179D01*
X106079737Y-121483497D01*
X106110500Y-121328842D01*
X106110500Y-121171158D01*
X106110500Y-121171155D01*
X106110499Y-121171153D01*
X106090543Y-121070827D01*
X106079737Y-121016503D01*
X106079735Y-121016498D01*
X106019397Y-120870827D01*
X106019390Y-120870814D01*
X105931789Y-120739711D01*
X105931786Y-120739707D01*
X105820292Y-120628213D01*
X105820288Y-120628210D01*
X105689185Y-120540609D01*
X105689172Y-120540602D01*
X105543501Y-120480264D01*
X105543489Y-120480261D01*
X105388845Y-120449500D01*
X105388842Y-120449500D01*
X105231158Y-120449500D01*
X105231155Y-120449500D01*
X105076510Y-120480261D01*
X105076498Y-120480264D01*
X104930827Y-120540602D01*
X104930814Y-120540609D01*
X104799711Y-120628210D01*
X104799707Y-120628213D01*
X104688213Y-120739707D01*
X104688210Y-120739711D01*
X104600609Y-120870814D01*
X104600602Y-120870827D01*
X104540264Y-121016498D01*
X104540261Y-121016510D01*
X104509500Y-121171153D01*
X104509500Y-121328846D01*
X104540261Y-121483489D01*
X104540264Y-121483501D01*
X104600602Y-121629172D01*
X104600609Y-121629185D01*
X104688210Y-121760288D01*
X104688213Y-121760292D01*
X104766240Y-121838319D01*
X104799725Y-121899642D01*
X104794741Y-121969334D01*
X104752869Y-122025267D01*
X104687405Y-122049684D01*
X104678559Y-122050000D01*
X103811441Y-122050000D01*
X103744402Y-122030315D01*
X103698647Y-121977511D01*
X103688703Y-121908353D01*
X103717728Y-121844797D01*
X103723760Y-121838319D01*
X103731786Y-121830292D01*
X103731789Y-121830289D01*
X103819394Y-121699179D01*
X103879737Y-121553497D01*
X103910500Y-121398842D01*
X103910500Y-121241158D01*
X103910500Y-121241155D01*
X103910499Y-121241153D01*
X103879738Y-121086510D01*
X103879737Y-121086503D01*
X103873241Y-121070821D01*
X103819397Y-120940827D01*
X103819390Y-120940814D01*
X103731789Y-120809711D01*
X103731786Y-120809707D01*
X103620292Y-120698213D01*
X103620288Y-120698210D01*
X103489185Y-120610609D01*
X103489172Y-120610602D01*
X103343501Y-120550264D01*
X103343489Y-120550261D01*
X103188845Y-120519500D01*
X103188842Y-120519500D01*
X103031158Y-120519500D01*
X103031155Y-120519500D01*
X102876510Y-120550261D01*
X102876498Y-120550264D01*
X102730827Y-120610602D01*
X102730814Y-120610609D01*
X102599711Y-120698210D01*
X102599707Y-120698213D01*
X102488213Y-120809707D01*
X102488210Y-120809711D01*
X102400609Y-120940814D01*
X102400602Y-120940827D01*
X102340264Y-121086498D01*
X102340261Y-121086510D01*
X102309500Y-121241153D01*
X102309500Y-121398846D01*
X102340261Y-121553489D01*
X102340264Y-121553501D01*
X102400602Y-121699172D01*
X102400609Y-121699185D01*
X102488210Y-121830288D01*
X102488213Y-121830292D01*
X102496240Y-121838319D01*
X102529725Y-121899642D01*
X102524741Y-121969334D01*
X102482869Y-122025267D01*
X102417405Y-122049684D01*
X102408559Y-122050000D01*
X94133834Y-122050000D01*
X94066795Y-122030315D01*
X94021040Y-121977511D01*
X94011096Y-121908353D01*
X94030732Y-121857108D01*
X94038958Y-121844797D01*
X94049394Y-121829179D01*
X94109737Y-121683497D01*
X94140500Y-121528842D01*
X94140500Y-121371158D01*
X94140500Y-121371155D01*
X94140499Y-121371153D01*
X94140039Y-121368842D01*
X94109737Y-121216503D01*
X94090955Y-121171158D01*
X94049397Y-121070827D01*
X94049390Y-121070814D01*
X93961789Y-120939711D01*
X93961786Y-120939707D01*
X93850292Y-120828213D01*
X93850288Y-120828210D01*
X93719185Y-120740609D01*
X93719172Y-120740602D01*
X93573501Y-120680264D01*
X93573489Y-120680261D01*
X93418845Y-120649500D01*
X93418842Y-120649500D01*
X93261158Y-120649500D01*
X93261155Y-120649500D01*
X93106510Y-120680261D01*
X93106498Y-120680264D01*
X92960827Y-120740602D01*
X92960814Y-120740609D01*
X92829711Y-120828210D01*
X92829707Y-120828213D01*
X92718213Y-120939707D01*
X92718210Y-120939711D01*
X92630609Y-121070814D01*
X92630602Y-121070827D01*
X92570264Y-121216498D01*
X92570261Y-121216510D01*
X92539500Y-121371153D01*
X92539500Y-121528846D01*
X92570261Y-121683489D01*
X92570264Y-121683501D01*
X92630602Y-121829172D01*
X92630606Y-121829179D01*
X92649268Y-121857108D01*
X92670146Y-121923786D01*
X92651662Y-121991166D01*
X92599684Y-122037856D01*
X92546166Y-122050000D01*
X85624500Y-122050000D01*
X85557461Y-122030315D01*
X85511706Y-121977511D01*
X85500500Y-121926000D01*
X85500500Y-117401153D01*
X111149500Y-117401153D01*
X111149500Y-117558846D01*
X111180261Y-117713489D01*
X111180264Y-117713501D01*
X111240602Y-117859172D01*
X111240609Y-117859185D01*
X111328210Y-117990288D01*
X111328213Y-117990292D01*
X111439707Y-118101786D01*
X111439711Y-118101789D01*
X111570814Y-118189390D01*
X111570827Y-118189397D01*
X111716498Y-118249735D01*
X111716503Y-118249737D01*
X111871153Y-118280499D01*
X111871156Y-118280500D01*
X111871158Y-118280500D01*
X112028844Y-118280500D01*
X112028845Y-118280499D01*
X112183497Y-118249737D01*
X112329179Y-118189394D01*
X112460289Y-118101789D01*
X112571789Y-117990289D01*
X112659394Y-117859179D01*
X112719737Y-117713497D01*
X112750500Y-117558842D01*
X112750500Y-117401158D01*
X112750500Y-117401155D01*
X112750499Y-117401153D01*
X112719738Y-117246510D01*
X112719737Y-117246503D01*
X112719735Y-117246498D01*
X112659397Y-117100827D01*
X112659390Y-117100814D01*
X112571789Y-116969711D01*
X112571786Y-116969707D01*
X112460292Y-116858213D01*
X112460288Y-116858210D01*
X112329185Y-116770609D01*
X112329172Y-116770602D01*
X112183501Y-116710264D01*
X112183489Y-116710261D01*
X112028845Y-116679500D01*
X112028842Y-116679500D01*
X111871158Y-116679500D01*
X111871155Y-116679500D01*
X111716510Y-116710261D01*
X111716498Y-116710264D01*
X111570827Y-116770602D01*
X111570814Y-116770609D01*
X111439711Y-116858210D01*
X111439707Y-116858213D01*
X111328213Y-116969707D01*
X111328210Y-116969711D01*
X111240609Y-117100814D01*
X111240602Y-117100827D01*
X111180264Y-117246498D01*
X111180261Y-117246510D01*
X111149500Y-117401153D01*
X85500500Y-117401153D01*
X85500500Y-114856540D01*
X109318065Y-114856540D01*
X109318065Y-115003459D01*
X109346723Y-115147534D01*
X109346726Y-115147544D01*
X109402943Y-115283266D01*
X109402948Y-115283275D01*
X109484563Y-115405419D01*
X109484566Y-115405423D01*
X109588441Y-115509298D01*
X109588445Y-115509301D01*
X109710589Y-115590916D01*
X109710595Y-115590919D01*
X109710596Y-115590920D01*
X109846323Y-115647140D01*
X109990405Y-115675799D01*
X109990409Y-115675800D01*
X109990410Y-115675800D01*
X110137321Y-115675800D01*
X110137322Y-115675799D01*
X110281407Y-115647140D01*
X110417134Y-115590920D01*
X110539285Y-115509301D01*
X110643166Y-115405420D01*
X110724785Y-115283269D01*
X110781005Y-115147542D01*
X110809665Y-115003455D01*
X110809665Y-114856545D01*
X110781005Y-114712458D01*
X110724785Y-114576731D01*
X110724784Y-114576730D01*
X110724781Y-114576724D01*
X110643166Y-114454580D01*
X110643163Y-114454576D01*
X110539288Y-114350701D01*
X110539284Y-114350698D01*
X110417140Y-114269083D01*
X110417131Y-114269078D01*
X110281409Y-114212861D01*
X110281410Y-114212861D01*
X110281407Y-114212860D01*
X110281403Y-114212859D01*
X110281399Y-114212858D01*
X110137324Y-114184200D01*
X110137320Y-114184200D01*
X109990410Y-114184200D01*
X109990405Y-114184200D01*
X109846330Y-114212858D01*
X109846320Y-114212861D01*
X109710598Y-114269078D01*
X109710589Y-114269083D01*
X109588445Y-114350698D01*
X109588441Y-114350701D01*
X109484566Y-114454576D01*
X109484563Y-114454580D01*
X109402948Y-114576724D01*
X109402943Y-114576733D01*
X109346726Y-114712455D01*
X109346723Y-114712465D01*
X109318065Y-114856540D01*
X85500500Y-114856540D01*
X85500500Y-113821153D01*
X100689500Y-113821153D01*
X100689500Y-113978846D01*
X100720261Y-114133489D01*
X100720264Y-114133501D01*
X100780602Y-114279172D01*
X100780609Y-114279185D01*
X100868210Y-114410288D01*
X100868213Y-114410292D01*
X100979707Y-114521786D01*
X100979711Y-114521789D01*
X101110814Y-114609390D01*
X101110827Y-114609397D01*
X101256498Y-114669735D01*
X101256503Y-114669737D01*
X101411153Y-114700499D01*
X101411156Y-114700500D01*
X101411158Y-114700500D01*
X101568844Y-114700500D01*
X101568845Y-114700499D01*
X101723497Y-114669737D01*
X101869179Y-114609394D01*
X102000289Y-114521789D01*
X102111789Y-114410289D01*
X102199394Y-114279179D01*
X102259737Y-114133497D01*
X102290500Y-113978842D01*
X102290500Y-113821158D01*
X102290500Y-113821155D01*
X102290499Y-113821153D01*
X102259738Y-113666510D01*
X102259737Y-113666503D01*
X102259735Y-113666498D01*
X102199397Y-113520827D01*
X102199390Y-113520814D01*
X102111789Y-113389711D01*
X102111786Y-113389707D01*
X102000292Y-113278213D01*
X102000288Y-113278210D01*
X101869185Y-113190609D01*
X101869172Y-113190602D01*
X101723501Y-113130264D01*
X101723489Y-113130261D01*
X101568845Y-113099500D01*
X101568842Y-113099500D01*
X101411158Y-113099500D01*
X101411155Y-113099500D01*
X101256510Y-113130261D01*
X101256498Y-113130264D01*
X101110827Y-113190602D01*
X101110814Y-113190609D01*
X100979711Y-113278210D01*
X100979707Y-113278213D01*
X100868213Y-113389707D01*
X100868210Y-113389711D01*
X100780609Y-113520814D01*
X100780602Y-113520827D01*
X100720264Y-113666498D01*
X100720261Y-113666510D01*
X100689500Y-113821153D01*
X85500500Y-113821153D01*
X85500500Y-111991153D01*
X93889500Y-111991153D01*
X93889500Y-112148846D01*
X93920261Y-112303489D01*
X93920264Y-112303501D01*
X93980602Y-112449172D01*
X93980609Y-112449185D01*
X94068210Y-112580288D01*
X94068213Y-112580292D01*
X94179707Y-112691786D01*
X94179711Y-112691789D01*
X94310814Y-112779390D01*
X94310827Y-112779397D01*
X94456498Y-112839735D01*
X94456503Y-112839737D01*
X94611153Y-112870499D01*
X94611156Y-112870500D01*
X94611158Y-112870500D01*
X94768844Y-112870500D01*
X94768845Y-112870499D01*
X94923497Y-112839737D01*
X95069179Y-112779394D01*
X95200289Y-112691789D01*
X95311789Y-112580289D01*
X95399394Y-112449179D01*
X95459737Y-112303497D01*
X95490500Y-112148842D01*
X95490500Y-111991158D01*
X95482543Y-111951158D01*
X95482542Y-111951153D01*
X104449500Y-111951153D01*
X104449500Y-112108846D01*
X104480261Y-112263489D01*
X104480264Y-112263501D01*
X104540602Y-112409172D01*
X104540609Y-112409185D01*
X104628210Y-112540288D01*
X104628213Y-112540292D01*
X104739707Y-112651786D01*
X104739711Y-112651789D01*
X104870814Y-112739390D01*
X104870827Y-112739397D01*
X105016498Y-112799735D01*
X105016503Y-112799737D01*
X105171153Y-112830499D01*
X105171156Y-112830500D01*
X105171158Y-112830500D01*
X105328844Y-112830500D01*
X105328845Y-112830499D01*
X105483497Y-112799737D01*
X105629179Y-112739394D01*
X105760289Y-112651789D01*
X105871789Y-112540289D01*
X105959394Y-112409179D01*
X106019737Y-112263497D01*
X106050500Y-112108842D01*
X106050500Y-111951158D01*
X106050500Y-111951155D01*
X106050499Y-111951153D01*
X106027695Y-111836510D01*
X106019737Y-111796503D01*
X105975965Y-111690827D01*
X105959397Y-111650827D01*
X105959390Y-111650814D01*
X105871789Y-111519711D01*
X105871786Y-111519707D01*
X105760292Y-111408213D01*
X105760288Y-111408210D01*
X105629185Y-111320609D01*
X105629172Y-111320602D01*
X105483501Y-111260264D01*
X105483489Y-111260261D01*
X105328845Y-111229500D01*
X105328842Y-111229500D01*
X105171158Y-111229500D01*
X105171155Y-111229500D01*
X105016510Y-111260261D01*
X105016498Y-111260264D01*
X104870827Y-111320602D01*
X104870814Y-111320609D01*
X104739711Y-111408210D01*
X104739707Y-111408213D01*
X104628213Y-111519707D01*
X104628210Y-111519711D01*
X104540609Y-111650814D01*
X104540602Y-111650827D01*
X104480264Y-111796498D01*
X104480261Y-111796510D01*
X104449500Y-111951153D01*
X95482542Y-111951153D01*
X95459738Y-111836510D01*
X95459737Y-111836503D01*
X95459735Y-111836498D01*
X95399397Y-111690827D01*
X95399390Y-111690814D01*
X95311789Y-111559711D01*
X95311786Y-111559707D01*
X95200292Y-111448213D01*
X95200288Y-111448210D01*
X95069185Y-111360609D01*
X95069172Y-111360602D01*
X94923501Y-111300264D01*
X94923489Y-111300261D01*
X94768845Y-111269500D01*
X94768842Y-111269500D01*
X94611158Y-111269500D01*
X94611155Y-111269500D01*
X94456510Y-111300261D01*
X94456498Y-111300264D01*
X94310827Y-111360602D01*
X94310814Y-111360609D01*
X94179711Y-111448210D01*
X94179707Y-111448213D01*
X94068213Y-111559707D01*
X94068210Y-111559711D01*
X93980609Y-111690814D01*
X93980602Y-111690827D01*
X93920264Y-111836498D01*
X93920261Y-111836510D01*
X93889500Y-111991153D01*
X85500500Y-111991153D01*
X85500500Y-109885258D01*
X88249500Y-109885258D01*
X88249500Y-110114741D01*
X88274446Y-110304215D01*
X88279452Y-110342238D01*
X88279453Y-110342240D01*
X88338842Y-110563887D01*
X88426650Y-110775876D01*
X88426657Y-110775890D01*
X88541392Y-110974617D01*
X88681081Y-111156661D01*
X88681089Y-111156670D01*
X88843330Y-111318911D01*
X88843338Y-111318918D01*
X88843339Y-111318919D01*
X88893962Y-111357764D01*
X89025382Y-111458607D01*
X89025385Y-111458608D01*
X89025388Y-111458611D01*
X89224112Y-111573344D01*
X89224117Y-111573346D01*
X89224123Y-111573349D01*
X89315480Y-111611190D01*
X89436113Y-111661158D01*
X89657762Y-111720548D01*
X89885266Y-111750500D01*
X89885273Y-111750500D01*
X90114727Y-111750500D01*
X90114734Y-111750500D01*
X90342238Y-111720548D01*
X90563887Y-111661158D01*
X90775888Y-111573344D01*
X90974612Y-111458611D01*
X91156661Y-111318919D01*
X91156665Y-111318914D01*
X91156670Y-111318911D01*
X91318911Y-111156670D01*
X91318914Y-111156665D01*
X91318919Y-111156661D01*
X91458611Y-110974612D01*
X91573344Y-110775888D01*
X91661158Y-110563887D01*
X91720548Y-110342238D01*
X91750500Y-110114734D01*
X91750500Y-109885266D01*
X91732843Y-109751153D01*
X97759500Y-109751153D01*
X97759500Y-109908846D01*
X97790261Y-110063489D01*
X97790264Y-110063501D01*
X97850602Y-110209172D01*
X97850609Y-110209185D01*
X97938210Y-110340288D01*
X97938213Y-110340292D01*
X98049707Y-110451786D01*
X98049711Y-110451789D01*
X98180814Y-110539390D01*
X98180827Y-110539397D01*
X98326498Y-110599735D01*
X98326503Y-110599737D01*
X98481153Y-110630499D01*
X98481156Y-110630500D01*
X98481158Y-110630500D01*
X98638844Y-110630500D01*
X98638845Y-110630499D01*
X98793497Y-110599737D01*
X98939179Y-110539394D01*
X99070289Y-110451789D01*
X99181789Y-110340289D01*
X99269394Y-110209179D01*
X99329737Y-110063497D01*
X99342540Y-109999128D01*
X99356000Y-109931468D01*
X99356000Y-109931464D01*
X99360500Y-109908842D01*
X99360500Y-109751158D01*
X99599500Y-109751158D01*
X99599500Y-109908842D01*
X99604000Y-109931464D01*
X99604000Y-109931468D01*
X99630261Y-110063489D01*
X99630264Y-110063501D01*
X99690602Y-110209172D01*
X99690609Y-110209185D01*
X99778210Y-110340288D01*
X99778213Y-110340292D01*
X99889707Y-110451786D01*
X99889711Y-110451789D01*
X100020814Y-110539390D01*
X100020827Y-110539397D01*
X100166498Y-110599735D01*
X100166503Y-110599737D01*
X100321153Y-110630499D01*
X100321156Y-110630500D01*
X100321158Y-110630500D01*
X100478844Y-110630500D01*
X100478845Y-110630499D01*
X100633497Y-110599737D01*
X100779179Y-110539394D01*
X100910289Y-110451789D01*
X101021789Y-110340289D01*
X101109394Y-110209179D01*
X101169737Y-110063497D01*
X101200500Y-109908842D01*
X101200500Y-109751158D01*
X101200500Y-109751155D01*
X101200499Y-109751153D01*
X101569500Y-109751153D01*
X101569500Y-109908846D01*
X101600261Y-110063489D01*
X101600264Y-110063501D01*
X101660602Y-110209172D01*
X101660609Y-110209185D01*
X101748210Y-110340288D01*
X101748213Y-110340292D01*
X101859707Y-110451786D01*
X101859711Y-110451789D01*
X101990814Y-110539390D01*
X101990827Y-110539397D01*
X102136498Y-110599735D01*
X102136503Y-110599737D01*
X102291153Y-110630499D01*
X102291156Y-110630500D01*
X102291158Y-110630500D01*
X102448844Y-110630500D01*
X102448845Y-110630499D01*
X102603497Y-110599737D01*
X102749179Y-110539394D01*
X102880289Y-110451789D01*
X102991789Y-110340289D01*
X103079394Y-110209179D01*
X103139737Y-110063497D01*
X103147002Y-110026973D01*
X103153383Y-109994897D01*
X103185768Y-109932986D01*
X103246484Y-109898412D01*
X103316253Y-109902151D01*
X103372925Y-109943018D01*
X103396617Y-109994897D01*
X103410261Y-110063489D01*
X103410264Y-110063501D01*
X103470602Y-110209172D01*
X103470609Y-110209185D01*
X103558210Y-110340288D01*
X103558213Y-110340292D01*
X103669707Y-110451786D01*
X103669711Y-110451789D01*
X103800814Y-110539390D01*
X103800827Y-110539397D01*
X103946498Y-110599735D01*
X103946503Y-110599737D01*
X104101153Y-110630499D01*
X104101156Y-110630500D01*
X104101158Y-110630500D01*
X104258844Y-110630500D01*
X104258845Y-110630499D01*
X104413497Y-110599737D01*
X104559179Y-110539394D01*
X104690289Y-110451789D01*
X104801789Y-110340289D01*
X104889394Y-110209179D01*
X104949737Y-110063497D01*
X104980500Y-109908842D01*
X104980500Y-109885258D01*
X108249500Y-109885258D01*
X108249500Y-110114741D01*
X108274446Y-110304215D01*
X108279452Y-110342238D01*
X108279453Y-110342240D01*
X108338842Y-110563887D01*
X108426650Y-110775876D01*
X108426657Y-110775890D01*
X108541392Y-110974617D01*
X108681081Y-111156661D01*
X108681089Y-111156670D01*
X108843330Y-111318911D01*
X108843338Y-111318918D01*
X108843339Y-111318919D01*
X108893962Y-111357764D01*
X109025382Y-111458607D01*
X109025385Y-111458608D01*
X109025388Y-111458611D01*
X109224112Y-111573344D01*
X109224117Y-111573346D01*
X109224123Y-111573349D01*
X109315480Y-111611190D01*
X109436113Y-111661158D01*
X109657762Y-111720548D01*
X109885266Y-111750500D01*
X109885273Y-111750500D01*
X110114727Y-111750500D01*
X110114734Y-111750500D01*
X110342238Y-111720548D01*
X110563887Y-111661158D01*
X110775888Y-111573344D01*
X110974612Y-111458611D01*
X111156661Y-111318919D01*
X111156665Y-111318914D01*
X111156670Y-111318911D01*
X111318911Y-111156670D01*
X111318914Y-111156665D01*
X111318919Y-111156661D01*
X111458611Y-110974612D01*
X111573344Y-110775888D01*
X111661158Y-110563887D01*
X111720548Y-110342238D01*
X111750500Y-110114734D01*
X111750500Y-109885266D01*
X111720548Y-109657762D01*
X111661158Y-109436113D01*
X111573344Y-109224112D01*
X111458611Y-109025388D01*
X111458608Y-109025385D01*
X111458607Y-109025382D01*
X111318918Y-108843338D01*
X111318911Y-108843330D01*
X111156670Y-108681089D01*
X111156661Y-108681081D01*
X110974617Y-108541392D01*
X110775890Y-108426657D01*
X110775876Y-108426650D01*
X110563887Y-108338842D01*
X110342238Y-108279452D01*
X110304215Y-108274446D01*
X110114741Y-108249500D01*
X110114734Y-108249500D01*
X109885266Y-108249500D01*
X109885258Y-108249500D01*
X109668715Y-108278009D01*
X109657762Y-108279452D01*
X109564076Y-108304554D01*
X109436112Y-108338842D01*
X109224123Y-108426650D01*
X109224109Y-108426657D01*
X109025382Y-108541392D01*
X108843338Y-108681081D01*
X108681081Y-108843338D01*
X108541392Y-109025382D01*
X108426657Y-109224109D01*
X108426650Y-109224123D01*
X108338842Y-109436112D01*
X108338842Y-109436113D01*
X108295868Y-109596498D01*
X108279453Y-109657759D01*
X108279451Y-109657770D01*
X108249500Y-109885258D01*
X104980500Y-109885258D01*
X104980500Y-109751158D01*
X104980500Y-109751155D01*
X104980499Y-109751153D01*
X104961922Y-109657762D01*
X104949737Y-109596503D01*
X104949735Y-109596498D01*
X104889397Y-109450827D01*
X104889390Y-109450814D01*
X104801789Y-109319711D01*
X104801786Y-109319707D01*
X104690292Y-109208213D01*
X104690288Y-109208210D01*
X104559185Y-109120609D01*
X104559172Y-109120602D01*
X104413501Y-109060264D01*
X104413489Y-109060261D01*
X104258845Y-109029500D01*
X104258842Y-109029500D01*
X104101158Y-109029500D01*
X104101155Y-109029500D01*
X103946510Y-109060261D01*
X103946498Y-109060264D01*
X103800827Y-109120602D01*
X103800814Y-109120609D01*
X103669711Y-109208210D01*
X103669707Y-109208213D01*
X103558213Y-109319707D01*
X103558210Y-109319711D01*
X103470609Y-109450814D01*
X103470602Y-109450827D01*
X103410264Y-109596498D01*
X103410261Y-109596508D01*
X103396617Y-109665103D01*
X103364232Y-109727014D01*
X103303516Y-109761588D01*
X103233747Y-109757848D01*
X103177075Y-109716981D01*
X103153383Y-109665103D01*
X103139738Y-109596508D01*
X103139737Y-109596507D01*
X103139737Y-109596503D01*
X103139735Y-109596498D01*
X103079397Y-109450827D01*
X103079390Y-109450814D01*
X102991789Y-109319711D01*
X102991786Y-109319707D01*
X102880292Y-109208213D01*
X102880288Y-109208210D01*
X102749185Y-109120609D01*
X102749172Y-109120602D01*
X102603501Y-109060264D01*
X102603489Y-109060261D01*
X102448845Y-109029500D01*
X102448842Y-109029500D01*
X102291158Y-109029500D01*
X102291155Y-109029500D01*
X102136510Y-109060261D01*
X102136498Y-109060264D01*
X101990827Y-109120602D01*
X101990814Y-109120609D01*
X101859711Y-109208210D01*
X101859707Y-109208213D01*
X101748213Y-109319707D01*
X101748210Y-109319711D01*
X101660609Y-109450814D01*
X101660602Y-109450827D01*
X101600264Y-109596498D01*
X101600261Y-109596510D01*
X101569500Y-109751153D01*
X101200499Y-109751153D01*
X101181922Y-109657762D01*
X101169737Y-109596503D01*
X101169735Y-109596498D01*
X101109397Y-109450827D01*
X101109390Y-109450814D01*
X101021789Y-109319711D01*
X101021786Y-109319707D01*
X100910292Y-109208213D01*
X100910288Y-109208210D01*
X100779185Y-109120609D01*
X100779172Y-109120602D01*
X100633501Y-109060264D01*
X100633489Y-109060261D01*
X100478845Y-109029500D01*
X100478842Y-109029500D01*
X100321158Y-109029500D01*
X100321155Y-109029500D01*
X100166510Y-109060261D01*
X100166498Y-109060264D01*
X100020827Y-109120602D01*
X100020814Y-109120609D01*
X99889711Y-109208210D01*
X99889707Y-109208213D01*
X99778213Y-109319707D01*
X99778210Y-109319711D01*
X99690609Y-109450814D01*
X99690602Y-109450827D01*
X99630264Y-109596498D01*
X99630261Y-109596508D01*
X99604000Y-109728532D01*
X99604000Y-109728535D01*
X99599500Y-109751158D01*
X99360500Y-109751158D01*
X99356000Y-109728535D01*
X99356000Y-109728532D01*
X99329738Y-109596508D01*
X99329737Y-109596507D01*
X99329737Y-109596503D01*
X99329735Y-109596498D01*
X99269397Y-109450827D01*
X99269390Y-109450814D01*
X99181789Y-109319711D01*
X99181786Y-109319707D01*
X99070292Y-109208213D01*
X99070288Y-109208210D01*
X98939185Y-109120609D01*
X98939172Y-109120602D01*
X98793501Y-109060264D01*
X98793489Y-109060261D01*
X98638845Y-109029500D01*
X98638842Y-109029500D01*
X98481158Y-109029500D01*
X98481155Y-109029500D01*
X98326510Y-109060261D01*
X98326498Y-109060264D01*
X98180827Y-109120602D01*
X98180814Y-109120609D01*
X98049711Y-109208210D01*
X98049707Y-109208213D01*
X97938213Y-109319707D01*
X97938210Y-109319711D01*
X97850609Y-109450814D01*
X97850602Y-109450827D01*
X97790264Y-109596498D01*
X97790261Y-109596510D01*
X97759500Y-109751153D01*
X91732843Y-109751153D01*
X91720548Y-109657762D01*
X91661158Y-109436113D01*
X91573344Y-109224112D01*
X91458611Y-109025388D01*
X91458608Y-109025385D01*
X91458607Y-109025382D01*
X91318918Y-108843338D01*
X91318911Y-108843330D01*
X91156670Y-108681089D01*
X91156661Y-108681081D01*
X90974617Y-108541392D01*
X90775890Y-108426657D01*
X90775876Y-108426650D01*
X90563887Y-108338842D01*
X90342238Y-108279452D01*
X90304215Y-108274446D01*
X90114741Y-108249500D01*
X90114734Y-108249500D01*
X89885266Y-108249500D01*
X89885258Y-108249500D01*
X89668715Y-108278009D01*
X89657762Y-108279452D01*
X89564076Y-108304554D01*
X89436112Y-108338842D01*
X89224123Y-108426650D01*
X89224109Y-108426657D01*
X89025382Y-108541392D01*
X88843338Y-108681081D01*
X88681081Y-108843338D01*
X88541392Y-109025382D01*
X88426657Y-109224109D01*
X88426650Y-109224123D01*
X88338842Y-109436112D01*
X88338842Y-109436113D01*
X88295868Y-109596498D01*
X88279453Y-109657759D01*
X88279451Y-109657770D01*
X88249500Y-109885258D01*
X85500500Y-109885258D01*
X85500500Y-105311153D01*
X98309500Y-105311153D01*
X98309500Y-105468846D01*
X98340261Y-105623489D01*
X98340264Y-105623501D01*
X98400602Y-105769172D01*
X98400609Y-105769185D01*
X98488210Y-105900288D01*
X98488213Y-105900292D01*
X98599707Y-106011786D01*
X98599711Y-106011789D01*
X98730814Y-106099390D01*
X98730827Y-106099397D01*
X98876498Y-106159735D01*
X98876503Y-106159737D01*
X99031153Y-106190499D01*
X99031156Y-106190500D01*
X99031158Y-106190500D01*
X99188844Y-106190500D01*
X99188845Y-106190499D01*
X99343497Y-106159737D01*
X99489179Y-106099394D01*
X99620289Y-106011789D01*
X99731789Y-105900289D01*
X99819394Y-105769179D01*
X99879737Y-105623497D01*
X99910500Y-105468842D01*
X99910500Y-105311158D01*
X99910500Y-105311155D01*
X99910499Y-105311153D01*
X99879738Y-105156510D01*
X99879737Y-105156503D01*
X99879735Y-105156498D01*
X99819397Y-105010827D01*
X99819390Y-105010814D01*
X99731789Y-104879711D01*
X99731786Y-104879707D01*
X99620292Y-104768213D01*
X99620288Y-104768210D01*
X99489185Y-104680609D01*
X99489172Y-104680602D01*
X99343501Y-104620264D01*
X99343489Y-104620261D01*
X99188845Y-104589500D01*
X99188842Y-104589500D01*
X99031158Y-104589500D01*
X99031155Y-104589500D01*
X98876510Y-104620261D01*
X98876498Y-104620264D01*
X98730827Y-104680602D01*
X98730814Y-104680609D01*
X98599711Y-104768210D01*
X98599707Y-104768213D01*
X98488213Y-104879707D01*
X98488210Y-104879711D01*
X98400609Y-105010814D01*
X98400602Y-105010827D01*
X98340264Y-105156498D01*
X98340261Y-105156510D01*
X98309500Y-105311153D01*
X85500500Y-105311153D01*
X85500500Y-99018709D01*
X106769500Y-99018709D01*
X106769500Y-99176402D01*
X106800261Y-99331045D01*
X106800264Y-99331057D01*
X106860602Y-99476728D01*
X106860609Y-99476741D01*
X106948210Y-99607844D01*
X106948213Y-99607848D01*
X107059707Y-99719342D01*
X107059711Y-99719345D01*
X107190814Y-99806946D01*
X107190827Y-99806953D01*
X107336498Y-99867291D01*
X107336503Y-99867293D01*
X107491153Y-99898055D01*
X107491156Y-99898056D01*
X107491158Y-99898056D01*
X107648844Y-99898056D01*
X107648845Y-99898055D01*
X107803497Y-99867293D01*
X107949179Y-99806950D01*
X108080289Y-99719345D01*
X108191789Y-99607845D01*
X108279394Y-99476735D01*
X108339737Y-99331053D01*
X108370500Y-99176398D01*
X108370500Y-99018714D01*
X108370500Y-99018711D01*
X108370499Y-99018709D01*
X108339738Y-98864066D01*
X108339737Y-98864059D01*
X108339735Y-98864054D01*
X108279397Y-98718383D01*
X108279390Y-98718370D01*
X108191789Y-98587267D01*
X108191786Y-98587263D01*
X108080292Y-98475769D01*
X108080288Y-98475766D01*
X107949185Y-98388165D01*
X107949172Y-98388158D01*
X107803501Y-98327820D01*
X107803489Y-98327817D01*
X107648845Y-98297056D01*
X107648842Y-98297056D01*
X107491158Y-98297056D01*
X107491155Y-98297056D01*
X107336510Y-98327817D01*
X107336498Y-98327820D01*
X107190827Y-98388158D01*
X107190814Y-98388165D01*
X107059711Y-98475766D01*
X107059707Y-98475769D01*
X106948213Y-98587263D01*
X106948210Y-98587267D01*
X106860609Y-98718370D01*
X106860602Y-98718383D01*
X106800264Y-98864054D01*
X106800261Y-98864066D01*
X106769500Y-99018709D01*
X85500500Y-99018709D01*
X85500500Y-97724000D01*
X85520185Y-97656961D01*
X85572989Y-97611206D01*
X85624500Y-97600000D01*
X89171108Y-97600000D01*
X89238147Y-97619685D01*
G37*
%TD.AperFunction*%
%TD*%
M02*
