%TF.GenerationSoftware,KiCad,Pcbnew,10.0.5*%
%TF.CreationDate,2026-09-01T22:57:51+02:00*%
%TF.ProjectId,drone_fc,64726f6e-655f-4666-932e-6b696361645f,v2.0.0*%
%TF.SameCoordinates,Original*%
%TF.FileFunction,Soldermask,Bot*%
%TF.FilePolarity,Negative*%
%FSLAX46Y46*%
G04 Gerber Fmt 4.6, Leading zero omitted, Abs format (unit mm)*
G04 Created by KiCad (PCBNEW 10.0.5) date 2026-09-01 22:57:51*
%MOMM*%
%LPD*%
G01*
G04 APERTURE LIST*
G04 APERTURE END LIST*
G36*
X109256542Y-122046208D02*
G01*
X109379823Y-122117384D01*
X109480481Y-122218042D01*
X109551657Y-122341323D01*
X109588500Y-122478824D01*
X109588500Y-122621176D01*
X109551657Y-122758677D01*
X109480481Y-122881958D01*
X109379823Y-122982616D01*
X109256542Y-123053792D01*
X109119041Y-123090635D01*
X108976689Y-123090635D01*
X108839188Y-123053792D01*
X108715907Y-122982616D01*
X108615249Y-122881958D01*
X108544073Y-122758677D01*
X108507230Y-122621176D01*
X108507230Y-122478824D01*
X108544073Y-122341323D01*
X108615249Y-122218042D01*
X108715907Y-122117384D01*
X108839188Y-122046208D01*
X108976689Y-122009365D01*
X109119041Y-122009365D01*
X109256542Y-122046208D01*
G37*
G36*
X111288542Y-122046208D02*
G01*
X111411823Y-122117384D01*
X111512481Y-122218042D01*
X111583657Y-122341323D01*
X111620500Y-122478824D01*
X111620500Y-122621176D01*
X111583657Y-122758677D01*
X111512481Y-122881958D01*
X111411823Y-122982616D01*
X111288542Y-123053792D01*
X111151041Y-123090635D01*
X111008689Y-123090635D01*
X110871188Y-123053792D01*
X110747907Y-122982616D01*
X110647249Y-122881958D01*
X110576073Y-122758677D01*
X110539230Y-122621176D01*
X110539230Y-122478824D01*
X110576073Y-122341323D01*
X110647249Y-122218042D01*
X110747907Y-122117384D01*
X110871188Y-122046208D01*
X111008689Y-122009365D01*
X111151041Y-122009365D01*
X111288542Y-122046208D01*
G37*
G36*
X110272542Y-114426208D02*
G01*
X110395823Y-114497384D01*
X110496481Y-114598042D01*
X110567657Y-114721323D01*
X110604500Y-114858824D01*
X110604500Y-115001176D01*
X110567657Y-115138677D01*
X110496481Y-115261958D01*
X110395823Y-115362616D01*
X110272542Y-115433792D01*
X110135041Y-115470635D01*
X109992689Y-115470635D01*
X109855188Y-115433792D01*
X109731907Y-115362616D01*
X109631249Y-115261958D01*
X109560073Y-115138677D01*
X109523230Y-115001176D01*
X109523230Y-114858824D01*
X109560073Y-114721323D01*
X109631249Y-114598042D01*
X109731907Y-114497384D01*
X109855188Y-114426208D01*
X109992689Y-114389365D01*
X110135041Y-114389365D01*
X110272542Y-114426208D01*
G37*
G36*
X90361840Y-108492827D02*
G01*
X90593159Y-108567987D01*
X90809873Y-108678408D01*
X91006644Y-108821371D01*
X91178629Y-108993356D01*
X91321592Y-109190127D01*
X91432013Y-109406841D01*
X91507173Y-109638160D01*
X91545222Y-109878388D01*
X91545222Y-110121612D01*
X91507173Y-110361840D01*
X91432013Y-110593159D01*
X91321592Y-110809873D01*
X91178629Y-111006644D01*
X91006644Y-111178629D01*
X90809873Y-111321592D01*
X90593159Y-111432013D01*
X90361840Y-111507173D01*
X90121612Y-111545222D01*
X89878388Y-111545222D01*
X89638160Y-111507173D01*
X89406841Y-111432013D01*
X89190127Y-111321592D01*
X88993356Y-111178629D01*
X88821371Y-111006644D01*
X88678408Y-110809873D01*
X88567987Y-110593159D01*
X88492827Y-110361840D01*
X88454778Y-110121612D01*
X88454778Y-109878388D01*
X88492827Y-109638160D01*
X88567987Y-109406841D01*
X88678408Y-109190127D01*
X88821371Y-108993356D01*
X88993356Y-108821371D01*
X89190127Y-108678408D01*
X89406841Y-108567987D01*
X89638160Y-108492827D01*
X89878388Y-108454778D01*
X90121612Y-108454778D01*
X90361840Y-108492827D01*
G37*
G36*
X110361840Y-108492827D02*
G01*
X110593159Y-108567987D01*
X110809873Y-108678408D01*
X111006644Y-108821371D01*
X111178629Y-108993356D01*
X111321592Y-109190127D01*
X111432013Y-109406841D01*
X111507173Y-109638160D01*
X111545222Y-109878388D01*
X111545222Y-110121612D01*
X111507173Y-110361840D01*
X111432013Y-110593159D01*
X111321592Y-110809873D01*
X111178629Y-111006644D01*
X111006644Y-111178629D01*
X110809873Y-111321592D01*
X110593159Y-111432013D01*
X110361840Y-111507173D01*
X110121612Y-111545222D01*
X109878388Y-111545222D01*
X109638160Y-111507173D01*
X109406841Y-111432013D01*
X109190127Y-111321592D01*
X108993356Y-111178629D01*
X108821371Y-111006644D01*
X108678408Y-110809873D01*
X108567987Y-110593159D01*
X108492827Y-110361840D01*
X108454778Y-110121612D01*
X108454778Y-109878388D01*
X108492827Y-109638160D01*
X108567987Y-109406841D01*
X108678408Y-109190127D01*
X108821371Y-108993356D01*
X108993356Y-108821371D01*
X109190127Y-108678408D01*
X109406841Y-108567987D01*
X109638160Y-108492827D01*
X109878388Y-108454778D01*
X110121612Y-108454778D01*
X110361840Y-108492827D01*
G37*
G36*
X90361840Y-88492827D02*
G01*
X90593159Y-88567987D01*
X90809873Y-88678408D01*
X91006644Y-88821371D01*
X91178629Y-88993356D01*
X91321592Y-89190127D01*
X91432013Y-89406841D01*
X91507173Y-89638160D01*
X91545222Y-89878388D01*
X91545222Y-90121612D01*
X91507173Y-90361840D01*
X91432013Y-90593159D01*
X91321592Y-90809873D01*
X91178629Y-91006644D01*
X91006644Y-91178629D01*
X90809873Y-91321592D01*
X90593159Y-91432013D01*
X90361840Y-91507173D01*
X90121612Y-91545222D01*
X89878388Y-91545222D01*
X89638160Y-91507173D01*
X89406841Y-91432013D01*
X89190127Y-91321592D01*
X88993356Y-91178629D01*
X88821371Y-91006644D01*
X88678408Y-90809873D01*
X88567987Y-90593159D01*
X88492827Y-90361840D01*
X88454778Y-90121612D01*
X88454778Y-89878388D01*
X88492827Y-89638160D01*
X88567987Y-89406841D01*
X88678408Y-89190127D01*
X88821371Y-88993356D01*
X88993356Y-88821371D01*
X89190127Y-88678408D01*
X89406841Y-88567987D01*
X89638160Y-88492827D01*
X89878388Y-88454778D01*
X90121612Y-88454778D01*
X90361840Y-88492827D01*
G37*
G36*
X110361840Y-88492827D02*
G01*
X110593159Y-88567987D01*
X110809873Y-88678408D01*
X111006644Y-88821371D01*
X111178629Y-88993356D01*
X111321592Y-89190127D01*
X111432013Y-89406841D01*
X111507173Y-89638160D01*
X111545222Y-89878388D01*
X111545222Y-90121612D01*
X111507173Y-90361840D01*
X111432013Y-90593159D01*
X111321592Y-90809873D01*
X111178629Y-91006644D01*
X111006644Y-91178629D01*
X110809873Y-91321592D01*
X110593159Y-91432013D01*
X110361840Y-91507173D01*
X110121612Y-91545222D01*
X109878388Y-91545222D01*
X109638160Y-91507173D01*
X109406841Y-91432013D01*
X109190127Y-91321592D01*
X108993356Y-91178629D01*
X108821371Y-91006644D01*
X108678408Y-90809873D01*
X108567987Y-90593159D01*
X108492827Y-90361840D01*
X108454778Y-90121612D01*
X108454778Y-89878388D01*
X108492827Y-89638160D01*
X108567987Y-89406841D01*
X108678408Y-89190127D01*
X108821371Y-88993356D01*
X108993356Y-88821371D01*
X109190127Y-88678408D01*
X109406841Y-88567987D01*
X109638160Y-88492827D01*
X109878388Y-88454778D01*
X110121612Y-88454778D01*
X110361840Y-88492827D01*
G37*
M02*
