%TF.GenerationSoftware,KiCad,Pcbnew,10.0.5*%
%TF.CreationDate,2026-09-01T22:57:51+02:00*%
%TF.ProjectId,drone_fc,64726f6e-655f-4666-932e-6b696361645f,v2.0.0*%
%TF.SameCoordinates,Original*%
%TF.FileFunction,Copper,L4,Bot*%
%TF.FilePolarity,Positive*%
%FSLAX46Y46*%
G04 Gerber Fmt 4.6, Leading zero omitted, Abs format (unit mm)*
G04 Created by KiCad (PCBNEW 10.0.5) date 2026-09-01 22:57:51*
%MOMM*%
%LPD*%
G01*
G04 APERTURE LIST*
%TA.AperFunction,ViaPad*%
%ADD10C,0.600000*%
%TD*%
%TA.AperFunction,Conductor*%
%ADD11C,0.200000*%
%TD*%
G04 APERTURE END LIST*
D10*
%TO.N,GND*%
X105310000Y-121250000D03*
X105250000Y-112030000D03*
X99110000Y-105390000D03*
X98330000Y-95850000D03*
X93340000Y-121450000D03*
X111950000Y-117480000D03*
X105070000Y-97420000D03*
X107570000Y-99097556D03*
X98100000Y-93410000D03*
X94690000Y-112070000D03*
X90050000Y-97430000D03*
%TO.N,/+3V3*%
X107487556Y-101180000D03*
X97320000Y-110480000D03*
X108400000Y-116630000D03*
%TO.N,/ESC_M4*%
X103530000Y-92260000D03*
X104180000Y-109830000D03*
%TO.N,/ESC_M3*%
X102370000Y-109830000D03*
X102520000Y-92260000D03*
%TO.N,/ESC_M2*%
X101530000Y-92260000D03*
X100400000Y-109830000D03*
%TO.N,/ESC_M1*%
X98560000Y-109830000D03*
X100530000Y-92260000D03*
%TO.N,/ESC_TLM*%
X99530000Y-88170000D03*
X101490000Y-113900000D03*
%TO.N,/SWO*%
X103110000Y-121320000D03*
X111840000Y-121290000D03*
%TO.N,Net-(U2-FB)*%
X98370000Y-94900000D03*
X99129190Y-93560000D03*
%TD*%
%TO.N,GND*%
D11*
X99110000Y-105390000D02*
X99210000Y-105490000D01*
%TO.N,/ESC_M4*%
X104180000Y-92910000D02*
X103530000Y-92260000D01*
X104180000Y-109830000D02*
X104180000Y-92910000D01*
%TO.N,/ESC_M3*%
X102370000Y-109830000D02*
X102370000Y-98520000D01*
X102370000Y-98520000D02*
X102540000Y-98350000D01*
X102540000Y-92280000D02*
X102520000Y-92260000D01*
X102540000Y-98350000D02*
X102540000Y-92280000D01*
%TO.N,/ESC_M2*%
X100400000Y-109830000D02*
X100400000Y-93390000D01*
X100400000Y-93390000D02*
X101530000Y-92260000D01*
%TO.N,/ESC_M1*%
X99729190Y-108660810D02*
X99729190Y-93060810D01*
X98560000Y-109830000D02*
X99729190Y-108660810D01*
X99729190Y-93060810D02*
X100530000Y-92260000D01*
%TO.N,/ESC_TLM*%
X96680000Y-88170000D02*
X99530000Y-88170000D01*
X97960000Y-110370000D02*
X97960000Y-96328529D01*
X95500000Y-93868529D02*
X95500000Y-89350000D01*
X101490000Y-113900000D02*
X97960000Y-110370000D01*
X95500000Y-89350000D02*
X96680000Y-88170000D01*
X97960000Y-96328529D02*
X95500000Y-93868529D01*
%TO.N,/SWO*%
X103780000Y-120650000D02*
X111630000Y-120650000D01*
X103110000Y-121320000D02*
X103780000Y-120650000D01*
X111630000Y-120650000D02*
X111840000Y-120860000D01*
X111840000Y-120860000D02*
X111840000Y-121290000D01*
%TO.N,Net-(U2-FB)*%
X99129190Y-93908036D02*
X98370000Y-94667226D01*
X99129190Y-93560000D02*
X99135143Y-93565953D01*
X99135143Y-93565953D02*
X99135143Y-93757103D01*
X98370000Y-94667226D02*
X98370000Y-94900000D01*
X99129190Y-93560000D02*
X99129190Y-93908036D01*
%TD*%
M02*
