%TF.GenerationSoftware,KiCad,Pcbnew,10.0.5*%
%TF.CreationDate,2026-09-01T22:57:51+02:00*%
%TF.ProjectId,drone_fc,64726f6e-655f-4666-932e-6b696361645f,v2.0.0*%
%TF.SameCoordinates,Original*%
%TF.FileFunction,Soldermask,Top*%
%TF.FilePolarity,Negative*%
%FSLAX46Y46*%
G04 Gerber Fmt 4.6, Leading zero omitted, Abs format (unit mm)*
G04 Created by KiCad (PCBNEW 10.0.5) date 2026-09-01 22:57:51*
%MOMM*%
%LPD*%
G01*
G04 APERTURE LIST*
G04 APERTURE END LIST*
G36*
X109256542Y-122046208D02*
G01*
X109379823Y-122117384D01*
X109480481Y-122218042D01*
X109551657Y-122341323D01*
X109588500Y-122478824D01*
X109588500Y-122621176D01*
X109551657Y-122758677D01*
X109480481Y-122881958D01*
X109379823Y-122982616D01*
X109256542Y-123053792D01*
X109119041Y-123090635D01*
X108976689Y-123090635D01*
X108839188Y-123053792D01*
X108715907Y-122982616D01*
X108615249Y-122881958D01*
X108544073Y-122758677D01*
X108507230Y-122621176D01*
X108507230Y-122478824D01*
X108544073Y-122341323D01*
X108615249Y-122218042D01*
X108715907Y-122117384D01*
X108839188Y-122046208D01*
X108976689Y-122009365D01*
X109119041Y-122009365D01*
X109256542Y-122046208D01*
G37*
G36*
X111288542Y-122046208D02*
G01*
X111411823Y-122117384D01*
X111512481Y-122218042D01*
X111583657Y-122341323D01*
X111620500Y-122478824D01*
X111620500Y-122621176D01*
X111583657Y-122758677D01*
X111512481Y-122881958D01*
X111411823Y-122982616D01*
X111288542Y-123053792D01*
X111151041Y-123090635D01*
X111008689Y-123090635D01*
X110871188Y-123053792D01*
X110747907Y-122982616D01*
X110647249Y-122881958D01*
X110576073Y-122758677D01*
X110539230Y-122621176D01*
X110539230Y-122478824D01*
X110576073Y-122341323D01*
X110647249Y-122218042D01*
X110747907Y-122117384D01*
X110871188Y-122046208D01*
X111008689Y-122009365D01*
X111151041Y-122009365D01*
X111288542Y-122046208D01*
G37*
G36*
X96244134Y-121603806D02*
G01*
X96260355Y-121614645D01*
X96271194Y-121630866D01*
X96275000Y-121650000D01*
X96275000Y-122050000D01*
X96271194Y-122069134D01*
X96260355Y-122085355D01*
X96244134Y-122096194D01*
X96225000Y-122100000D01*
X95675000Y-122100000D01*
X95655866Y-122096194D01*
X95639645Y-122085355D01*
X95628806Y-122069134D01*
X95625000Y-122050000D01*
X95625000Y-121650000D01*
X95628806Y-121630866D01*
X95639645Y-121614645D01*
X95655866Y-121603806D01*
X95675000Y-121600000D01*
X96225000Y-121600000D01*
X96244134Y-121603806D01*
G37*
G36*
X104344134Y-121603806D02*
G01*
X104360355Y-121614645D01*
X104371194Y-121630866D01*
X104375000Y-121650000D01*
X104375000Y-122050000D01*
X104371194Y-122069134D01*
X104360355Y-122085355D01*
X104344134Y-122096194D01*
X104325000Y-122100000D01*
X103775000Y-122100000D01*
X103755866Y-122096194D01*
X103739645Y-122085355D01*
X103728806Y-122069134D01*
X103725000Y-122050000D01*
X103725000Y-121650000D01*
X103728806Y-121630866D01*
X103739645Y-121614645D01*
X103755866Y-121603806D01*
X103775000Y-121600000D01*
X104325000Y-121600000D01*
X104344134Y-121603806D01*
G37*
G36*
X109598662Y-120870075D02*
G01*
X109698972Y-120927989D01*
X109780876Y-121009893D01*
X109838790Y-121110203D01*
X109868769Y-121222086D01*
X109868769Y-121337914D01*
X109838790Y-121449797D01*
X109780876Y-121550107D01*
X109698972Y-121632011D01*
X109598662Y-121689925D01*
X109486779Y-121719904D01*
X109370951Y-121719904D01*
X109259068Y-121689925D01*
X109158758Y-121632011D01*
X109076854Y-121550107D01*
X109018940Y-121449797D01*
X108988961Y-121337914D01*
X108988961Y-121222086D01*
X109018940Y-121110203D01*
X109076854Y-121009893D01*
X109158758Y-120927989D01*
X109259068Y-120870075D01*
X109370951Y-120840096D01*
X109486779Y-120840096D01*
X109598662Y-120870075D01*
G37*
G36*
X110868662Y-120870075D02*
G01*
X110968972Y-120927989D01*
X111050876Y-121009893D01*
X111108790Y-121110203D01*
X111138769Y-121222086D01*
X111138769Y-121337914D01*
X111108790Y-121449797D01*
X111050876Y-121550107D01*
X110968972Y-121632011D01*
X110868662Y-121689925D01*
X110756779Y-121719904D01*
X110640951Y-121719904D01*
X110529068Y-121689925D01*
X110428758Y-121632011D01*
X110346854Y-121550107D01*
X110288940Y-121449797D01*
X110258961Y-121337914D01*
X110258961Y-121222086D01*
X110288940Y-121110203D01*
X110346854Y-121009893D01*
X110428758Y-120927989D01*
X110529068Y-120870075D01*
X110640951Y-120840096D01*
X110756779Y-120840096D01*
X110868662Y-120870075D01*
G37*
G36*
X104344134Y-120628806D02*
G01*
X104360355Y-120639645D01*
X104371194Y-120655866D01*
X104375000Y-120675000D01*
X104375000Y-121075000D01*
X104371194Y-121094134D01*
X104360355Y-121110355D01*
X104344134Y-121121194D01*
X104325000Y-121125000D01*
X103775000Y-121125000D01*
X103755866Y-121121194D01*
X103739645Y-121110355D01*
X103728806Y-121094134D01*
X103725000Y-121075000D01*
X103725000Y-120675000D01*
X103728806Y-120655866D01*
X103739645Y-120639645D01*
X103755866Y-120628806D01*
X103775000Y-120625000D01*
X104325000Y-120625000D01*
X104344134Y-120628806D01*
G37*
G36*
X103394134Y-120253806D02*
G01*
X103410355Y-120264645D01*
X103421194Y-120280866D01*
X103425000Y-120300000D01*
X103425000Y-120700000D01*
X103421194Y-120719134D01*
X103410355Y-120735355D01*
X103394134Y-120746194D01*
X103375000Y-120750000D01*
X102825000Y-120750000D01*
X102805866Y-120746194D01*
X102789645Y-120735355D01*
X102778806Y-120719134D01*
X102775000Y-120700000D01*
X102775000Y-120300000D01*
X102778806Y-120280866D01*
X102789645Y-120264645D01*
X102805866Y-120253806D01*
X102825000Y-120250000D01*
X103375000Y-120250000D01*
X103394134Y-120253806D01*
G37*
G36*
X109598662Y-119600075D02*
G01*
X109698972Y-119657989D01*
X109780876Y-119739893D01*
X109838790Y-119840203D01*
X109868769Y-119952086D01*
X109868769Y-120067914D01*
X109838790Y-120179797D01*
X109780876Y-120280107D01*
X109698972Y-120362011D01*
X109598662Y-120419925D01*
X109486779Y-120449904D01*
X109370951Y-120449904D01*
X109259068Y-120419925D01*
X109158758Y-120362011D01*
X109076854Y-120280107D01*
X109018940Y-120179797D01*
X108988961Y-120067914D01*
X108988961Y-119952086D01*
X109018940Y-119840203D01*
X109076854Y-119739893D01*
X109158758Y-119657989D01*
X109259068Y-119600075D01*
X109370951Y-119570096D01*
X109486779Y-119570096D01*
X109598662Y-119600075D01*
G37*
G36*
X110868662Y-119600075D02*
G01*
X110968972Y-119657989D01*
X111050876Y-119739893D01*
X111108790Y-119840203D01*
X111138769Y-119952086D01*
X111138769Y-120067914D01*
X111108790Y-120179797D01*
X111050876Y-120280107D01*
X110968972Y-120362011D01*
X110868662Y-120419925D01*
X110756779Y-120449904D01*
X110640951Y-120449904D01*
X110529068Y-120419925D01*
X110428758Y-120362011D01*
X110346854Y-120280107D01*
X110288940Y-120179797D01*
X110258961Y-120067914D01*
X110258961Y-119952086D01*
X110288940Y-119840203D01*
X110346854Y-119739893D01*
X110428758Y-119657989D01*
X110529068Y-119600075D01*
X110640951Y-119570096D01*
X110756779Y-119570096D01*
X110868662Y-119600075D01*
G37*
G36*
X104344134Y-119878806D02*
G01*
X104360355Y-119889645D01*
X104371194Y-119905866D01*
X104375000Y-119925000D01*
X104375000Y-120325000D01*
X104371194Y-120344134D01*
X104360355Y-120360355D01*
X104344134Y-120371194D01*
X104325000Y-120375000D01*
X103775000Y-120375000D01*
X103755866Y-120371194D01*
X103739645Y-120360355D01*
X103728806Y-120344134D01*
X103725000Y-120325000D01*
X103725000Y-119925000D01*
X103728806Y-119905866D01*
X103739645Y-119889645D01*
X103755866Y-119878806D01*
X103775000Y-119875000D01*
X104325000Y-119875000D01*
X104344134Y-119878806D01*
G37*
G36*
X100444134Y-119578806D02*
G01*
X100460355Y-119589645D01*
X100471194Y-119605866D01*
X100475000Y-119625000D01*
X100475000Y-120175000D01*
X100471194Y-120194134D01*
X100460355Y-120210355D01*
X100444134Y-120221194D01*
X100425000Y-120225000D01*
X100025000Y-120225000D01*
X100005866Y-120221194D01*
X99989645Y-120210355D01*
X99978806Y-120194134D01*
X99975000Y-120175000D01*
X99975000Y-119625000D01*
X99978806Y-119605866D01*
X99989645Y-119589645D01*
X100005866Y-119578806D01*
X100025000Y-119575000D01*
X100425000Y-119575000D01*
X100444134Y-119578806D01*
G37*
G36*
X101194134Y-119578806D02*
G01*
X101210355Y-119589645D01*
X101221194Y-119605866D01*
X101225000Y-119625000D01*
X101225000Y-120175000D01*
X101221194Y-120194134D01*
X101210355Y-120210355D01*
X101194134Y-120221194D01*
X101175000Y-120225000D01*
X100775000Y-120225000D01*
X100755866Y-120221194D01*
X100739645Y-120210355D01*
X100728806Y-120194134D01*
X100725000Y-120175000D01*
X100725000Y-119625000D01*
X100728806Y-119605866D01*
X100739645Y-119589645D01*
X100755866Y-119578806D01*
X100775000Y-119575000D01*
X101175000Y-119575000D01*
X101194134Y-119578806D01*
G37*
G36*
X101944134Y-119578806D02*
G01*
X101960355Y-119589645D01*
X101971194Y-119605866D01*
X101975000Y-119625000D01*
X101975000Y-120175000D01*
X101971194Y-120194134D01*
X101960355Y-120210355D01*
X101944134Y-120221194D01*
X101925000Y-120225000D01*
X101525000Y-120225000D01*
X101505866Y-120221194D01*
X101489645Y-120210355D01*
X101478806Y-120194134D01*
X101475000Y-120175000D01*
X101475000Y-119625000D01*
X101478806Y-119605866D01*
X101489645Y-119589645D01*
X101505866Y-119578806D01*
X101525000Y-119575000D01*
X101925000Y-119575000D01*
X101944134Y-119578806D01*
G37*
G36*
X102594134Y-119578806D02*
G01*
X102610355Y-119589645D01*
X102621194Y-119605866D01*
X102625000Y-119625000D01*
X102625000Y-120175000D01*
X102621194Y-120194134D01*
X102610355Y-120210355D01*
X102594134Y-120221194D01*
X102575000Y-120225000D01*
X102175000Y-120225000D01*
X102155866Y-120221194D01*
X102139645Y-120210355D01*
X102128806Y-120194134D01*
X102125000Y-120175000D01*
X102125000Y-119625000D01*
X102128806Y-119605866D01*
X102139645Y-119589645D01*
X102155866Y-119578806D01*
X102175000Y-119575000D01*
X102575000Y-119575000D01*
X102594134Y-119578806D01*
G37*
G36*
X103394134Y-119503806D02*
G01*
X103410355Y-119514645D01*
X103421194Y-119530866D01*
X103425000Y-119550000D01*
X103425000Y-119950000D01*
X103421194Y-119969134D01*
X103410355Y-119985355D01*
X103394134Y-119996194D01*
X103375000Y-120000000D01*
X102825000Y-120000000D01*
X102805866Y-119996194D01*
X102789645Y-119985355D01*
X102778806Y-119969134D01*
X102775000Y-119950000D01*
X102775000Y-119550000D01*
X102778806Y-119530866D01*
X102789645Y-119514645D01*
X102805866Y-119503806D01*
X102825000Y-119500000D01*
X103375000Y-119500000D01*
X103394134Y-119503806D01*
G37*
G36*
X90075796Y-119034082D02*
G01*
X90135815Y-119074185D01*
X90175918Y-119134204D01*
X90190000Y-119205000D01*
X90190000Y-119575000D01*
X90175918Y-119645796D01*
X90135815Y-119705815D01*
X90075796Y-119745918D01*
X90005000Y-119760000D01*
X89735000Y-119760000D01*
X89664204Y-119745918D01*
X89604185Y-119705815D01*
X89564082Y-119645796D01*
X89550000Y-119575000D01*
X89550000Y-119205000D01*
X89564082Y-119134204D01*
X89604185Y-119074185D01*
X89664204Y-119034082D01*
X89735000Y-119020000D01*
X90005000Y-119020000D01*
X90075796Y-119034082D01*
G37*
G36*
X91095796Y-119034082D02*
G01*
X91155815Y-119074185D01*
X91195918Y-119134204D01*
X91210000Y-119205000D01*
X91210000Y-119575000D01*
X91195918Y-119645796D01*
X91155815Y-119705815D01*
X91095796Y-119745918D01*
X91025000Y-119760000D01*
X90755000Y-119760000D01*
X90684204Y-119745918D01*
X90624185Y-119705815D01*
X90584082Y-119645796D01*
X90570000Y-119575000D01*
X90570000Y-119205000D01*
X90584082Y-119134204D01*
X90624185Y-119074185D01*
X90684204Y-119034082D01*
X90755000Y-119020000D01*
X91025000Y-119020000D01*
X91095796Y-119034082D01*
G37*
G36*
X92453080Y-119035034D02*
G01*
X92517154Y-119077846D01*
X92559966Y-119141920D01*
X92575000Y-119217500D01*
X92575000Y-119562500D01*
X92559966Y-119638080D01*
X92517154Y-119702154D01*
X92453080Y-119744966D01*
X92377500Y-119760000D01*
X92082500Y-119760000D01*
X92006920Y-119744966D01*
X91942846Y-119702154D01*
X91900034Y-119638080D01*
X91885000Y-119562500D01*
X91885000Y-119217500D01*
X91900034Y-119141920D01*
X91942846Y-119077846D01*
X92006920Y-119035034D01*
X92082500Y-119020000D01*
X92377500Y-119020000D01*
X92453080Y-119035034D01*
G37*
G36*
X93423080Y-119035034D02*
G01*
X93487154Y-119077846D01*
X93529966Y-119141920D01*
X93545000Y-119217500D01*
X93545000Y-119562500D01*
X93529966Y-119638080D01*
X93487154Y-119702154D01*
X93423080Y-119744966D01*
X93347500Y-119760000D01*
X93052500Y-119760000D01*
X92976920Y-119744966D01*
X92912846Y-119702154D01*
X92870034Y-119638080D01*
X92855000Y-119562500D01*
X92855000Y-119217500D01*
X92870034Y-119141920D01*
X92912846Y-119077846D01*
X92976920Y-119035034D01*
X93052500Y-119020000D01*
X93347500Y-119020000D01*
X93423080Y-119035034D01*
G37*
G36*
X96244134Y-119128806D02*
G01*
X96260355Y-119139645D01*
X96271194Y-119155866D01*
X96275000Y-119175000D01*
X96275000Y-119575000D01*
X96271194Y-119594134D01*
X96260355Y-119610355D01*
X96244134Y-119621194D01*
X96225000Y-119625000D01*
X95675000Y-119625000D01*
X95655866Y-119621194D01*
X95639645Y-119610355D01*
X95628806Y-119594134D01*
X95625000Y-119575000D01*
X95625000Y-119175000D01*
X95628806Y-119155866D01*
X95639645Y-119139645D01*
X95655866Y-119128806D01*
X95675000Y-119125000D01*
X96225000Y-119125000D01*
X96244134Y-119128806D01*
G37*
G36*
X104344134Y-119128806D02*
G01*
X104360355Y-119139645D01*
X104371194Y-119155866D01*
X104375000Y-119175000D01*
X104375000Y-119575000D01*
X104371194Y-119594134D01*
X104360355Y-119610355D01*
X104344134Y-119621194D01*
X104325000Y-119625000D01*
X103775000Y-119625000D01*
X103755866Y-119621194D01*
X103739645Y-119610355D01*
X103728806Y-119594134D01*
X103725000Y-119575000D01*
X103725000Y-119175000D01*
X103728806Y-119155866D01*
X103739645Y-119139645D01*
X103755866Y-119128806D01*
X103775000Y-119125000D01*
X104325000Y-119125000D01*
X104344134Y-119128806D01*
G37*
G36*
X97194134Y-118753806D02*
G01*
X97210355Y-118764645D01*
X97221194Y-118780866D01*
X97225000Y-118800000D01*
X97225000Y-119200000D01*
X97221194Y-119219134D01*
X97210355Y-119235355D01*
X97194134Y-119246194D01*
X97175000Y-119250000D01*
X96625000Y-119250000D01*
X96605866Y-119246194D01*
X96589645Y-119235355D01*
X96578806Y-119219134D01*
X96575000Y-119200000D01*
X96575000Y-118800000D01*
X96578806Y-118780866D01*
X96589645Y-118764645D01*
X96605866Y-118753806D01*
X96625000Y-118750000D01*
X97175000Y-118750000D01*
X97194134Y-118753806D01*
G37*
G36*
X103394134Y-118753806D02*
G01*
X103410355Y-118764645D01*
X103421194Y-118780866D01*
X103425000Y-118800000D01*
X103425000Y-119200000D01*
X103421194Y-119219134D01*
X103410355Y-119235355D01*
X103394134Y-119246194D01*
X103375000Y-119250000D01*
X102825000Y-119250000D01*
X102805866Y-119246194D01*
X102789645Y-119235355D01*
X102778806Y-119219134D01*
X102775000Y-119200000D01*
X102775000Y-118800000D01*
X102778806Y-118780866D01*
X102789645Y-118764645D01*
X102805866Y-118753806D01*
X102825000Y-118750000D01*
X103375000Y-118750000D01*
X103394134Y-118753806D01*
G37*
G36*
X109598662Y-118330075D02*
G01*
X109698972Y-118387989D01*
X109780876Y-118469893D01*
X109838790Y-118570203D01*
X109868769Y-118682086D01*
X109868769Y-118797914D01*
X109838790Y-118909797D01*
X109780876Y-119010107D01*
X109698972Y-119092011D01*
X109598662Y-119149925D01*
X109486779Y-119179904D01*
X109370951Y-119179904D01*
X109259068Y-119149925D01*
X109158758Y-119092011D01*
X109076854Y-119010107D01*
X109018940Y-118909797D01*
X108988961Y-118797914D01*
X108988961Y-118682086D01*
X109018940Y-118570203D01*
X109076854Y-118469893D01*
X109158758Y-118387989D01*
X109259068Y-118330075D01*
X109370951Y-118300096D01*
X109486779Y-118300096D01*
X109598662Y-118330075D01*
G37*
G36*
X110868662Y-118330075D02*
G01*
X110968972Y-118387989D01*
X111050876Y-118469893D01*
X111108790Y-118570203D01*
X111138769Y-118682086D01*
X111138769Y-118797914D01*
X111108790Y-118909797D01*
X111050876Y-119010107D01*
X110968972Y-119092011D01*
X110868662Y-119149925D01*
X110756779Y-119179904D01*
X110640951Y-119179904D01*
X110529068Y-119149925D01*
X110428758Y-119092011D01*
X110346854Y-119010107D01*
X110288940Y-118909797D01*
X110258961Y-118797914D01*
X110258961Y-118682086D01*
X110288940Y-118570203D01*
X110346854Y-118469893D01*
X110428758Y-118387989D01*
X110529068Y-118330075D01*
X110640951Y-118300096D01*
X110756779Y-118300096D01*
X110868662Y-118330075D01*
G37*
G36*
X96244134Y-118378806D02*
G01*
X96260355Y-118389645D01*
X96271194Y-118405866D01*
X96275000Y-118425000D01*
X96275000Y-118825000D01*
X96271194Y-118844134D01*
X96260355Y-118860355D01*
X96244134Y-118871194D01*
X96225000Y-118875000D01*
X95675000Y-118875000D01*
X95655866Y-118871194D01*
X95639645Y-118860355D01*
X95628806Y-118844134D01*
X95625000Y-118825000D01*
X95625000Y-118425000D01*
X95628806Y-118405866D01*
X95639645Y-118389645D01*
X95655866Y-118378806D01*
X95675000Y-118375000D01*
X96225000Y-118375000D01*
X96244134Y-118378806D01*
G37*
G36*
X104344134Y-118378806D02*
G01*
X104360355Y-118389645D01*
X104371194Y-118405866D01*
X104375000Y-118425000D01*
X104375000Y-118825000D01*
X104371194Y-118844134D01*
X104360355Y-118860355D01*
X104344134Y-118871194D01*
X104325000Y-118875000D01*
X103775000Y-118875000D01*
X103755866Y-118871194D01*
X103739645Y-118860355D01*
X103728806Y-118844134D01*
X103725000Y-118825000D01*
X103725000Y-118425000D01*
X103728806Y-118405866D01*
X103739645Y-118389645D01*
X103755866Y-118378806D01*
X103775000Y-118375000D01*
X104325000Y-118375000D01*
X104344134Y-118378806D01*
G37*
G36*
X97194134Y-118003806D02*
G01*
X97210355Y-118014645D01*
X97221194Y-118030866D01*
X97225000Y-118050000D01*
X97225000Y-118450000D01*
X97221194Y-118469134D01*
X97210355Y-118485355D01*
X97194134Y-118496194D01*
X97175000Y-118500000D01*
X96625000Y-118500000D01*
X96605866Y-118496194D01*
X96589645Y-118485355D01*
X96578806Y-118469134D01*
X96575000Y-118450000D01*
X96575000Y-118050000D01*
X96578806Y-118030866D01*
X96589645Y-118014645D01*
X96605866Y-118003806D01*
X96625000Y-118000000D01*
X97175000Y-118000000D01*
X97194134Y-118003806D01*
G37*
G36*
X103394134Y-118003806D02*
G01*
X103410355Y-118014645D01*
X103421194Y-118030866D01*
X103425000Y-118050000D01*
X103425000Y-118450000D01*
X103421194Y-118469134D01*
X103410355Y-118485355D01*
X103394134Y-118496194D01*
X103375000Y-118500000D01*
X102825000Y-118500000D01*
X102805866Y-118496194D01*
X102789645Y-118485355D01*
X102778806Y-118469134D01*
X102775000Y-118450000D01*
X102775000Y-118050000D01*
X102778806Y-118030866D01*
X102789645Y-118014645D01*
X102805866Y-118003806D01*
X102825000Y-118000000D01*
X103375000Y-118000000D01*
X103394134Y-118003806D01*
G37*
G36*
X96244134Y-117628806D02*
G01*
X96260355Y-117639645D01*
X96271194Y-117655866D01*
X96275000Y-117675000D01*
X96275000Y-118075000D01*
X96271194Y-118094134D01*
X96260355Y-118110355D01*
X96244134Y-118121194D01*
X96225000Y-118125000D01*
X95675000Y-118125000D01*
X95655866Y-118121194D01*
X95639645Y-118110355D01*
X95628806Y-118094134D01*
X95625000Y-118075000D01*
X95625000Y-117675000D01*
X95628806Y-117655866D01*
X95639645Y-117639645D01*
X95655866Y-117628806D01*
X95675000Y-117625000D01*
X96225000Y-117625000D01*
X96244134Y-117628806D01*
G37*
G36*
X104344134Y-117628806D02*
G01*
X104360355Y-117639645D01*
X104371194Y-117655866D01*
X104375000Y-117675000D01*
X104375000Y-118075000D01*
X104371194Y-118094134D01*
X104360355Y-118110355D01*
X104344134Y-118121194D01*
X104325000Y-118125000D01*
X103775000Y-118125000D01*
X103755866Y-118121194D01*
X103739645Y-118110355D01*
X103728806Y-118094134D01*
X103725000Y-118075000D01*
X103725000Y-117675000D01*
X103728806Y-117655866D01*
X103739645Y-117639645D01*
X103755866Y-117628806D01*
X103775000Y-117625000D01*
X104325000Y-117625000D01*
X104344134Y-117628806D01*
G37*
G36*
X109598662Y-117060075D02*
G01*
X109698972Y-117117989D01*
X109780876Y-117199893D01*
X109838790Y-117300203D01*
X109868769Y-117412086D01*
X109868769Y-117527914D01*
X109838790Y-117639797D01*
X109780876Y-117740107D01*
X109698972Y-117822011D01*
X109598662Y-117879925D01*
X109486779Y-117909904D01*
X109370951Y-117909904D01*
X109259068Y-117879925D01*
X109158758Y-117822011D01*
X109076854Y-117740107D01*
X109018940Y-117639797D01*
X108988961Y-117527914D01*
X108988961Y-117412086D01*
X109018940Y-117300203D01*
X109076854Y-117199893D01*
X109158758Y-117117989D01*
X109259068Y-117060075D01*
X109370951Y-117030096D01*
X109486779Y-117030096D01*
X109598662Y-117060075D01*
G37*
G36*
X110868662Y-117060075D02*
G01*
X110968972Y-117117989D01*
X111050876Y-117199893D01*
X111108790Y-117300203D01*
X111138769Y-117412086D01*
X111138769Y-117527914D01*
X111108790Y-117639797D01*
X111050876Y-117740107D01*
X110968972Y-117822011D01*
X110868662Y-117879925D01*
X110756779Y-117909904D01*
X110640951Y-117909904D01*
X110529068Y-117879925D01*
X110428758Y-117822011D01*
X110346854Y-117740107D01*
X110288940Y-117639797D01*
X110258961Y-117527914D01*
X110258961Y-117412086D01*
X110288940Y-117300203D01*
X110346854Y-117199893D01*
X110428758Y-117117989D01*
X110529068Y-117060075D01*
X110640951Y-117030096D01*
X110756779Y-117030096D01*
X110868662Y-117060075D01*
G37*
G36*
X97194134Y-117253806D02*
G01*
X97210355Y-117264645D01*
X97221194Y-117280866D01*
X97225000Y-117300000D01*
X97225000Y-117700000D01*
X97221194Y-117719134D01*
X97210355Y-117735355D01*
X97194134Y-117746194D01*
X97175000Y-117750000D01*
X96625000Y-117750000D01*
X96605866Y-117746194D01*
X96589645Y-117735355D01*
X96578806Y-117719134D01*
X96575000Y-117700000D01*
X96575000Y-117300000D01*
X96578806Y-117280866D01*
X96589645Y-117264645D01*
X96605866Y-117253806D01*
X96625000Y-117250000D01*
X97175000Y-117250000D01*
X97194134Y-117253806D01*
G37*
G36*
X103394134Y-117253806D02*
G01*
X103410355Y-117264645D01*
X103421194Y-117280866D01*
X103425000Y-117300000D01*
X103425000Y-117700000D01*
X103421194Y-117719134D01*
X103410355Y-117735355D01*
X103394134Y-117746194D01*
X103375000Y-117750000D01*
X102825000Y-117750000D01*
X102805866Y-117746194D01*
X102789645Y-117735355D01*
X102778806Y-117719134D01*
X102775000Y-117700000D01*
X102775000Y-117300000D01*
X102778806Y-117280866D01*
X102789645Y-117264645D01*
X102805866Y-117253806D01*
X102825000Y-117250000D01*
X103375000Y-117250000D01*
X103394134Y-117253806D01*
G37*
G36*
X96244134Y-116878806D02*
G01*
X96260355Y-116889645D01*
X96271194Y-116905866D01*
X96275000Y-116925000D01*
X96275000Y-117325000D01*
X96271194Y-117344134D01*
X96260355Y-117360355D01*
X96244134Y-117371194D01*
X96225000Y-117375000D01*
X95675000Y-117375000D01*
X95655866Y-117371194D01*
X95639645Y-117360355D01*
X95628806Y-117344134D01*
X95625000Y-117325000D01*
X95625000Y-116925000D01*
X95628806Y-116905866D01*
X95639645Y-116889645D01*
X95655866Y-116878806D01*
X95675000Y-116875000D01*
X96225000Y-116875000D01*
X96244134Y-116878806D01*
G37*
G36*
X104344134Y-116878806D02*
G01*
X104360355Y-116889645D01*
X104371194Y-116905866D01*
X104375000Y-116925000D01*
X104375000Y-117325000D01*
X104371194Y-117344134D01*
X104360355Y-117360355D01*
X104344134Y-117371194D01*
X104325000Y-117375000D01*
X103775000Y-117375000D01*
X103755866Y-117371194D01*
X103739645Y-117360355D01*
X103728806Y-117344134D01*
X103725000Y-117325000D01*
X103725000Y-116925000D01*
X103728806Y-116905866D01*
X103739645Y-116889645D01*
X103755866Y-116878806D01*
X103775000Y-116875000D01*
X104325000Y-116875000D01*
X104344134Y-116878806D01*
G37*
G36*
X90075796Y-116524082D02*
G01*
X90135815Y-116564185D01*
X90175918Y-116624204D01*
X90190000Y-116695000D01*
X90190000Y-117065000D01*
X90175918Y-117135796D01*
X90135815Y-117195815D01*
X90075796Y-117235918D01*
X90005000Y-117250000D01*
X89735000Y-117250000D01*
X89664204Y-117235918D01*
X89604185Y-117195815D01*
X89564082Y-117135796D01*
X89550000Y-117065000D01*
X89550000Y-116695000D01*
X89564082Y-116624204D01*
X89604185Y-116564185D01*
X89664204Y-116524082D01*
X89735000Y-116510000D01*
X90005000Y-116510000D01*
X90075796Y-116524082D01*
G37*
G36*
X91095796Y-116524082D02*
G01*
X91155815Y-116564185D01*
X91195918Y-116624204D01*
X91210000Y-116695000D01*
X91210000Y-117065000D01*
X91195918Y-117135796D01*
X91155815Y-117195815D01*
X91095796Y-117235918D01*
X91025000Y-117250000D01*
X90755000Y-117250000D01*
X90684204Y-117235918D01*
X90624185Y-117195815D01*
X90584082Y-117135796D01*
X90570000Y-117065000D01*
X90570000Y-116695000D01*
X90584082Y-116624204D01*
X90624185Y-116564185D01*
X90684204Y-116524082D01*
X90755000Y-116510000D01*
X91025000Y-116510000D01*
X91095796Y-116524082D01*
G37*
G36*
X92453080Y-116525034D02*
G01*
X92517154Y-116567846D01*
X92559966Y-116631920D01*
X92575000Y-116707500D01*
X92575000Y-117052500D01*
X92559966Y-117128080D01*
X92517154Y-117192154D01*
X92453080Y-117234966D01*
X92377500Y-117250000D01*
X92082500Y-117250000D01*
X92006920Y-117234966D01*
X91942846Y-117192154D01*
X91900034Y-117128080D01*
X91885000Y-117052500D01*
X91885000Y-116707500D01*
X91900034Y-116631920D01*
X91942846Y-116567846D01*
X92006920Y-116525034D01*
X92082500Y-116510000D01*
X92377500Y-116510000D01*
X92453080Y-116525034D01*
G37*
G36*
X93423080Y-116525034D02*
G01*
X93487154Y-116567846D01*
X93529966Y-116631920D01*
X93545000Y-116707500D01*
X93545000Y-117052500D01*
X93529966Y-117128080D01*
X93487154Y-117192154D01*
X93423080Y-117234966D01*
X93347500Y-117250000D01*
X93052500Y-117250000D01*
X92976920Y-117234966D01*
X92912846Y-117192154D01*
X92870034Y-117128080D01*
X92855000Y-117052500D01*
X92855000Y-116707500D01*
X92870034Y-116631920D01*
X92912846Y-116567846D01*
X92976920Y-116525034D01*
X93052500Y-116510000D01*
X93347500Y-116510000D01*
X93423080Y-116525034D01*
G37*
G36*
X97194134Y-116503806D02*
G01*
X97210355Y-116514645D01*
X97221194Y-116530866D01*
X97225000Y-116550000D01*
X97225000Y-116950000D01*
X97221194Y-116969134D01*
X97210355Y-116985355D01*
X97194134Y-116996194D01*
X97175000Y-117000000D01*
X96625000Y-117000000D01*
X96605866Y-116996194D01*
X96589645Y-116985355D01*
X96578806Y-116969134D01*
X96575000Y-116950000D01*
X96575000Y-116550000D01*
X96578806Y-116530866D01*
X96589645Y-116514645D01*
X96605866Y-116503806D01*
X96625000Y-116500000D01*
X97175000Y-116500000D01*
X97194134Y-116503806D01*
G37*
G36*
X103394134Y-116503806D02*
G01*
X103410355Y-116514645D01*
X103421194Y-116530866D01*
X103425000Y-116550000D01*
X103425000Y-116950000D01*
X103421194Y-116969134D01*
X103410355Y-116985355D01*
X103394134Y-116996194D01*
X103375000Y-117000000D01*
X102825000Y-117000000D01*
X102805866Y-116996194D01*
X102789645Y-116985355D01*
X102778806Y-116969134D01*
X102775000Y-116950000D01*
X102775000Y-116550000D01*
X102778806Y-116530866D01*
X102789645Y-116514645D01*
X102805866Y-116503806D01*
X102825000Y-116500000D01*
X103375000Y-116500000D01*
X103394134Y-116503806D01*
G37*
G36*
X109598662Y-115790075D02*
G01*
X109698972Y-115847989D01*
X109780876Y-115929893D01*
X109838790Y-116030203D01*
X109868769Y-116142086D01*
X109868769Y-116257914D01*
X109838790Y-116369797D01*
X109780876Y-116470107D01*
X109698972Y-116552011D01*
X109598662Y-116609925D01*
X109486779Y-116639904D01*
X109370951Y-116639904D01*
X109259068Y-116609925D01*
X109158758Y-116552011D01*
X109076854Y-116470107D01*
X109018940Y-116369797D01*
X108988961Y-116257914D01*
X108988961Y-116142086D01*
X109018940Y-116030203D01*
X109076854Y-115929893D01*
X109158758Y-115847989D01*
X109259068Y-115790075D01*
X109370951Y-115760096D01*
X109486779Y-115760096D01*
X109598662Y-115790075D01*
G37*
G36*
X110868662Y-115790075D02*
G01*
X110968972Y-115847989D01*
X111050876Y-115929893D01*
X111108790Y-116030203D01*
X111138769Y-116142086D01*
X111138769Y-116257914D01*
X111108790Y-116369797D01*
X111050876Y-116470107D01*
X110968972Y-116552011D01*
X110868662Y-116609925D01*
X110756779Y-116639904D01*
X110640951Y-116639904D01*
X110529068Y-116609925D01*
X110428758Y-116552011D01*
X110346854Y-116470107D01*
X110288940Y-116369797D01*
X110258961Y-116257914D01*
X110258961Y-116142086D01*
X110288940Y-116030203D01*
X110346854Y-115929893D01*
X110428758Y-115847989D01*
X110529068Y-115790075D01*
X110640951Y-115760096D01*
X110756779Y-115760096D01*
X110868662Y-115790075D01*
G37*
G36*
X96244134Y-116128806D02*
G01*
X96260355Y-116139645D01*
X96271194Y-116155866D01*
X96275000Y-116175000D01*
X96275000Y-116575000D01*
X96271194Y-116594134D01*
X96260355Y-116610355D01*
X96244134Y-116621194D01*
X96225000Y-116625000D01*
X95675000Y-116625000D01*
X95655866Y-116621194D01*
X95639645Y-116610355D01*
X95628806Y-116594134D01*
X95625000Y-116575000D01*
X95625000Y-116175000D01*
X95628806Y-116155866D01*
X95639645Y-116139645D01*
X95655866Y-116128806D01*
X95675000Y-116125000D01*
X96225000Y-116125000D01*
X96244134Y-116128806D01*
G37*
G36*
X104344134Y-116128806D02*
G01*
X104360355Y-116139645D01*
X104371194Y-116155866D01*
X104375000Y-116175000D01*
X104375000Y-116575000D01*
X104371194Y-116594134D01*
X104360355Y-116610355D01*
X104344134Y-116621194D01*
X104325000Y-116625000D01*
X103775000Y-116625000D01*
X103755866Y-116621194D01*
X103739645Y-116610355D01*
X103728806Y-116594134D01*
X103725000Y-116575000D01*
X103725000Y-116175000D01*
X103728806Y-116155866D01*
X103739645Y-116139645D01*
X103755866Y-116128806D01*
X103775000Y-116125000D01*
X104325000Y-116125000D01*
X104344134Y-116128806D01*
G37*
G36*
X97194134Y-115753806D02*
G01*
X97210355Y-115764645D01*
X97221194Y-115780866D01*
X97225000Y-115800000D01*
X97225000Y-116200000D01*
X97221194Y-116219134D01*
X97210355Y-116235355D01*
X97194134Y-116246194D01*
X97175000Y-116250000D01*
X96625000Y-116250000D01*
X96605866Y-116246194D01*
X96589645Y-116235355D01*
X96578806Y-116219134D01*
X96575000Y-116200000D01*
X96575000Y-115800000D01*
X96578806Y-115780866D01*
X96589645Y-115764645D01*
X96605866Y-115753806D01*
X96625000Y-115750000D01*
X97175000Y-115750000D01*
X97194134Y-115753806D01*
G37*
G36*
X103394134Y-115753806D02*
G01*
X103410355Y-115764645D01*
X103421194Y-115780866D01*
X103425000Y-115800000D01*
X103425000Y-116200000D01*
X103421194Y-116219134D01*
X103410355Y-116235355D01*
X103394134Y-116246194D01*
X103375000Y-116250000D01*
X102825000Y-116250000D01*
X102805866Y-116246194D01*
X102789645Y-116235355D01*
X102778806Y-116219134D01*
X102775000Y-116200000D01*
X102775000Y-115800000D01*
X102778806Y-115780866D01*
X102789645Y-115764645D01*
X102805866Y-115753806D01*
X102825000Y-115750000D01*
X103375000Y-115750000D01*
X103394134Y-115753806D01*
G37*
G36*
X96244134Y-115378806D02*
G01*
X96260355Y-115389645D01*
X96271194Y-115405866D01*
X96275000Y-115425000D01*
X96275000Y-115825000D01*
X96271194Y-115844134D01*
X96260355Y-115860355D01*
X96244134Y-115871194D01*
X96225000Y-115875000D01*
X95675000Y-115875000D01*
X95655866Y-115871194D01*
X95639645Y-115860355D01*
X95628806Y-115844134D01*
X95625000Y-115825000D01*
X95625000Y-115425000D01*
X95628806Y-115405866D01*
X95639645Y-115389645D01*
X95655866Y-115378806D01*
X95675000Y-115375000D01*
X96225000Y-115375000D01*
X96244134Y-115378806D01*
G37*
G36*
X104344134Y-115378806D02*
G01*
X104360355Y-115389645D01*
X104371194Y-115405866D01*
X104375000Y-115425000D01*
X104375000Y-115825000D01*
X104371194Y-115844134D01*
X104360355Y-115860355D01*
X104344134Y-115871194D01*
X104325000Y-115875000D01*
X103775000Y-115875000D01*
X103755866Y-115871194D01*
X103739645Y-115860355D01*
X103728806Y-115844134D01*
X103725000Y-115825000D01*
X103725000Y-115425000D01*
X103728806Y-115405866D01*
X103739645Y-115389645D01*
X103755866Y-115378806D01*
X103775000Y-115375000D01*
X104325000Y-115375000D01*
X104344134Y-115378806D01*
G37*
G36*
X97194134Y-115003806D02*
G01*
X97210355Y-115014645D01*
X97221194Y-115030866D01*
X97225000Y-115050000D01*
X97225000Y-115450000D01*
X97221194Y-115469134D01*
X97210355Y-115485355D01*
X97194134Y-115496194D01*
X97175000Y-115500000D01*
X96625000Y-115500000D01*
X96605866Y-115496194D01*
X96589645Y-115485355D01*
X96578806Y-115469134D01*
X96575000Y-115450000D01*
X96575000Y-115050000D01*
X96578806Y-115030866D01*
X96589645Y-115014645D01*
X96605866Y-115003806D01*
X96625000Y-115000000D01*
X97175000Y-115000000D01*
X97194134Y-115003806D01*
G37*
G36*
X103394134Y-115003806D02*
G01*
X103410355Y-115014645D01*
X103421194Y-115030866D01*
X103425000Y-115050000D01*
X103425000Y-115450000D01*
X103421194Y-115469134D01*
X103410355Y-115485355D01*
X103394134Y-115496194D01*
X103375000Y-115500000D01*
X102825000Y-115500000D01*
X102805866Y-115496194D01*
X102789645Y-115485355D01*
X102778806Y-115469134D01*
X102775000Y-115450000D01*
X102775000Y-115050000D01*
X102778806Y-115030866D01*
X102789645Y-115014645D01*
X102805866Y-115003806D01*
X102825000Y-115000000D01*
X103375000Y-115000000D01*
X103394134Y-115003806D01*
G37*
G36*
X110272542Y-114426208D02*
G01*
X110395823Y-114497384D01*
X110496481Y-114598042D01*
X110567657Y-114721323D01*
X110604500Y-114858824D01*
X110604500Y-115001176D01*
X110567657Y-115138677D01*
X110496481Y-115261958D01*
X110395823Y-115362616D01*
X110272542Y-115433792D01*
X110135041Y-115470635D01*
X109992689Y-115470635D01*
X109855188Y-115433792D01*
X109731907Y-115362616D01*
X109631249Y-115261958D01*
X109560073Y-115138677D01*
X109523230Y-115001176D01*
X109523230Y-114858824D01*
X109560073Y-114721323D01*
X109631249Y-114598042D01*
X109731907Y-114497384D01*
X109855188Y-114426208D01*
X109992689Y-114389365D01*
X110135041Y-114389365D01*
X110272542Y-114426208D01*
G37*
G36*
X96244134Y-114628806D02*
G01*
X96260355Y-114639645D01*
X96271194Y-114655866D01*
X96275000Y-114675000D01*
X96275000Y-115075000D01*
X96271194Y-115094134D01*
X96260355Y-115110355D01*
X96244134Y-115121194D01*
X96225000Y-115125000D01*
X95675000Y-115125000D01*
X95655866Y-115121194D01*
X95639645Y-115110355D01*
X95628806Y-115094134D01*
X95625000Y-115075000D01*
X95625000Y-114675000D01*
X95628806Y-114655866D01*
X95639645Y-114639645D01*
X95655866Y-114628806D01*
X95675000Y-114625000D01*
X96225000Y-114625000D01*
X96244134Y-114628806D01*
G37*
G36*
X104344134Y-114628806D02*
G01*
X104360355Y-114639645D01*
X104371194Y-114655866D01*
X104375000Y-114675000D01*
X104375000Y-115075000D01*
X104371194Y-115094134D01*
X104360355Y-115110355D01*
X104344134Y-115121194D01*
X104325000Y-115125000D01*
X103775000Y-115125000D01*
X103755866Y-115121194D01*
X103739645Y-115110355D01*
X103728806Y-115094134D01*
X103725000Y-115075000D01*
X103725000Y-114675000D01*
X103728806Y-114655866D01*
X103739645Y-114639645D01*
X103755866Y-114628806D01*
X103775000Y-114625000D01*
X104325000Y-114625000D01*
X104344134Y-114628806D01*
G37*
G36*
X97194134Y-114253806D02*
G01*
X97210355Y-114264645D01*
X97221194Y-114280866D01*
X97225000Y-114300000D01*
X97225000Y-114700000D01*
X97221194Y-114719134D01*
X97210355Y-114735355D01*
X97194134Y-114746194D01*
X97175000Y-114750000D01*
X96625000Y-114750000D01*
X96605866Y-114746194D01*
X96589645Y-114735355D01*
X96578806Y-114719134D01*
X96575000Y-114700000D01*
X96575000Y-114300000D01*
X96578806Y-114280866D01*
X96589645Y-114264645D01*
X96605866Y-114253806D01*
X96625000Y-114250000D01*
X97175000Y-114250000D01*
X97194134Y-114253806D01*
G37*
G36*
X103394134Y-114253806D02*
G01*
X103410355Y-114264645D01*
X103421194Y-114280866D01*
X103425000Y-114300000D01*
X103425000Y-114700000D01*
X103421194Y-114719134D01*
X103410355Y-114735355D01*
X103394134Y-114746194D01*
X103375000Y-114750000D01*
X102825000Y-114750000D01*
X102805866Y-114746194D01*
X102789645Y-114735355D01*
X102778806Y-114719134D01*
X102775000Y-114700000D01*
X102775000Y-114300000D01*
X102778806Y-114280866D01*
X102789645Y-114264645D01*
X102805866Y-114253806D01*
X102825000Y-114250000D01*
X103375000Y-114250000D01*
X103394134Y-114253806D01*
G37*
G36*
X96244134Y-113878806D02*
G01*
X96260355Y-113889645D01*
X96271194Y-113905866D01*
X96275000Y-113925000D01*
X96275000Y-114325000D01*
X96271194Y-114344134D01*
X96260355Y-114360355D01*
X96244134Y-114371194D01*
X96225000Y-114375000D01*
X95675000Y-114375000D01*
X95655866Y-114371194D01*
X95639645Y-114360355D01*
X95628806Y-114344134D01*
X95625000Y-114325000D01*
X95625000Y-113925000D01*
X95628806Y-113905866D01*
X95639645Y-113889645D01*
X95655866Y-113878806D01*
X95675000Y-113875000D01*
X96225000Y-113875000D01*
X96244134Y-113878806D01*
G37*
G36*
X104344134Y-113878806D02*
G01*
X104360355Y-113889645D01*
X104371194Y-113905866D01*
X104375000Y-113925000D01*
X104375000Y-114325000D01*
X104371194Y-114344134D01*
X104360355Y-114360355D01*
X104344134Y-114371194D01*
X104325000Y-114375000D01*
X103775000Y-114375000D01*
X103755866Y-114371194D01*
X103739645Y-114360355D01*
X103728806Y-114344134D01*
X103725000Y-114325000D01*
X103725000Y-113925000D01*
X103728806Y-113905866D01*
X103739645Y-113889645D01*
X103755866Y-113878806D01*
X103775000Y-113875000D01*
X104325000Y-113875000D01*
X104344134Y-113878806D01*
G37*
G36*
X97194134Y-113503806D02*
G01*
X97210355Y-113514645D01*
X97221194Y-113530866D01*
X97225000Y-113550000D01*
X97225000Y-113950000D01*
X97221194Y-113969134D01*
X97210355Y-113985355D01*
X97194134Y-113996194D01*
X97175000Y-114000000D01*
X96625000Y-114000000D01*
X96605866Y-113996194D01*
X96589645Y-113985355D01*
X96578806Y-113969134D01*
X96575000Y-113950000D01*
X96575000Y-113550000D01*
X96578806Y-113530866D01*
X96589645Y-113514645D01*
X96605866Y-113503806D01*
X96625000Y-113500000D01*
X97175000Y-113500000D01*
X97194134Y-113503806D01*
G37*
G36*
X103394134Y-113503806D02*
G01*
X103410355Y-113514645D01*
X103421194Y-113530866D01*
X103425000Y-113550000D01*
X103425000Y-113950000D01*
X103421194Y-113969134D01*
X103410355Y-113985355D01*
X103394134Y-113996194D01*
X103375000Y-114000000D01*
X102825000Y-114000000D01*
X102805866Y-113996194D01*
X102789645Y-113985355D01*
X102778806Y-113969134D01*
X102775000Y-113950000D01*
X102775000Y-113550000D01*
X102778806Y-113530866D01*
X102789645Y-113514645D01*
X102805866Y-113503806D01*
X102825000Y-113500000D01*
X103375000Y-113500000D01*
X103394134Y-113503806D01*
G37*
G36*
X96244134Y-113128806D02*
G01*
X96260355Y-113139645D01*
X96271194Y-113155866D01*
X96275000Y-113175000D01*
X96275000Y-113575000D01*
X96271194Y-113594134D01*
X96260355Y-113610355D01*
X96244134Y-113621194D01*
X96225000Y-113625000D01*
X95675000Y-113625000D01*
X95655866Y-113621194D01*
X95639645Y-113610355D01*
X95628806Y-113594134D01*
X95625000Y-113575000D01*
X95625000Y-113175000D01*
X95628806Y-113155866D01*
X95639645Y-113139645D01*
X95655866Y-113128806D01*
X95675000Y-113125000D01*
X96225000Y-113125000D01*
X96244134Y-113128806D01*
G37*
G36*
X104344134Y-113128806D02*
G01*
X104360355Y-113139645D01*
X104371194Y-113155866D01*
X104375000Y-113175000D01*
X104375000Y-113575000D01*
X104371194Y-113594134D01*
X104360355Y-113610355D01*
X104344134Y-113621194D01*
X104325000Y-113625000D01*
X103775000Y-113625000D01*
X103755866Y-113621194D01*
X103739645Y-113610355D01*
X103728806Y-113594134D01*
X103725000Y-113575000D01*
X103725000Y-113175000D01*
X103728806Y-113155866D01*
X103739645Y-113139645D01*
X103755866Y-113128806D01*
X103775000Y-113125000D01*
X104325000Y-113125000D01*
X104344134Y-113128806D01*
G37*
G36*
X97969134Y-112678806D02*
G01*
X97985355Y-112689645D01*
X97996194Y-112705866D01*
X98000000Y-112725000D01*
X98000000Y-113275000D01*
X97996194Y-113294134D01*
X97985355Y-113310355D01*
X97969134Y-113321194D01*
X97950000Y-113325000D01*
X97550000Y-113325000D01*
X97530866Y-113321194D01*
X97514645Y-113310355D01*
X97503806Y-113294134D01*
X97500000Y-113275000D01*
X97500000Y-112725000D01*
X97503806Y-112705866D01*
X97514645Y-112689645D01*
X97530866Y-112678806D01*
X97550000Y-112675000D01*
X97950000Y-112675000D01*
X97969134Y-112678806D01*
G37*
G36*
X98719134Y-112678806D02*
G01*
X98735355Y-112689645D01*
X98746194Y-112705866D01*
X98750000Y-112725000D01*
X98750000Y-113275000D01*
X98746194Y-113294134D01*
X98735355Y-113310355D01*
X98719134Y-113321194D01*
X98700000Y-113325000D01*
X98300000Y-113325000D01*
X98280866Y-113321194D01*
X98264645Y-113310355D01*
X98253806Y-113294134D01*
X98250000Y-113275000D01*
X98250000Y-112725000D01*
X98253806Y-112705866D01*
X98264645Y-112689645D01*
X98280866Y-112678806D01*
X98300000Y-112675000D01*
X98700000Y-112675000D01*
X98719134Y-112678806D01*
G37*
G36*
X99469134Y-112678806D02*
G01*
X99485355Y-112689645D01*
X99496194Y-112705866D01*
X99500000Y-112725000D01*
X99500000Y-113275000D01*
X99496194Y-113294134D01*
X99485355Y-113310355D01*
X99469134Y-113321194D01*
X99450000Y-113325000D01*
X99050000Y-113325000D01*
X99030866Y-113321194D01*
X99014645Y-113310355D01*
X99003806Y-113294134D01*
X99000000Y-113275000D01*
X99000000Y-112725000D01*
X99003806Y-112705866D01*
X99014645Y-112689645D01*
X99030866Y-112678806D01*
X99050000Y-112675000D01*
X99450000Y-112675000D01*
X99469134Y-112678806D01*
G37*
G36*
X100219134Y-112678806D02*
G01*
X100235355Y-112689645D01*
X100246194Y-112705866D01*
X100250000Y-112725000D01*
X100250000Y-113275000D01*
X100246194Y-113294134D01*
X100235355Y-113310355D01*
X100219134Y-113321194D01*
X100200000Y-113325000D01*
X99800000Y-113325000D01*
X99780866Y-113321194D01*
X99764645Y-113310355D01*
X99753806Y-113294134D01*
X99750000Y-113275000D01*
X99750000Y-112725000D01*
X99753806Y-112705866D01*
X99764645Y-112689645D01*
X99780866Y-112678806D01*
X99800000Y-112675000D01*
X100200000Y-112675000D01*
X100219134Y-112678806D01*
G37*
G36*
X100969134Y-112678806D02*
G01*
X100985355Y-112689645D01*
X100996194Y-112705866D01*
X101000000Y-112725000D01*
X101000000Y-113275000D01*
X100996194Y-113294134D01*
X100985355Y-113310355D01*
X100969134Y-113321194D01*
X100950000Y-113325000D01*
X100550000Y-113325000D01*
X100530866Y-113321194D01*
X100514645Y-113310355D01*
X100503806Y-113294134D01*
X100500000Y-113275000D01*
X100500000Y-112725000D01*
X100503806Y-112705866D01*
X100514645Y-112689645D01*
X100530866Y-112678806D01*
X100550000Y-112675000D01*
X100950000Y-112675000D01*
X100969134Y-112678806D01*
G37*
G36*
X101719134Y-112678806D02*
G01*
X101735355Y-112689645D01*
X101746194Y-112705866D01*
X101750000Y-112725000D01*
X101750000Y-113275000D01*
X101746194Y-113294134D01*
X101735355Y-113310355D01*
X101719134Y-113321194D01*
X101700000Y-113325000D01*
X101300000Y-113325000D01*
X101280866Y-113321194D01*
X101264645Y-113310355D01*
X101253806Y-113294134D01*
X101250000Y-113275000D01*
X101250000Y-112725000D01*
X101253806Y-112705866D01*
X101264645Y-112689645D01*
X101280866Y-112678806D01*
X101300000Y-112675000D01*
X101700000Y-112675000D01*
X101719134Y-112678806D01*
G37*
G36*
X102469134Y-112678806D02*
G01*
X102485355Y-112689645D01*
X102496194Y-112705866D01*
X102500000Y-112725000D01*
X102500000Y-113275000D01*
X102496194Y-113294134D01*
X102485355Y-113310355D01*
X102469134Y-113321194D01*
X102450000Y-113325000D01*
X102050000Y-113325000D01*
X102030866Y-113321194D01*
X102014645Y-113310355D01*
X102003806Y-113294134D01*
X102000000Y-113275000D01*
X102000000Y-112725000D01*
X102003806Y-112705866D01*
X102014645Y-112689645D01*
X102030866Y-112678806D01*
X102050000Y-112675000D01*
X102450000Y-112675000D01*
X102469134Y-112678806D01*
G37*
G36*
X97194134Y-112753806D02*
G01*
X97210355Y-112764645D01*
X97221194Y-112780866D01*
X97225000Y-112800000D01*
X97225000Y-113200000D01*
X97221194Y-113219134D01*
X97210355Y-113235355D01*
X97194134Y-113246194D01*
X97175000Y-113250000D01*
X96625000Y-113250000D01*
X96605866Y-113246194D01*
X96589645Y-113235355D01*
X96578806Y-113219134D01*
X96575000Y-113200000D01*
X96575000Y-112800000D01*
X96578806Y-112780866D01*
X96589645Y-112764645D01*
X96605866Y-112753806D01*
X96625000Y-112750000D01*
X97175000Y-112750000D01*
X97194134Y-112753806D01*
G37*
G36*
X103394134Y-112753806D02*
G01*
X103410355Y-112764645D01*
X103421194Y-112780866D01*
X103425000Y-112800000D01*
X103425000Y-113200000D01*
X103421194Y-113219134D01*
X103410355Y-113235355D01*
X103394134Y-113246194D01*
X103375000Y-113250000D01*
X102825000Y-113250000D01*
X102805866Y-113246194D01*
X102789645Y-113235355D01*
X102778806Y-113219134D01*
X102775000Y-113200000D01*
X102775000Y-112800000D01*
X102778806Y-112780866D01*
X102789645Y-112764645D01*
X102805866Y-112753806D01*
X102825000Y-112750000D01*
X103375000Y-112750000D01*
X103394134Y-112753806D01*
G37*
G36*
X96094134Y-111728806D02*
G01*
X96110355Y-111739645D01*
X96121194Y-111755866D01*
X96125000Y-111775000D01*
X96125000Y-112325000D01*
X96121194Y-112344134D01*
X96110355Y-112360355D01*
X96094134Y-112371194D01*
X96075000Y-112375000D01*
X95675000Y-112375000D01*
X95655866Y-112371194D01*
X95639645Y-112360355D01*
X95628806Y-112344134D01*
X95625000Y-112325000D01*
X95625000Y-111775000D01*
X95628806Y-111755866D01*
X95639645Y-111739645D01*
X95655866Y-111728806D01*
X95675000Y-111725000D01*
X96075000Y-111725000D01*
X96094134Y-111728806D01*
G37*
G36*
X96844134Y-111728806D02*
G01*
X96860355Y-111739645D01*
X96871194Y-111755866D01*
X96875000Y-111775000D01*
X96875000Y-112325000D01*
X96871194Y-112344134D01*
X96860355Y-112360355D01*
X96844134Y-112371194D01*
X96825000Y-112375000D01*
X96425000Y-112375000D01*
X96405866Y-112371194D01*
X96389645Y-112360355D01*
X96378806Y-112344134D01*
X96375000Y-112325000D01*
X96375000Y-111775000D01*
X96378806Y-111755866D01*
X96389645Y-111739645D01*
X96405866Y-111728806D01*
X96425000Y-111725000D01*
X96825000Y-111725000D01*
X96844134Y-111728806D01*
G37*
G36*
X97594134Y-111728806D02*
G01*
X97610355Y-111739645D01*
X97621194Y-111755866D01*
X97625000Y-111775000D01*
X97625000Y-112325000D01*
X97621194Y-112344134D01*
X97610355Y-112360355D01*
X97594134Y-112371194D01*
X97575000Y-112375000D01*
X97175000Y-112375000D01*
X97155866Y-112371194D01*
X97139645Y-112360355D01*
X97128806Y-112344134D01*
X97125000Y-112325000D01*
X97125000Y-111775000D01*
X97128806Y-111755866D01*
X97139645Y-111739645D01*
X97155866Y-111728806D01*
X97175000Y-111725000D01*
X97575000Y-111725000D01*
X97594134Y-111728806D01*
G37*
G36*
X98344134Y-111728806D02*
G01*
X98360355Y-111739645D01*
X98371194Y-111755866D01*
X98375000Y-111775000D01*
X98375000Y-112325000D01*
X98371194Y-112344134D01*
X98360355Y-112360355D01*
X98344134Y-112371194D01*
X98325000Y-112375000D01*
X97925000Y-112375000D01*
X97905866Y-112371194D01*
X97889645Y-112360355D01*
X97878806Y-112344134D01*
X97875000Y-112325000D01*
X97875000Y-111775000D01*
X97878806Y-111755866D01*
X97889645Y-111739645D01*
X97905866Y-111728806D01*
X97925000Y-111725000D01*
X98325000Y-111725000D01*
X98344134Y-111728806D01*
G37*
G36*
X99094134Y-111728806D02*
G01*
X99110355Y-111739645D01*
X99121194Y-111755866D01*
X99125000Y-111775000D01*
X99125000Y-112325000D01*
X99121194Y-112344134D01*
X99110355Y-112360355D01*
X99094134Y-112371194D01*
X99075000Y-112375000D01*
X98675000Y-112375000D01*
X98655866Y-112371194D01*
X98639645Y-112360355D01*
X98628806Y-112344134D01*
X98625000Y-112325000D01*
X98625000Y-111775000D01*
X98628806Y-111755866D01*
X98639645Y-111739645D01*
X98655866Y-111728806D01*
X98675000Y-111725000D01*
X99075000Y-111725000D01*
X99094134Y-111728806D01*
G37*
G36*
X99844134Y-111728806D02*
G01*
X99860355Y-111739645D01*
X99871194Y-111755866D01*
X99875000Y-111775000D01*
X99875000Y-112325000D01*
X99871194Y-112344134D01*
X99860355Y-112360355D01*
X99844134Y-112371194D01*
X99825000Y-112375000D01*
X99425000Y-112375000D01*
X99405866Y-112371194D01*
X99389645Y-112360355D01*
X99378806Y-112344134D01*
X99375000Y-112325000D01*
X99375000Y-111775000D01*
X99378806Y-111755866D01*
X99389645Y-111739645D01*
X99405866Y-111728806D01*
X99425000Y-111725000D01*
X99825000Y-111725000D01*
X99844134Y-111728806D01*
G37*
G36*
X100594134Y-111728806D02*
G01*
X100610355Y-111739645D01*
X100621194Y-111755866D01*
X100625000Y-111775000D01*
X100625000Y-112325000D01*
X100621194Y-112344134D01*
X100610355Y-112360355D01*
X100594134Y-112371194D01*
X100575000Y-112375000D01*
X100175000Y-112375000D01*
X100155866Y-112371194D01*
X100139645Y-112360355D01*
X100128806Y-112344134D01*
X100125000Y-112325000D01*
X100125000Y-111775000D01*
X100128806Y-111755866D01*
X100139645Y-111739645D01*
X100155866Y-111728806D01*
X100175000Y-111725000D01*
X100575000Y-111725000D01*
X100594134Y-111728806D01*
G37*
G36*
X101344134Y-111728806D02*
G01*
X101360355Y-111739645D01*
X101371194Y-111755866D01*
X101375000Y-111775000D01*
X101375000Y-112325000D01*
X101371194Y-112344134D01*
X101360355Y-112360355D01*
X101344134Y-112371194D01*
X101325000Y-112375000D01*
X100925000Y-112375000D01*
X100905866Y-112371194D01*
X100889645Y-112360355D01*
X100878806Y-112344134D01*
X100875000Y-112325000D01*
X100875000Y-111775000D01*
X100878806Y-111755866D01*
X100889645Y-111739645D01*
X100905866Y-111728806D01*
X100925000Y-111725000D01*
X101325000Y-111725000D01*
X101344134Y-111728806D01*
G37*
G36*
X102094134Y-111728806D02*
G01*
X102110355Y-111739645D01*
X102121194Y-111755866D01*
X102125000Y-111775000D01*
X102125000Y-112325000D01*
X102121194Y-112344134D01*
X102110355Y-112360355D01*
X102094134Y-112371194D01*
X102075000Y-112375000D01*
X101675000Y-112375000D01*
X101655866Y-112371194D01*
X101639645Y-112360355D01*
X101628806Y-112344134D01*
X101625000Y-112325000D01*
X101625000Y-111775000D01*
X101628806Y-111755866D01*
X101639645Y-111739645D01*
X101655866Y-111728806D01*
X101675000Y-111725000D01*
X102075000Y-111725000D01*
X102094134Y-111728806D01*
G37*
G36*
X102844134Y-111728806D02*
G01*
X102860355Y-111739645D01*
X102871194Y-111755866D01*
X102875000Y-111775000D01*
X102875000Y-112325000D01*
X102871194Y-112344134D01*
X102860355Y-112360355D01*
X102844134Y-112371194D01*
X102825000Y-112375000D01*
X102425000Y-112375000D01*
X102405866Y-112371194D01*
X102389645Y-112360355D01*
X102378806Y-112344134D01*
X102375000Y-112325000D01*
X102375000Y-111775000D01*
X102378806Y-111755866D01*
X102389645Y-111739645D01*
X102405866Y-111728806D01*
X102425000Y-111725000D01*
X102825000Y-111725000D01*
X102844134Y-111728806D01*
G37*
G36*
X103594134Y-111728806D02*
G01*
X103610355Y-111739645D01*
X103621194Y-111755866D01*
X103625000Y-111775000D01*
X103625000Y-112325000D01*
X103621194Y-112344134D01*
X103610355Y-112360355D01*
X103594134Y-112371194D01*
X103575000Y-112375000D01*
X103175000Y-112375000D01*
X103155866Y-112371194D01*
X103139645Y-112360355D01*
X103128806Y-112344134D01*
X103125000Y-112325000D01*
X103125000Y-111775000D01*
X103128806Y-111755866D01*
X103139645Y-111739645D01*
X103155866Y-111728806D01*
X103175000Y-111725000D01*
X103575000Y-111725000D01*
X103594134Y-111728806D01*
G37*
G36*
X104344134Y-111728806D02*
G01*
X104360355Y-111739645D01*
X104371194Y-111755866D01*
X104375000Y-111775000D01*
X104375000Y-112325000D01*
X104371194Y-112344134D01*
X104360355Y-112360355D01*
X104344134Y-112371194D01*
X104325000Y-112375000D01*
X103925000Y-112375000D01*
X103905866Y-112371194D01*
X103889645Y-112360355D01*
X103878806Y-112344134D01*
X103875000Y-112325000D01*
X103875000Y-111775000D01*
X103878806Y-111755866D01*
X103889645Y-111739645D01*
X103905866Y-111728806D01*
X103925000Y-111725000D01*
X104325000Y-111725000D01*
X104344134Y-111728806D01*
G37*
G36*
X90361840Y-108492827D02*
G01*
X90593159Y-108567987D01*
X90809873Y-108678408D01*
X91006644Y-108821371D01*
X91178629Y-108993356D01*
X91321592Y-109190127D01*
X91432013Y-109406841D01*
X91507173Y-109638160D01*
X91545222Y-109878388D01*
X91545222Y-110121612D01*
X91507173Y-110361840D01*
X91432013Y-110593159D01*
X91321592Y-110809873D01*
X91178629Y-111006644D01*
X91006644Y-111178629D01*
X90809873Y-111321592D01*
X90593159Y-111432013D01*
X90361840Y-111507173D01*
X90121612Y-111545222D01*
X89878388Y-111545222D01*
X89638160Y-111507173D01*
X89406841Y-111432013D01*
X89190127Y-111321592D01*
X88993356Y-111178629D01*
X88821371Y-111006644D01*
X88678408Y-110809873D01*
X88567987Y-110593159D01*
X88492827Y-110361840D01*
X88454778Y-110121612D01*
X88454778Y-109878388D01*
X88492827Y-109638160D01*
X88567987Y-109406841D01*
X88678408Y-109190127D01*
X88821371Y-108993356D01*
X88993356Y-108821371D01*
X89190127Y-108678408D01*
X89406841Y-108567987D01*
X89638160Y-108492827D01*
X89878388Y-108454778D01*
X90121612Y-108454778D01*
X90361840Y-108492827D01*
G37*
G36*
X110361840Y-108492827D02*
G01*
X110593159Y-108567987D01*
X110809873Y-108678408D01*
X111006644Y-108821371D01*
X111178629Y-108993356D01*
X111321592Y-109190127D01*
X111432013Y-109406841D01*
X111507173Y-109638160D01*
X111545222Y-109878388D01*
X111545222Y-110121612D01*
X111507173Y-110361840D01*
X111432013Y-110593159D01*
X111321592Y-110809873D01*
X111178629Y-111006644D01*
X111006644Y-111178629D01*
X110809873Y-111321592D01*
X110593159Y-111432013D01*
X110361840Y-111507173D01*
X110121612Y-111545222D01*
X109878388Y-111545222D01*
X109638160Y-111507173D01*
X109406841Y-111432013D01*
X109190127Y-111321592D01*
X108993356Y-111178629D01*
X108821371Y-111006644D01*
X108678408Y-110809873D01*
X108567987Y-110593159D01*
X108492827Y-110361840D01*
X108454778Y-110121612D01*
X108454778Y-109878388D01*
X108492827Y-109638160D01*
X108567987Y-109406841D01*
X108678408Y-109190127D01*
X108821371Y-108993356D01*
X108993356Y-108821371D01*
X109190127Y-108678408D01*
X109406841Y-108567987D01*
X109638160Y-108492827D01*
X109878388Y-108454778D01*
X110121612Y-108454778D01*
X110361840Y-108492827D01*
G37*
G36*
X94810134Y-109476021D02*
G01*
X94875205Y-109484587D01*
X94891575Y-109492220D01*
X94910238Y-109495933D01*
X94934958Y-109512450D01*
X94962376Y-109525236D01*
X94979056Y-109541916D01*
X94999454Y-109555546D01*
X95013083Y-109575943D01*
X95029763Y-109592623D01*
X95042547Y-109620039D01*
X95059067Y-109644762D01*
X95062779Y-109663426D01*
X95070412Y-109679794D01*
X95078976Y-109744854D01*
X95080000Y-109750000D01*
X95080000Y-110250000D01*
X95078975Y-110255149D01*
X95070412Y-110320205D01*
X95062779Y-110336571D01*
X95059067Y-110355238D01*
X95042545Y-110379963D01*
X95029763Y-110407376D01*
X95013085Y-110424053D01*
X94999454Y-110444454D01*
X94979053Y-110458085D01*
X94962376Y-110474763D01*
X94934963Y-110487545D01*
X94910238Y-110504067D01*
X94891571Y-110507779D01*
X94875205Y-110515412D01*
X94810147Y-110523976D01*
X94805000Y-110525000D01*
X94355000Y-110525000D01*
X94349852Y-110523976D01*
X94284794Y-110515412D01*
X94268426Y-110507779D01*
X94249762Y-110504067D01*
X94225039Y-110487547D01*
X94197623Y-110474763D01*
X94180943Y-110458083D01*
X94160546Y-110444454D01*
X94146916Y-110424056D01*
X94130236Y-110407376D01*
X94117450Y-110379958D01*
X94100933Y-110355238D01*
X94097220Y-110336575D01*
X94089587Y-110320205D01*
X94081020Y-110255132D01*
X94080000Y-110250000D01*
X94080000Y-109750000D01*
X94081020Y-109744867D01*
X94089587Y-109679794D01*
X94097221Y-109663422D01*
X94100933Y-109644762D01*
X94117449Y-109620044D01*
X94130236Y-109592623D01*
X94146918Y-109575940D01*
X94160546Y-109555546D01*
X94180940Y-109541918D01*
X94197623Y-109525236D01*
X94225044Y-109512449D01*
X94249762Y-109495933D01*
X94268422Y-109492221D01*
X94284794Y-109484587D01*
X94349869Y-109476020D01*
X94355000Y-109475000D01*
X94805000Y-109475000D01*
X94810134Y-109476021D01*
G37*
G36*
X96360134Y-109476021D02*
G01*
X96425205Y-109484587D01*
X96441575Y-109492220D01*
X96460238Y-109495933D01*
X96484958Y-109512450D01*
X96512376Y-109525236D01*
X96529056Y-109541916D01*
X96549454Y-109555546D01*
X96563083Y-109575943D01*
X96579763Y-109592623D01*
X96592547Y-109620039D01*
X96609067Y-109644762D01*
X96612779Y-109663426D01*
X96620412Y-109679794D01*
X96628976Y-109744854D01*
X96630000Y-109750000D01*
X96630000Y-110250000D01*
X96628975Y-110255149D01*
X96620412Y-110320205D01*
X96612779Y-110336571D01*
X96609067Y-110355238D01*
X96592545Y-110379963D01*
X96579763Y-110407376D01*
X96563085Y-110424053D01*
X96549454Y-110444454D01*
X96529053Y-110458085D01*
X96512376Y-110474763D01*
X96484963Y-110487545D01*
X96460238Y-110504067D01*
X96441571Y-110507779D01*
X96425205Y-110515412D01*
X96360147Y-110523976D01*
X96355000Y-110525000D01*
X95905000Y-110525000D01*
X95899852Y-110523976D01*
X95834794Y-110515412D01*
X95818426Y-110507779D01*
X95799762Y-110504067D01*
X95775039Y-110487547D01*
X95747623Y-110474763D01*
X95730943Y-110458083D01*
X95710546Y-110444454D01*
X95696916Y-110424056D01*
X95680236Y-110407376D01*
X95667450Y-110379958D01*
X95650933Y-110355238D01*
X95647220Y-110336575D01*
X95639587Y-110320205D01*
X95631020Y-110255132D01*
X95630000Y-110250000D01*
X95630000Y-109750000D01*
X95631020Y-109744867D01*
X95639587Y-109679794D01*
X95647221Y-109663422D01*
X95650933Y-109644762D01*
X95667449Y-109620044D01*
X95680236Y-109592623D01*
X95696918Y-109575940D01*
X95710546Y-109555546D01*
X95730940Y-109541918D01*
X95747623Y-109525236D01*
X95775044Y-109512449D01*
X95799762Y-109495933D01*
X95818422Y-109492221D01*
X95834794Y-109484587D01*
X95899869Y-109476020D01*
X95905000Y-109475000D01*
X96355000Y-109475000D01*
X96360134Y-109476021D01*
G37*
G36*
X99625796Y-109524082D02*
G01*
X99685815Y-109564185D01*
X99725918Y-109624204D01*
X99740000Y-109695000D01*
X99740000Y-109965000D01*
X99725918Y-110035796D01*
X99685815Y-110095815D01*
X99625796Y-110135918D01*
X99555000Y-110150000D01*
X99185000Y-110150000D01*
X99114204Y-110135918D01*
X99054185Y-110095815D01*
X99014082Y-110035796D01*
X99000000Y-109965000D01*
X99000000Y-109695000D01*
X99014082Y-109624204D01*
X99054185Y-109564185D01*
X99114204Y-109524082D01*
X99185000Y-109510000D01*
X99555000Y-109510000D01*
X99625796Y-109524082D01*
G37*
G36*
X101455796Y-109524082D02*
G01*
X101515815Y-109564185D01*
X101555918Y-109624204D01*
X101570000Y-109695000D01*
X101570000Y-109965000D01*
X101555918Y-110035796D01*
X101515815Y-110095815D01*
X101455796Y-110135918D01*
X101385000Y-110150000D01*
X101015000Y-110150000D01*
X100944204Y-110135918D01*
X100884185Y-110095815D01*
X100844082Y-110035796D01*
X100830000Y-109965000D01*
X100830000Y-109695000D01*
X100844082Y-109624204D01*
X100884185Y-109564185D01*
X100944204Y-109524082D01*
X101015000Y-109510000D01*
X101385000Y-109510000D01*
X101455796Y-109524082D01*
G37*
G36*
X103285796Y-109524082D02*
G01*
X103345815Y-109564185D01*
X103385918Y-109624204D01*
X103400000Y-109695000D01*
X103400000Y-109965000D01*
X103385918Y-110035796D01*
X103345815Y-110095815D01*
X103285796Y-110135918D01*
X103215000Y-110150000D01*
X102845000Y-110150000D01*
X102774204Y-110135918D01*
X102714185Y-110095815D01*
X102674082Y-110035796D01*
X102660000Y-109965000D01*
X102660000Y-109695000D01*
X102674082Y-109624204D01*
X102714185Y-109564185D01*
X102774204Y-109524082D01*
X102845000Y-109510000D01*
X103215000Y-109510000D01*
X103285796Y-109524082D01*
G37*
G36*
X105115796Y-109524082D02*
G01*
X105175815Y-109564185D01*
X105215918Y-109624204D01*
X105230000Y-109695000D01*
X105230000Y-109965000D01*
X105215918Y-110035796D01*
X105175815Y-110095815D01*
X105115796Y-110135918D01*
X105045000Y-110150000D01*
X104675000Y-110150000D01*
X104604204Y-110135918D01*
X104544185Y-110095815D01*
X104504082Y-110035796D01*
X104490000Y-109965000D01*
X104490000Y-109695000D01*
X104504082Y-109624204D01*
X104544185Y-109564185D01*
X104604204Y-109524082D01*
X104675000Y-109510000D01*
X105045000Y-109510000D01*
X105115796Y-109524082D01*
G37*
G36*
X99625796Y-108504082D02*
G01*
X99685815Y-108544185D01*
X99725918Y-108604204D01*
X99740000Y-108675000D01*
X99740000Y-108945000D01*
X99725918Y-109015796D01*
X99685815Y-109075815D01*
X99625796Y-109115918D01*
X99555000Y-109130000D01*
X99185000Y-109130000D01*
X99114204Y-109115918D01*
X99054185Y-109075815D01*
X99014082Y-109015796D01*
X99000000Y-108945000D01*
X99000000Y-108675000D01*
X99014082Y-108604204D01*
X99054185Y-108544185D01*
X99114204Y-108504082D01*
X99185000Y-108490000D01*
X99555000Y-108490000D01*
X99625796Y-108504082D01*
G37*
G36*
X101455796Y-108504082D02*
G01*
X101515815Y-108544185D01*
X101555918Y-108604204D01*
X101570000Y-108675000D01*
X101570000Y-108945000D01*
X101555918Y-109015796D01*
X101515815Y-109075815D01*
X101455796Y-109115918D01*
X101385000Y-109130000D01*
X101015000Y-109130000D01*
X100944204Y-109115918D01*
X100884185Y-109075815D01*
X100844082Y-109015796D01*
X100830000Y-108945000D01*
X100830000Y-108675000D01*
X100844082Y-108604204D01*
X100884185Y-108544185D01*
X100944204Y-108504082D01*
X101015000Y-108490000D01*
X101385000Y-108490000D01*
X101455796Y-108504082D01*
G37*
G36*
X103285796Y-108504082D02*
G01*
X103345815Y-108544185D01*
X103385918Y-108604204D01*
X103400000Y-108675000D01*
X103400000Y-108945000D01*
X103385918Y-109015796D01*
X103345815Y-109075815D01*
X103285796Y-109115918D01*
X103215000Y-109130000D01*
X102845000Y-109130000D01*
X102774204Y-109115918D01*
X102714185Y-109075815D01*
X102674082Y-109015796D01*
X102660000Y-108945000D01*
X102660000Y-108675000D01*
X102674082Y-108604204D01*
X102714185Y-108544185D01*
X102774204Y-108504082D01*
X102845000Y-108490000D01*
X103215000Y-108490000D01*
X103285796Y-108504082D01*
G37*
G36*
X105115796Y-108504082D02*
G01*
X105175815Y-108544185D01*
X105215918Y-108604204D01*
X105230000Y-108675000D01*
X105230000Y-108945000D01*
X105215918Y-109015796D01*
X105175815Y-109075815D01*
X105115796Y-109115918D01*
X105045000Y-109130000D01*
X104675000Y-109130000D01*
X104604204Y-109115918D01*
X104544185Y-109075815D01*
X104504082Y-109015796D01*
X104490000Y-108945000D01*
X104490000Y-108675000D01*
X104504082Y-108604204D01*
X104544185Y-108544185D01*
X104604204Y-108504082D01*
X104675000Y-108490000D01*
X105045000Y-108490000D01*
X105115796Y-108504082D01*
G37*
G36*
X95492710Y-108344463D02*
G01*
X95554350Y-108385650D01*
X95595537Y-108447290D01*
X95610000Y-108520000D01*
X95610000Y-108860000D01*
X95595537Y-108932710D01*
X95554350Y-108994350D01*
X95492710Y-109035537D01*
X95420000Y-109050000D01*
X95140000Y-109050000D01*
X95067290Y-109035537D01*
X95005650Y-108994350D01*
X94964463Y-108932710D01*
X94950000Y-108860000D01*
X94950000Y-108520000D01*
X94964463Y-108447290D01*
X95005650Y-108385650D01*
X95067290Y-108344463D01*
X95140000Y-108330000D01*
X95420000Y-108330000D01*
X95492710Y-108344463D01*
G37*
G36*
X96452710Y-108344463D02*
G01*
X96514350Y-108385650D01*
X96555537Y-108447290D01*
X96570000Y-108520000D01*
X96570000Y-108860000D01*
X96555537Y-108932710D01*
X96514350Y-108994350D01*
X96452710Y-109035537D01*
X96380000Y-109050000D01*
X96100000Y-109050000D01*
X96027290Y-109035537D01*
X95965650Y-108994350D01*
X95924463Y-108932710D01*
X95910000Y-108860000D01*
X95910000Y-108520000D01*
X95924463Y-108447290D01*
X95965650Y-108385650D01*
X96027290Y-108344463D01*
X96100000Y-108330000D01*
X96380000Y-108330000D01*
X96452710Y-108344463D01*
G37*
G36*
X99435796Y-107444082D02*
G01*
X99495815Y-107484185D01*
X99535918Y-107544204D01*
X99550000Y-107615000D01*
X99550000Y-107985000D01*
X99535918Y-108055796D01*
X99495815Y-108115815D01*
X99435796Y-108155918D01*
X99365000Y-108170000D01*
X99095000Y-108170000D01*
X99024204Y-108155918D01*
X98964185Y-108115815D01*
X98924082Y-108055796D01*
X98910000Y-107985000D01*
X98910000Y-107615000D01*
X98924082Y-107544204D01*
X98964185Y-107484185D01*
X99024204Y-107444082D01*
X99095000Y-107430000D01*
X99365000Y-107430000D01*
X99435796Y-107444082D01*
G37*
G36*
X100455796Y-107444082D02*
G01*
X100515815Y-107484185D01*
X100555918Y-107544204D01*
X100570000Y-107615000D01*
X100570000Y-107985000D01*
X100555918Y-108055796D01*
X100515815Y-108115815D01*
X100455796Y-108155918D01*
X100385000Y-108170000D01*
X100115000Y-108170000D01*
X100044204Y-108155918D01*
X99984185Y-108115815D01*
X99944082Y-108055796D01*
X99930000Y-107985000D01*
X99930000Y-107615000D01*
X99944082Y-107544204D01*
X99984185Y-107484185D01*
X100044204Y-107444082D01*
X100115000Y-107430000D01*
X100385000Y-107430000D01*
X100455796Y-107444082D01*
G37*
G36*
X95492710Y-107294463D02*
G01*
X95554350Y-107335650D01*
X95595537Y-107397290D01*
X95610000Y-107470000D01*
X95610000Y-107810000D01*
X95595537Y-107882710D01*
X95554350Y-107944350D01*
X95492710Y-107985537D01*
X95420000Y-108000000D01*
X95140000Y-108000000D01*
X95067290Y-107985537D01*
X95005650Y-107944350D01*
X94964463Y-107882710D01*
X94950000Y-107810000D01*
X94950000Y-107470000D01*
X94964463Y-107397290D01*
X95005650Y-107335650D01*
X95067290Y-107294463D01*
X95140000Y-107280000D01*
X95420000Y-107280000D01*
X95492710Y-107294463D01*
G37*
G36*
X96452710Y-107294463D02*
G01*
X96514350Y-107335650D01*
X96555537Y-107397290D01*
X96570000Y-107470000D01*
X96570000Y-107810000D01*
X96555537Y-107882710D01*
X96514350Y-107944350D01*
X96452710Y-107985537D01*
X96380000Y-108000000D01*
X96100000Y-108000000D01*
X96027290Y-107985537D01*
X95965650Y-107944350D01*
X95924463Y-107882710D01*
X95910000Y-107810000D01*
X95910000Y-107470000D01*
X95924463Y-107397290D01*
X95965650Y-107335650D01*
X96027290Y-107294463D01*
X96100000Y-107280000D01*
X96380000Y-107280000D01*
X96452710Y-107294463D01*
G37*
G36*
X99409134Y-106328806D02*
G01*
X99425355Y-106339645D01*
X99436194Y-106355866D01*
X99440000Y-106375000D01*
X99440000Y-106875000D01*
X99436194Y-106894134D01*
X99425355Y-106910355D01*
X99409134Y-106921194D01*
X99390000Y-106925000D01*
X99110000Y-106925000D01*
X99090866Y-106921194D01*
X99074645Y-106910355D01*
X99063806Y-106894134D01*
X99060000Y-106875000D01*
X99060000Y-106375000D01*
X99063806Y-106355866D01*
X99074645Y-106339645D01*
X99090866Y-106328806D01*
X99110000Y-106325000D01*
X99390000Y-106325000D01*
X99409134Y-106328806D01*
G37*
G36*
X99909134Y-106328806D02*
G01*
X99925355Y-106339645D01*
X99936194Y-106355866D01*
X99940000Y-106375000D01*
X99940000Y-106875000D01*
X99936194Y-106894134D01*
X99925355Y-106910355D01*
X99909134Y-106921194D01*
X99890000Y-106925000D01*
X99610000Y-106925000D01*
X99590866Y-106921194D01*
X99574645Y-106910355D01*
X99563806Y-106894134D01*
X99560000Y-106875000D01*
X99560000Y-106375000D01*
X99563806Y-106355866D01*
X99574645Y-106339645D01*
X99590866Y-106328806D01*
X99610000Y-106325000D01*
X99890000Y-106325000D01*
X99909134Y-106328806D01*
G37*
G36*
X100409134Y-106328806D02*
G01*
X100425355Y-106339645D01*
X100436194Y-106355866D01*
X100440000Y-106375000D01*
X100440000Y-106875000D01*
X100436194Y-106894134D01*
X100425355Y-106910355D01*
X100409134Y-106921194D01*
X100390000Y-106925000D01*
X100110000Y-106925000D01*
X100090866Y-106921194D01*
X100074645Y-106910355D01*
X100063806Y-106894134D01*
X100060000Y-106875000D01*
X100060000Y-106375000D01*
X100063806Y-106355866D01*
X100074645Y-106339645D01*
X100090866Y-106328806D01*
X100110000Y-106325000D01*
X100390000Y-106325000D01*
X100409134Y-106328806D01*
G37*
G36*
X100909134Y-106328806D02*
G01*
X100925355Y-106339645D01*
X100936194Y-106355866D01*
X100940000Y-106375000D01*
X100940000Y-106875000D01*
X100936194Y-106894134D01*
X100925355Y-106910355D01*
X100909134Y-106921194D01*
X100890000Y-106925000D01*
X100610000Y-106925000D01*
X100590866Y-106921194D01*
X100574645Y-106910355D01*
X100563806Y-106894134D01*
X100560000Y-106875000D01*
X100560000Y-106375000D01*
X100563806Y-106355866D01*
X100574645Y-106339645D01*
X100590866Y-106328806D01*
X100610000Y-106325000D01*
X100890000Y-106325000D01*
X100909134Y-106328806D01*
G37*
G36*
X96272710Y-105784463D02*
G01*
X96334350Y-105825650D01*
X96375537Y-105887290D01*
X96390000Y-105960000D01*
X96390000Y-106300000D01*
X96375537Y-106372710D01*
X96334350Y-106434350D01*
X96272710Y-106475537D01*
X96200000Y-106490000D01*
X95920000Y-106490000D01*
X95847290Y-106475537D01*
X95785650Y-106434350D01*
X95744463Y-106372710D01*
X95730000Y-106300000D01*
X95730000Y-105960000D01*
X95744463Y-105887290D01*
X95785650Y-105825650D01*
X95847290Y-105784463D01*
X95920000Y-105770000D01*
X96200000Y-105770000D01*
X96272710Y-105784463D01*
G37*
G36*
X97232710Y-105784463D02*
G01*
X97294350Y-105825650D01*
X97335537Y-105887290D01*
X97350000Y-105960000D01*
X97350000Y-106300000D01*
X97335537Y-106372710D01*
X97294350Y-106434350D01*
X97232710Y-106475537D01*
X97160000Y-106490000D01*
X96880000Y-106490000D01*
X96807290Y-106475537D01*
X96745650Y-106434350D01*
X96704463Y-106372710D01*
X96690000Y-106300000D01*
X96690000Y-105960000D01*
X96704463Y-105887290D01*
X96745650Y-105825650D01*
X96807290Y-105784463D01*
X96880000Y-105770000D01*
X97160000Y-105770000D01*
X97232710Y-105784463D01*
G37*
G36*
X98769134Y-105688806D02*
G01*
X98785355Y-105699645D01*
X98796194Y-105715866D01*
X98800000Y-105735000D01*
X98800000Y-106015000D01*
X98796194Y-106034134D01*
X98785355Y-106050355D01*
X98769134Y-106061194D01*
X98750000Y-106065000D01*
X98250000Y-106065000D01*
X98230866Y-106061194D01*
X98214645Y-106050355D01*
X98203806Y-106034134D01*
X98200000Y-106015000D01*
X98200000Y-105735000D01*
X98203806Y-105715866D01*
X98214645Y-105699645D01*
X98230866Y-105688806D01*
X98250000Y-105685000D01*
X98750000Y-105685000D01*
X98769134Y-105688806D01*
G37*
G36*
X101769134Y-105688806D02*
G01*
X101785355Y-105699645D01*
X101796194Y-105715866D01*
X101800000Y-105735000D01*
X101800000Y-106015000D01*
X101796194Y-106034134D01*
X101785355Y-106050355D01*
X101769134Y-106061194D01*
X101750000Y-106065000D01*
X101250000Y-106065000D01*
X101230866Y-106061194D01*
X101214645Y-106050355D01*
X101203806Y-106034134D01*
X101200000Y-106015000D01*
X101200000Y-105735000D01*
X101203806Y-105715866D01*
X101214645Y-105699645D01*
X101230866Y-105688806D01*
X101250000Y-105685000D01*
X101750000Y-105685000D01*
X101769134Y-105688806D01*
G37*
G36*
X98769134Y-105188806D02*
G01*
X98785355Y-105199645D01*
X98796194Y-105215866D01*
X98800000Y-105235000D01*
X98800000Y-105515000D01*
X98796194Y-105534134D01*
X98785355Y-105550355D01*
X98769134Y-105561194D01*
X98750000Y-105565000D01*
X98250000Y-105565000D01*
X98230866Y-105561194D01*
X98214645Y-105550355D01*
X98203806Y-105534134D01*
X98200000Y-105515000D01*
X98200000Y-105235000D01*
X98203806Y-105215866D01*
X98214645Y-105199645D01*
X98230866Y-105188806D01*
X98250000Y-105185000D01*
X98750000Y-105185000D01*
X98769134Y-105188806D01*
G37*
G36*
X101769134Y-105188806D02*
G01*
X101785355Y-105199645D01*
X101796194Y-105215866D01*
X101800000Y-105235000D01*
X101800000Y-105515000D01*
X101796194Y-105534134D01*
X101785355Y-105550355D01*
X101769134Y-105561194D01*
X101750000Y-105565000D01*
X101250000Y-105565000D01*
X101230866Y-105561194D01*
X101214645Y-105550355D01*
X101203806Y-105534134D01*
X101200000Y-105515000D01*
X101200000Y-105235000D01*
X101203806Y-105215866D01*
X101214645Y-105199645D01*
X101230866Y-105188806D01*
X101250000Y-105185000D01*
X101750000Y-105185000D01*
X101769134Y-105188806D01*
G37*
G36*
X98769134Y-104688806D02*
G01*
X98785355Y-104699645D01*
X98796194Y-104715866D01*
X98800000Y-104735000D01*
X98800000Y-105015000D01*
X98796194Y-105034134D01*
X98785355Y-105050355D01*
X98769134Y-105061194D01*
X98750000Y-105065000D01*
X98250000Y-105065000D01*
X98230866Y-105061194D01*
X98214645Y-105050355D01*
X98203806Y-105034134D01*
X98200000Y-105015000D01*
X98200000Y-104735000D01*
X98203806Y-104715866D01*
X98214645Y-104699645D01*
X98230866Y-104688806D01*
X98250000Y-104685000D01*
X98750000Y-104685000D01*
X98769134Y-104688806D01*
G37*
G36*
X101769134Y-104688806D02*
G01*
X101785355Y-104699645D01*
X101796194Y-104715866D01*
X101800000Y-104735000D01*
X101800000Y-105015000D01*
X101796194Y-105034134D01*
X101785355Y-105050355D01*
X101769134Y-105061194D01*
X101750000Y-105065000D01*
X101250000Y-105065000D01*
X101230866Y-105061194D01*
X101214645Y-105050355D01*
X101203806Y-105034134D01*
X101200000Y-105015000D01*
X101200000Y-104735000D01*
X101203806Y-104715866D01*
X101214645Y-104699645D01*
X101230866Y-104688806D01*
X101250000Y-104685000D01*
X101750000Y-104685000D01*
X101769134Y-104688806D01*
G37*
G36*
X96272710Y-104284463D02*
G01*
X96334350Y-104325650D01*
X96375537Y-104387290D01*
X96390000Y-104460000D01*
X96390000Y-104800000D01*
X96375537Y-104872710D01*
X96334350Y-104934350D01*
X96272710Y-104975537D01*
X96200000Y-104990000D01*
X95920000Y-104990000D01*
X95847290Y-104975537D01*
X95785650Y-104934350D01*
X95744463Y-104872710D01*
X95730000Y-104800000D01*
X95730000Y-104460000D01*
X95744463Y-104387290D01*
X95785650Y-104325650D01*
X95847290Y-104284463D01*
X95920000Y-104270000D01*
X96200000Y-104270000D01*
X96272710Y-104284463D01*
G37*
G36*
X97232710Y-104284463D02*
G01*
X97294350Y-104325650D01*
X97335537Y-104387290D01*
X97350000Y-104460000D01*
X97350000Y-104800000D01*
X97335537Y-104872710D01*
X97294350Y-104934350D01*
X97232710Y-104975537D01*
X97160000Y-104990000D01*
X96880000Y-104990000D01*
X96807290Y-104975537D01*
X96745650Y-104934350D01*
X96704463Y-104872710D01*
X96690000Y-104800000D01*
X96690000Y-104460000D01*
X96704463Y-104387290D01*
X96745650Y-104325650D01*
X96807290Y-104284463D01*
X96880000Y-104270000D01*
X97160000Y-104270000D01*
X97232710Y-104284463D01*
G37*
G36*
X99409134Y-103828806D02*
G01*
X99425355Y-103839645D01*
X99436194Y-103855866D01*
X99440000Y-103875000D01*
X99440000Y-104375000D01*
X99436194Y-104394134D01*
X99425355Y-104410355D01*
X99409134Y-104421194D01*
X99390000Y-104425000D01*
X99110000Y-104425000D01*
X99090866Y-104421194D01*
X99074645Y-104410355D01*
X99063806Y-104394134D01*
X99060000Y-104375000D01*
X99060000Y-103875000D01*
X99063806Y-103855866D01*
X99074645Y-103839645D01*
X99090866Y-103828806D01*
X99110000Y-103825000D01*
X99390000Y-103825000D01*
X99409134Y-103828806D01*
G37*
G36*
X99909134Y-103828806D02*
G01*
X99925355Y-103839645D01*
X99936194Y-103855866D01*
X99940000Y-103875000D01*
X99940000Y-104375000D01*
X99936194Y-104394134D01*
X99925355Y-104410355D01*
X99909134Y-104421194D01*
X99890000Y-104425000D01*
X99610000Y-104425000D01*
X99590866Y-104421194D01*
X99574645Y-104410355D01*
X99563806Y-104394134D01*
X99560000Y-104375000D01*
X99560000Y-103875000D01*
X99563806Y-103855866D01*
X99574645Y-103839645D01*
X99590866Y-103828806D01*
X99610000Y-103825000D01*
X99890000Y-103825000D01*
X99909134Y-103828806D01*
G37*
G36*
X100409134Y-103828806D02*
G01*
X100425355Y-103839645D01*
X100436194Y-103855866D01*
X100440000Y-103875000D01*
X100440000Y-104375000D01*
X100436194Y-104394134D01*
X100425355Y-104410355D01*
X100409134Y-104421194D01*
X100390000Y-104425000D01*
X100110000Y-104425000D01*
X100090866Y-104421194D01*
X100074645Y-104410355D01*
X100063806Y-104394134D01*
X100060000Y-104375000D01*
X100060000Y-103875000D01*
X100063806Y-103855866D01*
X100074645Y-103839645D01*
X100090866Y-103828806D01*
X100110000Y-103825000D01*
X100390000Y-103825000D01*
X100409134Y-103828806D01*
G37*
G36*
X100909134Y-103828806D02*
G01*
X100925355Y-103839645D01*
X100936194Y-103855866D01*
X100940000Y-103875000D01*
X100940000Y-104375000D01*
X100936194Y-104394134D01*
X100925355Y-104410355D01*
X100909134Y-104421194D01*
X100890000Y-104425000D01*
X100610000Y-104425000D01*
X100590866Y-104421194D01*
X100574645Y-104410355D01*
X100563806Y-104394134D01*
X100560000Y-104375000D01*
X100560000Y-103875000D01*
X100563806Y-103855866D01*
X100574645Y-103839645D01*
X100590866Y-103828806D01*
X100610000Y-103825000D01*
X100890000Y-103825000D01*
X100909134Y-103828806D01*
G37*
G36*
X87710476Y-101781866D02*
G01*
X87834819Y-101853656D01*
X87936344Y-101955181D01*
X88008134Y-102079524D01*
X88045295Y-102218211D01*
X88045295Y-102361789D01*
X88008134Y-102500476D01*
X87936344Y-102624819D01*
X87834819Y-102726344D01*
X87710476Y-102798134D01*
X87571789Y-102835295D01*
X87428211Y-102835295D01*
X87289524Y-102798134D01*
X87165181Y-102726344D01*
X87063656Y-102624819D01*
X86991866Y-102500476D01*
X86954705Y-102361789D01*
X86954705Y-102218211D01*
X86991866Y-102079524D01*
X87063656Y-101955181D01*
X87165181Y-101853656D01*
X87289524Y-101781866D01*
X87428211Y-101744705D01*
X87571789Y-101744705D01*
X87710476Y-101781866D01*
G37*
G36*
X94870476Y-101781866D02*
G01*
X94994819Y-101853656D01*
X95096344Y-101955181D01*
X95168134Y-102079524D01*
X95205295Y-102218211D01*
X95205295Y-102361789D01*
X95168134Y-102500476D01*
X95096344Y-102624819D01*
X94994819Y-102726344D01*
X94870476Y-102798134D01*
X94731789Y-102835295D01*
X94588211Y-102835295D01*
X94449524Y-102798134D01*
X94325181Y-102726344D01*
X94223656Y-102624819D01*
X94151866Y-102500476D01*
X94114705Y-102361789D01*
X94114705Y-102218211D01*
X94151866Y-102079524D01*
X94223656Y-101955181D01*
X94325181Y-101853656D01*
X94449524Y-101781866D01*
X94588211Y-101744705D01*
X94731789Y-101744705D01*
X94870476Y-101781866D01*
G37*
G36*
X107822710Y-99752019D02*
G01*
X107884350Y-99793206D01*
X107925537Y-99854846D01*
X107940000Y-99927556D01*
X107940000Y-100267556D01*
X107925537Y-100340266D01*
X107884350Y-100401906D01*
X107822710Y-100443093D01*
X107750000Y-100457556D01*
X107470000Y-100457556D01*
X107397290Y-100443093D01*
X107335650Y-100401906D01*
X107294463Y-100340266D01*
X107280000Y-100267556D01*
X107280000Y-99927556D01*
X107294463Y-99854846D01*
X107335650Y-99793206D01*
X107397290Y-99752019D01*
X107470000Y-99737556D01*
X107750000Y-99737556D01*
X107822710Y-99752019D01*
G37*
G36*
X108782710Y-99752019D02*
G01*
X108844350Y-99793206D01*
X108885537Y-99854846D01*
X108900000Y-99927556D01*
X108900000Y-100267556D01*
X108885537Y-100340266D01*
X108844350Y-100401906D01*
X108782710Y-100443093D01*
X108710000Y-100457556D01*
X108430000Y-100457556D01*
X108357290Y-100443093D01*
X108295650Y-100401906D01*
X108254463Y-100340266D01*
X108240000Y-100267556D01*
X108240000Y-99927556D01*
X108254463Y-99854846D01*
X108295650Y-99793206D01*
X108357290Y-99752019D01*
X108430000Y-99737556D01*
X108710000Y-99737556D01*
X108782710Y-99752019D01*
G37*
G36*
X88028685Y-97347969D02*
G01*
X88033261Y-97349989D01*
X88036675Y-97350439D01*
X88079386Y-97370355D01*
X88129541Y-97392501D01*
X88207499Y-97470459D01*
X88229653Y-97520634D01*
X88249560Y-97563324D01*
X88250009Y-97566735D01*
X88252031Y-97571315D01*
X88260000Y-97640000D01*
X88260000Y-99640000D01*
X88252031Y-99708685D01*
X88250008Y-99713264D01*
X88249560Y-99716675D01*
X88229661Y-99759346D01*
X88207499Y-99809541D01*
X88129541Y-99887499D01*
X88079346Y-99909661D01*
X88036675Y-99929560D01*
X88033264Y-99930008D01*
X88028685Y-99932031D01*
X87960000Y-99940000D01*
X86660000Y-99940000D01*
X86591315Y-99932031D01*
X86586735Y-99930009D01*
X86583324Y-99929560D01*
X86540634Y-99909653D01*
X86490459Y-99887499D01*
X86412501Y-99809541D01*
X86390355Y-99759386D01*
X86370439Y-99716675D01*
X86369989Y-99713261D01*
X86367969Y-99708685D01*
X86360000Y-99640000D01*
X86360000Y-97640000D01*
X86367969Y-97571315D01*
X86369989Y-97566739D01*
X86370439Y-97563324D01*
X86390364Y-97520594D01*
X86412501Y-97470459D01*
X86490459Y-97392501D01*
X86540594Y-97370364D01*
X86583324Y-97350439D01*
X86586739Y-97349989D01*
X86591315Y-97347969D01*
X86660000Y-97340000D01*
X87960000Y-97340000D01*
X88028685Y-97347969D01*
G37*
G36*
X102260476Y-97361866D02*
G01*
X102384819Y-97433656D01*
X102486344Y-97535181D01*
X102558134Y-97659524D01*
X102595295Y-97798211D01*
X102595295Y-97941789D01*
X102558134Y-98080476D01*
X102486344Y-98204819D01*
X102384819Y-98306344D01*
X102260476Y-98378134D01*
X102121789Y-98415295D01*
X101978211Y-98415295D01*
X101839524Y-98378134D01*
X101715181Y-98306344D01*
X101613656Y-98204819D01*
X101541866Y-98080476D01*
X101504705Y-97941789D01*
X101504705Y-97798211D01*
X101541866Y-97659524D01*
X101613656Y-97535181D01*
X101715181Y-97433656D01*
X101839524Y-97361866D01*
X101978211Y-97324705D01*
X102121789Y-97324705D01*
X102260476Y-97361866D01*
G37*
G36*
X92718685Y-97042969D02*
G01*
X92723261Y-97044989D01*
X92726675Y-97045439D01*
X92769386Y-97065355D01*
X92819541Y-97087501D01*
X92897499Y-97165459D01*
X92919653Y-97215634D01*
X92939560Y-97258324D01*
X92940009Y-97261735D01*
X92942031Y-97266315D01*
X92950000Y-97335000D01*
X92950000Y-97985000D01*
X92942031Y-98053685D01*
X92940008Y-98058264D01*
X92939560Y-98061675D01*
X92919661Y-98104346D01*
X92897499Y-98154541D01*
X92819541Y-98232499D01*
X92769346Y-98254661D01*
X92726675Y-98274560D01*
X92723264Y-98275008D01*
X92718685Y-98277031D01*
X92650000Y-98285000D01*
X91350000Y-98285000D01*
X91281315Y-98277031D01*
X91276735Y-98275009D01*
X91273324Y-98274560D01*
X91230634Y-98254653D01*
X91180459Y-98232499D01*
X91102501Y-98154541D01*
X91080355Y-98104386D01*
X91060439Y-98061675D01*
X91059989Y-98058261D01*
X91057969Y-98053685D01*
X91050000Y-97985000D01*
X91050000Y-97335000D01*
X91057969Y-97266315D01*
X91059989Y-97261739D01*
X91060439Y-97258324D01*
X91080364Y-97215594D01*
X91102501Y-97165459D01*
X91180459Y-97087501D01*
X91230594Y-97065364D01*
X91273324Y-97045439D01*
X91276739Y-97044989D01*
X91281315Y-97042969D01*
X91350000Y-97035000D01*
X92650000Y-97035000D01*
X92718685Y-97042969D01*
G37*
G36*
X106896537Y-96675280D02*
G01*
X106961421Y-96718635D01*
X107004776Y-96783519D01*
X107020000Y-96860056D01*
X107020000Y-97885056D01*
X107004776Y-97961593D01*
X106961421Y-98026477D01*
X106896537Y-98069832D01*
X106820000Y-98085056D01*
X106520000Y-98085056D01*
X106443463Y-98069832D01*
X106378579Y-98026477D01*
X106335224Y-97961593D01*
X106320000Y-97885056D01*
X106320000Y-96860056D01*
X106335224Y-96783519D01*
X106378579Y-96718635D01*
X106443463Y-96675280D01*
X106520000Y-96660056D01*
X106820000Y-96660056D01*
X106896537Y-96675280D01*
G37*
G36*
X108796537Y-96675280D02*
G01*
X108861421Y-96718635D01*
X108904776Y-96783519D01*
X108920000Y-96860056D01*
X108920000Y-97885056D01*
X108904776Y-97961593D01*
X108861421Y-98026477D01*
X108796537Y-98069832D01*
X108720000Y-98085056D01*
X108420000Y-98085056D01*
X108343463Y-98069832D01*
X108278579Y-98026477D01*
X108235224Y-97961593D01*
X108220000Y-97885056D01*
X108220000Y-96860056D01*
X108235224Y-96783519D01*
X108278579Y-96718635D01*
X108343463Y-96675280D01*
X108420000Y-96660056D01*
X108720000Y-96660056D01*
X108796537Y-96675280D01*
G37*
G36*
X99092710Y-96804463D02*
G01*
X99154350Y-96845650D01*
X99195537Y-96907290D01*
X99210000Y-96980000D01*
X99210000Y-97320000D01*
X99195537Y-97392710D01*
X99154350Y-97454350D01*
X99092710Y-97495537D01*
X99020000Y-97510000D01*
X98740000Y-97510000D01*
X98667290Y-97495537D01*
X98605650Y-97454350D01*
X98564463Y-97392710D01*
X98550000Y-97320000D01*
X98550000Y-96980000D01*
X98564463Y-96907290D01*
X98605650Y-96845650D01*
X98667290Y-96804463D01*
X98740000Y-96790000D01*
X99020000Y-96790000D01*
X99092710Y-96804463D01*
G37*
G36*
X100052710Y-96804463D02*
G01*
X100114350Y-96845650D01*
X100155537Y-96907290D01*
X100170000Y-96980000D01*
X100170000Y-97320000D01*
X100155537Y-97392710D01*
X100114350Y-97454350D01*
X100052710Y-97495537D01*
X99980000Y-97510000D01*
X99700000Y-97510000D01*
X99627290Y-97495537D01*
X99565650Y-97454350D01*
X99524463Y-97392710D01*
X99510000Y-97320000D01*
X99510000Y-96980000D01*
X99524463Y-96907290D01*
X99565650Y-96845650D01*
X99627290Y-96804463D01*
X99700000Y-96790000D01*
X99980000Y-96790000D01*
X100052710Y-96804463D01*
G37*
G36*
X95314037Y-96465224D02*
G01*
X95378921Y-96508579D01*
X95422276Y-96573463D01*
X95437500Y-96650000D01*
X95437500Y-96950000D01*
X95422276Y-97026537D01*
X95378921Y-97091421D01*
X95314037Y-97134776D01*
X95237500Y-97150000D01*
X94212500Y-97150000D01*
X94135963Y-97134776D01*
X94071079Y-97091421D01*
X94027724Y-97026537D01*
X94012500Y-96950000D01*
X94012500Y-96650000D01*
X94027724Y-96573463D01*
X94071079Y-96508579D01*
X94135963Y-96465224D01*
X94212500Y-96450000D01*
X95237500Y-96450000D01*
X95314037Y-96465224D01*
G37*
G36*
X97589037Y-96465224D02*
G01*
X97653921Y-96508579D01*
X97697276Y-96573463D01*
X97712500Y-96650000D01*
X97712500Y-96950000D01*
X97697276Y-97026537D01*
X97653921Y-97091421D01*
X97589037Y-97134776D01*
X97512500Y-97150000D01*
X96487500Y-97150000D01*
X96410963Y-97134776D01*
X96346079Y-97091421D01*
X96302724Y-97026537D01*
X96287500Y-96950000D01*
X96287500Y-96650000D01*
X96302724Y-96573463D01*
X96346079Y-96508579D01*
X96410963Y-96465224D01*
X96487500Y-96450000D01*
X97512500Y-96450000D01*
X97589037Y-96465224D01*
G37*
G36*
X105023685Y-95767969D02*
G01*
X105028261Y-95769989D01*
X105031675Y-95770439D01*
X105074386Y-95790355D01*
X105124541Y-95812501D01*
X105202499Y-95890459D01*
X105224653Y-95940634D01*
X105244560Y-95983324D01*
X105245009Y-95986735D01*
X105247031Y-95991315D01*
X105255000Y-96060000D01*
X105255000Y-96560000D01*
X105247031Y-96628685D01*
X105245008Y-96633264D01*
X105244560Y-96636675D01*
X105224661Y-96679346D01*
X105202499Y-96729541D01*
X105124541Y-96807499D01*
X105074346Y-96829661D01*
X105031675Y-96849560D01*
X105028264Y-96850008D01*
X105023685Y-96852031D01*
X104955000Y-96860000D01*
X104005000Y-96860000D01*
X103936315Y-96852031D01*
X103931735Y-96850009D01*
X103928324Y-96849560D01*
X103885634Y-96829653D01*
X103835459Y-96807499D01*
X103757501Y-96729541D01*
X103735355Y-96679386D01*
X103715439Y-96636675D01*
X103714989Y-96633261D01*
X103712969Y-96628685D01*
X103705000Y-96560000D01*
X103705000Y-96060000D01*
X103712969Y-95991315D01*
X103714989Y-95986739D01*
X103715439Y-95983324D01*
X103735364Y-95940594D01*
X103757501Y-95890459D01*
X103835459Y-95812501D01*
X103885594Y-95790364D01*
X103928324Y-95770439D01*
X103931739Y-95769989D01*
X103936315Y-95767969D01*
X104005000Y-95760000D01*
X104955000Y-95760000D01*
X105023685Y-95767969D01*
G37*
G36*
X95314037Y-95515224D02*
G01*
X95378921Y-95558579D01*
X95422276Y-95623463D01*
X95437500Y-95700000D01*
X95437500Y-96000000D01*
X95422276Y-96076537D01*
X95378921Y-96141421D01*
X95314037Y-96184776D01*
X95237500Y-96200000D01*
X94212500Y-96200000D01*
X94135963Y-96184776D01*
X94071079Y-96141421D01*
X94027724Y-96076537D01*
X94012500Y-96000000D01*
X94012500Y-95700000D01*
X94027724Y-95623463D01*
X94071079Y-95558579D01*
X94135963Y-95515224D01*
X94212500Y-95500000D01*
X95237500Y-95500000D01*
X95314037Y-95515224D01*
G37*
G36*
X97589037Y-95515224D02*
G01*
X97653921Y-95558579D01*
X97697276Y-95623463D01*
X97712500Y-95700000D01*
X97712500Y-96000000D01*
X97697276Y-96076537D01*
X97653921Y-96141421D01*
X97589037Y-96184776D01*
X97512500Y-96200000D01*
X96487500Y-96200000D01*
X96410963Y-96184776D01*
X96346079Y-96141421D01*
X96302724Y-96076537D01*
X96287500Y-96000000D01*
X96287500Y-95700000D01*
X96302724Y-95623463D01*
X96346079Y-95558579D01*
X96410963Y-95515224D01*
X96487500Y-95500000D01*
X97512500Y-95500000D01*
X97589037Y-95515224D01*
G37*
G36*
X100121981Y-94810642D02*
G01*
X100178815Y-94817236D01*
X100198233Y-94825809D01*
X100221596Y-94830457D01*
X100246606Y-94847168D01*
X100270236Y-94857602D01*
X100286375Y-94873741D01*
X100308785Y-94888715D01*
X100323758Y-94911124D01*
X100339897Y-94927263D01*
X100350330Y-94950891D01*
X100367043Y-94975904D01*
X100371690Y-94999266D01*
X100380262Y-95018680D01*
X100386853Y-95075497D01*
X100387500Y-95078750D01*
X100387500Y-95841250D01*
X100386854Y-95844493D01*
X100380263Y-95901315D01*
X100371690Y-95920729D01*
X100367043Y-95944096D01*
X100350328Y-95969111D01*
X100339897Y-95992736D01*
X100323760Y-96008872D01*
X100308785Y-96031285D01*
X100286372Y-96046260D01*
X100270236Y-96062397D01*
X100246610Y-96072828D01*
X100221596Y-96089543D01*
X100198231Y-96094190D01*
X100178819Y-96102762D01*
X100122004Y-96109352D01*
X100118750Y-96110000D01*
X99681250Y-96110000D01*
X99678008Y-96109355D01*
X99621184Y-96102763D01*
X99601769Y-96094190D01*
X99578404Y-96089543D01*
X99553390Y-96072829D01*
X99529763Y-96062397D01*
X99513624Y-96046258D01*
X99491215Y-96031285D01*
X99476241Y-96008875D01*
X99460102Y-95992736D01*
X99449668Y-95969106D01*
X99432957Y-95944096D01*
X99428310Y-95920735D01*
X99419737Y-95901319D01*
X99413144Y-95844492D01*
X99412500Y-95841250D01*
X99412500Y-95078750D01*
X99413142Y-95075520D01*
X99419736Y-95018684D01*
X99428310Y-94999264D01*
X99432957Y-94975904D01*
X99449667Y-94950894D01*
X99460102Y-94927263D01*
X99476243Y-94911121D01*
X99491215Y-94888715D01*
X99513621Y-94873743D01*
X99529763Y-94857602D01*
X99553395Y-94847166D01*
X99578404Y-94830457D01*
X99601762Y-94825810D01*
X99621180Y-94817237D01*
X99678009Y-94810644D01*
X99681250Y-94810000D01*
X100118750Y-94810000D01*
X100121981Y-94810642D01*
G37*
G36*
X102246981Y-94810642D02*
G01*
X102303815Y-94817236D01*
X102323233Y-94825809D01*
X102346596Y-94830457D01*
X102371606Y-94847168D01*
X102395236Y-94857602D01*
X102411375Y-94873741D01*
X102433785Y-94888715D01*
X102448758Y-94911124D01*
X102464897Y-94927263D01*
X102475330Y-94950891D01*
X102492043Y-94975904D01*
X102496690Y-94999266D01*
X102505262Y-95018680D01*
X102511853Y-95075497D01*
X102512500Y-95078750D01*
X102512500Y-95841250D01*
X102511854Y-95844493D01*
X102505263Y-95901315D01*
X102496690Y-95920729D01*
X102492043Y-95944096D01*
X102475328Y-95969111D01*
X102464897Y-95992736D01*
X102448760Y-96008872D01*
X102433785Y-96031285D01*
X102411372Y-96046260D01*
X102395236Y-96062397D01*
X102371610Y-96072828D01*
X102346596Y-96089543D01*
X102323231Y-96094190D01*
X102303819Y-96102762D01*
X102247004Y-96109352D01*
X102243750Y-96110000D01*
X101806250Y-96110000D01*
X101803008Y-96109355D01*
X101746184Y-96102763D01*
X101726769Y-96094190D01*
X101703404Y-96089543D01*
X101678390Y-96072829D01*
X101654763Y-96062397D01*
X101638624Y-96046258D01*
X101616215Y-96031285D01*
X101601241Y-96008875D01*
X101585102Y-95992736D01*
X101574668Y-95969106D01*
X101557957Y-95944096D01*
X101553310Y-95920735D01*
X101544737Y-95901319D01*
X101538144Y-95844492D01*
X101537500Y-95841250D01*
X101537500Y-95078750D01*
X101538142Y-95075520D01*
X101544736Y-95018684D01*
X101553310Y-94999264D01*
X101557957Y-94975904D01*
X101574667Y-94950894D01*
X101585102Y-94927263D01*
X101601243Y-94911121D01*
X101616215Y-94888715D01*
X101638621Y-94873743D01*
X101654763Y-94857602D01*
X101678395Y-94847166D01*
X101703404Y-94830457D01*
X101726762Y-94825810D01*
X101746180Y-94817237D01*
X101803009Y-94810644D01*
X101806250Y-94810000D01*
X102243750Y-94810000D01*
X102246981Y-94810642D01*
G37*
G36*
X88028685Y-93347969D02*
G01*
X88033261Y-93349989D01*
X88036675Y-93350439D01*
X88079386Y-93370355D01*
X88129541Y-93392501D01*
X88207499Y-93470459D01*
X88229653Y-93520634D01*
X88249560Y-93563324D01*
X88250009Y-93566735D01*
X88252031Y-93571315D01*
X88260000Y-93640000D01*
X88260000Y-95640000D01*
X88252031Y-95708685D01*
X88250008Y-95713264D01*
X88249560Y-95716675D01*
X88229661Y-95759346D01*
X88207499Y-95809541D01*
X88129541Y-95887499D01*
X88079346Y-95909661D01*
X88036675Y-95929560D01*
X88033264Y-95930008D01*
X88028685Y-95932031D01*
X87960000Y-95940000D01*
X86660000Y-95940000D01*
X86591315Y-95932031D01*
X86586735Y-95930009D01*
X86583324Y-95929560D01*
X86540634Y-95909653D01*
X86490459Y-95887499D01*
X86412501Y-95809541D01*
X86390355Y-95759386D01*
X86370439Y-95716675D01*
X86369989Y-95713261D01*
X86367969Y-95708685D01*
X86360000Y-95640000D01*
X86360000Y-93640000D01*
X86367969Y-93571315D01*
X86369989Y-93566739D01*
X86370439Y-93563324D01*
X86390364Y-93520594D01*
X86412501Y-93470459D01*
X86490459Y-93392501D01*
X86540594Y-93370364D01*
X86583324Y-93350439D01*
X86586739Y-93349989D01*
X86591315Y-93347969D01*
X86660000Y-93340000D01*
X87960000Y-93340000D01*
X88028685Y-93347969D01*
G37*
G36*
X106896537Y-94400280D02*
G01*
X106961421Y-94443635D01*
X107004776Y-94508519D01*
X107020000Y-94585056D01*
X107020000Y-95610056D01*
X107004776Y-95686593D01*
X106961421Y-95751477D01*
X106896537Y-95794832D01*
X106820000Y-95810056D01*
X106520000Y-95810056D01*
X106443463Y-95794832D01*
X106378579Y-95751477D01*
X106335224Y-95686593D01*
X106320000Y-95610056D01*
X106320000Y-94585056D01*
X106335224Y-94508519D01*
X106378579Y-94443635D01*
X106443463Y-94400280D01*
X106520000Y-94385056D01*
X106820000Y-94385056D01*
X106896537Y-94400280D01*
G37*
G36*
X107846537Y-94400280D02*
G01*
X107911421Y-94443635D01*
X107954776Y-94508519D01*
X107970000Y-94585056D01*
X107970000Y-95610056D01*
X107954776Y-95686593D01*
X107911421Y-95751477D01*
X107846537Y-95794832D01*
X107770000Y-95810056D01*
X107470000Y-95810056D01*
X107393463Y-95794832D01*
X107328579Y-95751477D01*
X107285224Y-95686593D01*
X107270000Y-95610056D01*
X107270000Y-94585056D01*
X107285224Y-94508519D01*
X107328579Y-94443635D01*
X107393463Y-94400280D01*
X107470000Y-94385056D01*
X107770000Y-94385056D01*
X107846537Y-94400280D01*
G37*
G36*
X108796537Y-94400280D02*
G01*
X108861421Y-94443635D01*
X108904776Y-94508519D01*
X108920000Y-94585056D01*
X108920000Y-95610056D01*
X108904776Y-95686593D01*
X108861421Y-95751477D01*
X108796537Y-95794832D01*
X108720000Y-95810056D01*
X108420000Y-95810056D01*
X108343463Y-95794832D01*
X108278579Y-95751477D01*
X108235224Y-95686593D01*
X108220000Y-95610056D01*
X108220000Y-94585056D01*
X108235224Y-94508519D01*
X108278579Y-94443635D01*
X108343463Y-94400280D01*
X108420000Y-94385056D01*
X108720000Y-94385056D01*
X108796537Y-94400280D01*
G37*
G36*
X92718685Y-94092969D02*
G01*
X92723261Y-94094989D01*
X92726675Y-94095439D01*
X92769386Y-94115355D01*
X92819541Y-94137501D01*
X92897499Y-94215459D01*
X92919653Y-94265634D01*
X92939560Y-94308324D01*
X92940009Y-94311735D01*
X92942031Y-94316315D01*
X92950000Y-94385000D01*
X92950000Y-95035000D01*
X92942031Y-95103685D01*
X92940008Y-95108264D01*
X92939560Y-95111675D01*
X92919661Y-95154346D01*
X92897499Y-95204541D01*
X92819541Y-95282499D01*
X92769346Y-95304661D01*
X92726675Y-95324560D01*
X92723264Y-95325008D01*
X92718685Y-95327031D01*
X92650000Y-95335000D01*
X91350000Y-95335000D01*
X91281315Y-95327031D01*
X91276735Y-95325009D01*
X91273324Y-95324560D01*
X91230634Y-95304653D01*
X91180459Y-95282499D01*
X91102501Y-95204541D01*
X91080355Y-95154386D01*
X91060439Y-95111675D01*
X91059989Y-95108261D01*
X91057969Y-95103685D01*
X91050000Y-95035000D01*
X91050000Y-94385000D01*
X91057969Y-94316315D01*
X91059989Y-94311739D01*
X91060439Y-94308324D01*
X91080364Y-94265594D01*
X91102501Y-94215459D01*
X91180459Y-94137501D01*
X91230594Y-94115364D01*
X91273324Y-94095439D01*
X91276739Y-94094989D01*
X91281315Y-94092969D01*
X91350000Y-94085000D01*
X92650000Y-94085000D01*
X92718685Y-94092969D01*
G37*
G36*
X95314037Y-94565224D02*
G01*
X95378921Y-94608579D01*
X95422276Y-94673463D01*
X95437500Y-94750000D01*
X95437500Y-95050000D01*
X95422276Y-95126537D01*
X95378921Y-95191421D01*
X95314037Y-95234776D01*
X95237500Y-95250000D01*
X94212500Y-95250000D01*
X94135963Y-95234776D01*
X94071079Y-95191421D01*
X94027724Y-95126537D01*
X94012500Y-95050000D01*
X94012500Y-94750000D01*
X94027724Y-94673463D01*
X94071079Y-94608579D01*
X94135963Y-94565224D01*
X94212500Y-94550000D01*
X95237500Y-94550000D01*
X95314037Y-94565224D01*
G37*
G36*
X97589037Y-94565224D02*
G01*
X97653921Y-94608579D01*
X97697276Y-94673463D01*
X97712500Y-94750000D01*
X97712500Y-95050000D01*
X97697276Y-95126537D01*
X97653921Y-95191421D01*
X97589037Y-95234776D01*
X97512500Y-95250000D01*
X96487500Y-95250000D01*
X96410963Y-95234776D01*
X96346079Y-95191421D01*
X96302724Y-95126537D01*
X96287500Y-95050000D01*
X96287500Y-94750000D01*
X96302724Y-94673463D01*
X96346079Y-94608579D01*
X96410963Y-94565224D01*
X96487500Y-94550000D01*
X97512500Y-94550000D01*
X97589037Y-94565224D01*
G37*
G36*
X105023685Y-93867969D02*
G01*
X105028261Y-93869989D01*
X105031675Y-93870439D01*
X105074386Y-93890355D01*
X105124541Y-93912501D01*
X105202499Y-93990459D01*
X105224653Y-94040634D01*
X105244560Y-94083324D01*
X105245009Y-94086735D01*
X105247031Y-94091315D01*
X105255000Y-94160000D01*
X105255000Y-94660000D01*
X105247031Y-94728685D01*
X105245008Y-94733264D01*
X105244560Y-94736675D01*
X105224661Y-94779346D01*
X105202499Y-94829541D01*
X105124541Y-94907499D01*
X105074346Y-94929661D01*
X105031675Y-94949560D01*
X105028264Y-94950008D01*
X105023685Y-94952031D01*
X104955000Y-94960000D01*
X104005000Y-94960000D01*
X103936315Y-94952031D01*
X103931735Y-94950009D01*
X103928324Y-94949560D01*
X103885634Y-94929653D01*
X103835459Y-94907499D01*
X103757501Y-94829541D01*
X103735355Y-94779386D01*
X103715439Y-94736675D01*
X103714989Y-94733261D01*
X103712969Y-94728685D01*
X103705000Y-94660000D01*
X103705000Y-94160000D01*
X103712969Y-94091315D01*
X103714989Y-94086739D01*
X103715439Y-94083324D01*
X103735364Y-94040594D01*
X103757501Y-93990459D01*
X103835459Y-93912501D01*
X103885594Y-93890364D01*
X103928324Y-93870439D01*
X103931739Y-93869989D01*
X103936315Y-93867969D01*
X104005000Y-93860000D01*
X104955000Y-93860000D01*
X105023685Y-93867969D01*
G37*
G36*
X101175796Y-93314082D02*
G01*
X101235815Y-93354185D01*
X101275918Y-93414204D01*
X101290000Y-93485000D01*
X101290000Y-93855000D01*
X101275918Y-93925796D01*
X101235815Y-93985815D01*
X101175796Y-94025918D01*
X101105000Y-94040000D01*
X100835000Y-94040000D01*
X100764204Y-94025918D01*
X100704185Y-93985815D01*
X100664082Y-93925796D01*
X100650000Y-93855000D01*
X100650000Y-93485000D01*
X100664082Y-93414204D01*
X100704185Y-93354185D01*
X100764204Y-93314082D01*
X100835000Y-93300000D01*
X101105000Y-93300000D01*
X101175796Y-93314082D01*
G37*
G36*
X102195796Y-93314082D02*
G01*
X102255815Y-93354185D01*
X102295918Y-93414204D01*
X102310000Y-93485000D01*
X102310000Y-93855000D01*
X102295918Y-93925796D01*
X102255815Y-93985815D01*
X102195796Y-94025918D01*
X102125000Y-94040000D01*
X101855000Y-94040000D01*
X101784204Y-94025918D01*
X101724185Y-93985815D01*
X101684082Y-93925796D01*
X101670000Y-93855000D01*
X101670000Y-93485000D01*
X101684082Y-93414204D01*
X101724185Y-93354185D01*
X101784204Y-93314082D01*
X101855000Y-93300000D01*
X102125000Y-93300000D01*
X102195796Y-93314082D01*
G37*
G36*
X107822710Y-92752019D02*
G01*
X107884350Y-92793206D01*
X107925537Y-92854846D01*
X107940000Y-92927556D01*
X107940000Y-93267556D01*
X107925537Y-93340266D01*
X107884350Y-93401906D01*
X107822710Y-93443093D01*
X107750000Y-93457556D01*
X107470000Y-93457556D01*
X107397290Y-93443093D01*
X107335650Y-93401906D01*
X107294463Y-93340266D01*
X107280000Y-93267556D01*
X107280000Y-92927556D01*
X107294463Y-92854846D01*
X107335650Y-92793206D01*
X107397290Y-92752019D01*
X107470000Y-92737556D01*
X107750000Y-92737556D01*
X107822710Y-92752019D01*
G37*
G36*
X108782710Y-92752019D02*
G01*
X108844350Y-92793206D01*
X108885537Y-92854846D01*
X108900000Y-92927556D01*
X108900000Y-93267556D01*
X108885537Y-93340266D01*
X108844350Y-93401906D01*
X108782710Y-93443093D01*
X108710000Y-93457556D01*
X108430000Y-93457556D01*
X108357290Y-93443093D01*
X108295650Y-93401906D01*
X108254463Y-93340266D01*
X108240000Y-93267556D01*
X108240000Y-92927556D01*
X108254463Y-92854846D01*
X108295650Y-92793206D01*
X108357290Y-92752019D01*
X108430000Y-92737556D01*
X108710000Y-92737556D01*
X108782710Y-92752019D01*
G37*
G36*
X98305796Y-92094082D02*
G01*
X98365815Y-92134185D01*
X98405918Y-92194204D01*
X98420000Y-92265000D01*
X98420000Y-92635000D01*
X98405918Y-92705796D01*
X98365815Y-92765815D01*
X98305796Y-92805918D01*
X98235000Y-92820000D01*
X97965000Y-92820000D01*
X97894204Y-92805918D01*
X97834185Y-92765815D01*
X97794082Y-92705796D01*
X97780000Y-92635000D01*
X97780000Y-92265000D01*
X97794082Y-92194204D01*
X97834185Y-92134185D01*
X97894204Y-92094082D01*
X97965000Y-92080000D01*
X98235000Y-92080000D01*
X98305796Y-92094082D01*
G37*
G36*
X99325796Y-92094082D02*
G01*
X99385815Y-92134185D01*
X99425918Y-92194204D01*
X99440000Y-92265000D01*
X99440000Y-92635000D01*
X99425918Y-92705796D01*
X99385815Y-92765815D01*
X99325796Y-92805918D01*
X99255000Y-92820000D01*
X98985000Y-92820000D01*
X98914204Y-92805918D01*
X98854185Y-92765815D01*
X98814082Y-92705796D01*
X98800000Y-92635000D01*
X98800000Y-92265000D01*
X98814082Y-92194204D01*
X98854185Y-92134185D01*
X98914204Y-92094082D01*
X98985000Y-92080000D01*
X99255000Y-92080000D01*
X99325796Y-92094082D01*
G37*
G36*
X90361840Y-88492827D02*
G01*
X90593159Y-88567987D01*
X90809873Y-88678408D01*
X91006644Y-88821371D01*
X91178629Y-88993356D01*
X91321592Y-89190127D01*
X91432013Y-89406841D01*
X91507173Y-89638160D01*
X91545222Y-89878388D01*
X91545222Y-90121612D01*
X91507173Y-90361840D01*
X91432013Y-90593159D01*
X91321592Y-90809873D01*
X91178629Y-91006644D01*
X91006644Y-91178629D01*
X90809873Y-91321592D01*
X90593159Y-91432013D01*
X90361840Y-91507173D01*
X90121612Y-91545222D01*
X89878388Y-91545222D01*
X89638160Y-91507173D01*
X89406841Y-91432013D01*
X89190127Y-91321592D01*
X88993356Y-91178629D01*
X88821371Y-91006644D01*
X88678408Y-90809873D01*
X88567987Y-90593159D01*
X88492827Y-90361840D01*
X88454778Y-90121612D01*
X88454778Y-89878388D01*
X88492827Y-89638160D01*
X88567987Y-89406841D01*
X88678408Y-89190127D01*
X88821371Y-88993356D01*
X88993356Y-88821371D01*
X89190127Y-88678408D01*
X89406841Y-88567987D01*
X89638160Y-88492827D01*
X89878388Y-88454778D01*
X90121612Y-88454778D01*
X90361840Y-88492827D01*
G37*
G36*
X110361840Y-88492827D02*
G01*
X110593159Y-88567987D01*
X110809873Y-88678408D01*
X111006644Y-88821371D01*
X111178629Y-88993356D01*
X111321592Y-89190127D01*
X111432013Y-89406841D01*
X111507173Y-89638160D01*
X111545222Y-89878388D01*
X111545222Y-90121612D01*
X111507173Y-90361840D01*
X111432013Y-90593159D01*
X111321592Y-90809873D01*
X111178629Y-91006644D01*
X111006644Y-91178629D01*
X110809873Y-91321592D01*
X110593159Y-91432013D01*
X110361840Y-91507173D01*
X110121612Y-91545222D01*
X109878388Y-91545222D01*
X109638160Y-91507173D01*
X109406841Y-91432013D01*
X109190127Y-91321592D01*
X108993356Y-91178629D01*
X108821371Y-91006644D01*
X108678408Y-90809873D01*
X108567987Y-90593159D01*
X108492827Y-90361840D01*
X108454778Y-90121612D01*
X108454778Y-89878388D01*
X108492827Y-89638160D01*
X108567987Y-89406841D01*
X108678408Y-89190127D01*
X108821371Y-88993356D01*
X108993356Y-88821371D01*
X109190127Y-88678408D01*
X109406841Y-88567987D01*
X109638160Y-88492827D01*
X109878388Y-88454778D01*
X110121612Y-88454778D01*
X110361840Y-88492827D01*
G37*
G36*
X96756537Y-89490224D02*
G01*
X96821421Y-89533579D01*
X96864776Y-89598463D01*
X96880000Y-89675000D01*
X96880000Y-90925000D01*
X96864776Y-91001537D01*
X96821421Y-91066421D01*
X96756537Y-91109776D01*
X96680000Y-91125000D01*
X96380000Y-91125000D01*
X96303463Y-91109776D01*
X96238579Y-91066421D01*
X96195224Y-91001537D01*
X96180000Y-90925000D01*
X96180000Y-89675000D01*
X96195224Y-89598463D01*
X96238579Y-89533579D01*
X96303463Y-89490224D01*
X96380000Y-89475000D01*
X96680000Y-89475000D01*
X96756537Y-89490224D01*
G37*
G36*
X97756537Y-89490224D02*
G01*
X97821421Y-89533579D01*
X97864776Y-89598463D01*
X97880000Y-89675000D01*
X97880000Y-90925000D01*
X97864776Y-91001537D01*
X97821421Y-91066421D01*
X97756537Y-91109776D01*
X97680000Y-91125000D01*
X97380000Y-91125000D01*
X97303463Y-91109776D01*
X97238579Y-91066421D01*
X97195224Y-91001537D01*
X97180000Y-90925000D01*
X97180000Y-89675000D01*
X97195224Y-89598463D01*
X97238579Y-89533579D01*
X97303463Y-89490224D01*
X97380000Y-89475000D01*
X97680000Y-89475000D01*
X97756537Y-89490224D01*
G37*
G36*
X98756537Y-89490224D02*
G01*
X98821421Y-89533579D01*
X98864776Y-89598463D01*
X98880000Y-89675000D01*
X98880000Y-90925000D01*
X98864776Y-91001537D01*
X98821421Y-91066421D01*
X98756537Y-91109776D01*
X98680000Y-91125000D01*
X98380000Y-91125000D01*
X98303463Y-91109776D01*
X98238579Y-91066421D01*
X98195224Y-91001537D01*
X98180000Y-90925000D01*
X98180000Y-89675000D01*
X98195224Y-89598463D01*
X98238579Y-89533579D01*
X98303463Y-89490224D01*
X98380000Y-89475000D01*
X98680000Y-89475000D01*
X98756537Y-89490224D01*
G37*
G36*
X99756537Y-89490224D02*
G01*
X99821421Y-89533579D01*
X99864776Y-89598463D01*
X99880000Y-89675000D01*
X99880000Y-90925000D01*
X99864776Y-91001537D01*
X99821421Y-91066421D01*
X99756537Y-91109776D01*
X99680000Y-91125000D01*
X99380000Y-91125000D01*
X99303463Y-91109776D01*
X99238579Y-91066421D01*
X99195224Y-91001537D01*
X99180000Y-90925000D01*
X99180000Y-89675000D01*
X99195224Y-89598463D01*
X99238579Y-89533579D01*
X99303463Y-89490224D01*
X99380000Y-89475000D01*
X99680000Y-89475000D01*
X99756537Y-89490224D01*
G37*
G36*
X100756537Y-89490224D02*
G01*
X100821421Y-89533579D01*
X100864776Y-89598463D01*
X100880000Y-89675000D01*
X100880000Y-90925000D01*
X100864776Y-91001537D01*
X100821421Y-91066421D01*
X100756537Y-91109776D01*
X100680000Y-91125000D01*
X100380000Y-91125000D01*
X100303463Y-91109776D01*
X100238579Y-91066421D01*
X100195224Y-91001537D01*
X100180000Y-90925000D01*
X100180000Y-89675000D01*
X100195224Y-89598463D01*
X100238579Y-89533579D01*
X100303463Y-89490224D01*
X100380000Y-89475000D01*
X100680000Y-89475000D01*
X100756537Y-89490224D01*
G37*
G36*
X101756537Y-89490224D02*
G01*
X101821421Y-89533579D01*
X101864776Y-89598463D01*
X101880000Y-89675000D01*
X101880000Y-90925000D01*
X101864776Y-91001537D01*
X101821421Y-91066421D01*
X101756537Y-91109776D01*
X101680000Y-91125000D01*
X101380000Y-91125000D01*
X101303463Y-91109776D01*
X101238579Y-91066421D01*
X101195224Y-91001537D01*
X101180000Y-90925000D01*
X101180000Y-89675000D01*
X101195224Y-89598463D01*
X101238579Y-89533579D01*
X101303463Y-89490224D01*
X101380000Y-89475000D01*
X101680000Y-89475000D01*
X101756537Y-89490224D01*
G37*
G36*
X102756537Y-89490224D02*
G01*
X102821421Y-89533579D01*
X102864776Y-89598463D01*
X102880000Y-89675000D01*
X102880000Y-90925000D01*
X102864776Y-91001537D01*
X102821421Y-91066421D01*
X102756537Y-91109776D01*
X102680000Y-91125000D01*
X102380000Y-91125000D01*
X102303463Y-91109776D01*
X102238579Y-91066421D01*
X102195224Y-91001537D01*
X102180000Y-90925000D01*
X102180000Y-89675000D01*
X102195224Y-89598463D01*
X102238579Y-89533579D01*
X102303463Y-89490224D01*
X102380000Y-89475000D01*
X102680000Y-89475000D01*
X102756537Y-89490224D01*
G37*
G36*
X103756537Y-89490224D02*
G01*
X103821421Y-89533579D01*
X103864776Y-89598463D01*
X103880000Y-89675000D01*
X103880000Y-90925000D01*
X103864776Y-91001537D01*
X103821421Y-91066421D01*
X103756537Y-91109776D01*
X103680000Y-91125000D01*
X103380000Y-91125000D01*
X103303463Y-91109776D01*
X103238579Y-91066421D01*
X103195224Y-91001537D01*
X103180000Y-90925000D01*
X103180000Y-89675000D01*
X103195224Y-89598463D01*
X103238579Y-89533579D01*
X103303463Y-89490224D01*
X103380000Y-89475000D01*
X103680000Y-89475000D01*
X103756537Y-89490224D01*
G37*
G36*
X93550476Y-89811866D02*
G01*
X93674819Y-89883656D01*
X93776344Y-89985181D01*
X93848134Y-90109524D01*
X93885295Y-90248211D01*
X93885295Y-90391789D01*
X93848134Y-90530476D01*
X93776344Y-90654819D01*
X93674819Y-90756344D01*
X93550476Y-90828134D01*
X93411789Y-90865295D01*
X93268211Y-90865295D01*
X93129524Y-90828134D01*
X93005181Y-90756344D01*
X92903656Y-90654819D01*
X92831866Y-90530476D01*
X92794705Y-90391789D01*
X92794705Y-90248211D01*
X92831866Y-90109524D01*
X92903656Y-89985181D01*
X93005181Y-89883656D01*
X93129524Y-89811866D01*
X93268211Y-89774705D01*
X93411789Y-89774705D01*
X93550476Y-89811866D01*
G37*
G36*
X95648685Y-85482969D02*
G01*
X95653261Y-85484989D01*
X95656675Y-85485439D01*
X95699386Y-85505355D01*
X95749541Y-85527501D01*
X95827499Y-85605459D01*
X95849653Y-85655634D01*
X95869560Y-85698324D01*
X95870009Y-85701735D01*
X95872031Y-85706315D01*
X95880000Y-85775000D01*
X95880000Y-87075000D01*
X95872031Y-87143685D01*
X95870008Y-87148264D01*
X95869560Y-87151675D01*
X95849661Y-87194346D01*
X95827499Y-87244541D01*
X95749541Y-87322499D01*
X95699346Y-87344661D01*
X95656675Y-87364560D01*
X95653264Y-87365008D01*
X95648685Y-87367031D01*
X95580000Y-87375000D01*
X94880000Y-87375000D01*
X94811315Y-87367031D01*
X94806735Y-87365009D01*
X94803324Y-87364560D01*
X94760634Y-87344653D01*
X94710459Y-87322499D01*
X94632501Y-87244541D01*
X94610355Y-87194386D01*
X94590439Y-87151675D01*
X94589989Y-87148261D01*
X94587969Y-87143685D01*
X94580000Y-87075000D01*
X94580000Y-85775000D01*
X94587969Y-85706315D01*
X94589989Y-85701739D01*
X94590439Y-85698324D01*
X94610364Y-85655594D01*
X94632501Y-85605459D01*
X94710459Y-85527501D01*
X94760594Y-85505364D01*
X94803324Y-85485439D01*
X94806739Y-85484989D01*
X94811315Y-85482969D01*
X94880000Y-85475000D01*
X95580000Y-85475000D01*
X95648685Y-85482969D01*
G37*
G36*
X105248685Y-85482969D02*
G01*
X105253261Y-85484989D01*
X105256675Y-85485439D01*
X105299386Y-85505355D01*
X105349541Y-85527501D01*
X105427499Y-85605459D01*
X105449653Y-85655634D01*
X105469560Y-85698324D01*
X105470009Y-85701735D01*
X105472031Y-85706315D01*
X105480000Y-85775000D01*
X105480000Y-87075000D01*
X105472031Y-87143685D01*
X105470008Y-87148264D01*
X105469560Y-87151675D01*
X105449661Y-87194346D01*
X105427499Y-87244541D01*
X105349541Y-87322499D01*
X105299346Y-87344661D01*
X105256675Y-87364560D01*
X105253264Y-87365008D01*
X105248685Y-87367031D01*
X105180000Y-87375000D01*
X104480000Y-87375000D01*
X104411315Y-87367031D01*
X104406735Y-87365009D01*
X104403324Y-87364560D01*
X104360634Y-87344653D01*
X104310459Y-87322499D01*
X104232501Y-87244541D01*
X104210355Y-87194386D01*
X104190439Y-87151675D01*
X104189989Y-87148261D01*
X104187969Y-87143685D01*
X104180000Y-87075000D01*
X104180000Y-85775000D01*
X104187969Y-85706315D01*
X104189989Y-85701739D01*
X104190439Y-85698324D01*
X104210364Y-85655594D01*
X104232501Y-85605459D01*
X104310459Y-85527501D01*
X104360594Y-85505364D01*
X104403324Y-85485439D01*
X104406739Y-85484989D01*
X104411315Y-85482969D01*
X104480000Y-85475000D01*
X105180000Y-85475000D01*
X105248685Y-85482969D01*
G37*
M02*
